<svg width="41" height="40" viewBox="0 0 41 40" fill="none" xmlns="http://www.w3.org/2000/svg">
<path d="M38.1667 20C38.1667 29.66 30.3354 37.5 20.6667 37.5C10.9979 37.5 3.16667 29.66 3.16667 20C3.16667 10.3312 10.9979 2.5 20.6667 2.5C30.3354 2.5 38.1667 10.3312 38.1667 20Z" fill="black"/>
<path d="M28.8693 15.5717C28.7738 15.6274 26.5005 16.8031 26.5005 19.4098C26.6077 22.3826 29.3693 23.4252 29.4167 23.4252C29.3693 23.4809 28.9997 24.8454 27.905 26.2757C27.0362 27.5078 26.0719 28.75 24.6077 28.75C23.2148 28.75 22.7148 27.9288 21.1076 27.9288C19.3817 27.9288 18.8934 28.75 17.5719 28.75C16.1076 28.75 15.0719 27.4412 14.1558 26.2207C12.9655 24.6232 11.9539 22.1164 11.9182 19.7093C11.8941 18.4338 12.1565 17.18 12.8227 16.1151C13.7629 14.6283 15.4415 13.619 17.2746 13.5858C18.6791 13.5416 19.9291 14.4843 20.7862 14.4843C21.6076 14.4843 23.1434 13.5858 24.8809 13.5858C25.6309 13.5865 27.631 13.797 28.8693 15.5717ZM20.6674 13.3311C20.4174 12.1663 21.1076 11.0015 21.7505 10.2585C22.5719 9.3599 23.8693 8.75 24.9881 8.75C25.0595 9.91481 24.6069 11.0572 23.7979 11.8892C23.0719 12.7878 21.8219 13.4642 20.6674 13.3311Z" fill="white"/>
</svg>
