<svg width="186" height="136" viewBox="0 0 186 136" fill="none" xmlns="http://www.w3.org/2000/svg">
<circle cx="130" cy="4" r="4" fill="#2EC37C"/>
<circle cx="18" cy="126" r="4" fill="#2EC37C"/>
<circle cx="168" cy="46" r="4" fill="#2EC37C"/>
<circle cx="162" cy="102" r="2" fill="#2EC37C"/>
<circle cx="62" cy="2" r="2" fill="#2EC37C"/>
<circle cx="2" cy="82" r="2" fill="#2EC37C"/>
<circle cx="18" cy="18" r="8" fill="#2EC37C"/>
<circle cx="178" cy="128" r="8" fill="#2EC37C"/>
<circle cx="93" cy="68" r="65" fill="#2EC37C" fill-opacity="0.2"/>
<path d="M93.5 26.3335C70.5417 26.3335 51.8334 45.0418 51.8334 68.0002C51.8334 90.9585 70.5417 109.667 93.5 109.667C116.458 109.667 135.167 90.9585 135.167 68.0002C135.167 45.0418 116.458 26.3335 93.5 26.3335ZM113.417 58.4168L89.7917 82.0418C89.2084 82.6252 88.4167 82.9585 87.5834 82.9585C86.75 82.9585 85.9584 82.6252 85.375 82.0418L73.5834 70.2502C72.375 69.0418 72.375 67.0418 73.5834 65.8335C74.7917 64.6252 76.7917 64.6252 78 65.8335L87.5834 75.4168L109 54.0002C110.208 52.7918 112.208 52.7918 113.417 54.0002C114.625 55.2085 114.625 57.1668 113.417 58.4168Z" fill="#2EC37C"/>
</svg>
