<svg width="347" height="273" viewBox="0 0 347 273" fill="none" xmlns="http://www.w3.org/2000/svg">
<g filter="url(#filter0_dd_4718_23377)">
<mask id="path-1-inside-1_4718_23377" fill="white">
<path d="M10 33C10 19.7452 20.7452 9 34 9H313C326.255 9 337 19.7452 337 33V238C337 251.255 326.255 262 313 262H34C20.7452 262 10 251.255 10 238V33Z"/>
</mask>
<path d="M10 33C10 19.7452 20.7452 9 34 9H313C326.255 9 337 19.7452 337 33V238C337 251.255 326.255 262 313 262H34C20.7452 262 10 251.255 10 238V33Z" fill="white"/>
<path d="M239.5 137.5C239.5 139.985 237.485 142 235 142C232.515 142 230.5 139.985 230.5 137.5C230.5 135.015 232.515 133 235 133C237.485 133 239.5 135.015 239.5 137.5ZM231.793 137.5C231.793 139.271 233.229 140.707 235 140.707C236.771 140.707 238.207 139.271 238.207 137.5C238.207 135.729 236.771 134.293 235 134.293C233.229 134.293 231.793 135.729 231.793 137.5Z" fill="#0068E1" fill-opacity="0.4"/>
<path d="M246.5 109.5C246.5 110.881 245.381 112 244 112C242.619 112 241.5 110.881 241.5 109.5C241.5 108.119 242.619 107 244 107C245.381 107 246.5 108.119 246.5 109.5ZM242.218 109.5C242.218 110.484 243.016 111.282 244 111.282C244.984 111.282 245.782 110.484 245.782 109.5C245.782 108.516 244.984 107.718 244 107.718C243.016 107.718 242.218 108.516 242.218 109.5Z" fill="#0068E1" fill-opacity="0.4"/>
<path d="M118.5 102.5C118.5 103.881 117.381 105 116 105C114.619 105 113.5 103.881 113.5 102.5C113.5 101.119 114.619 100 116 100C117.381 100 118.5 101.119 118.5 102.5ZM114.218 102.5C114.218 103.484 115.016 104.282 116 104.282C116.984 104.282 117.782 103.484 117.782 102.5C117.782 101.516 116.984 100.718 116 100.718C115.016 100.718 114.218 101.516 114.218 102.5Z" fill="#0068E1" fill-opacity="0.4"/>
<path d="M113.5 68.5C113.5 72.0899 110.59 75 107 75C103.41 75 100.5 72.0899 100.5 68.5C100.5 64.9101 103.41 62 107 62C110.59 62 113.5 64.9101 113.5 68.5ZM102.368 68.5C102.368 71.0582 104.442 73.1321 107 73.1321C109.558 73.1321 111.632 71.0582 111.632 68.5C111.632 65.9418 109.558 63.8679 107 63.8679C104.442 63.8679 102.368 65.9418 102.368 68.5Z" fill="#0068E1" fill-opacity="0.4"/>
<path d="M152 71H133.54C132.632 71 132.194 69.8874 132.858 69.2684L151.318 52.0671C151.958 51.4712 153 51.9247 153 52.7987V70C153 70.5523 152.552 71 152 71Z" fill="#1B80F5" fill-opacity="0.4" stroke="#1B80F5" stroke-width="2" stroke-linecap="round"/>
<path d="M148.5 88H197" stroke="#1B80F5" stroke-width="4" stroke-linecap="round"/>
<path d="M148.5 107H197" stroke="#1B80F5" stroke-width="4" stroke-linecap="round"/>
<path d="M149.5 125H198" stroke="#1B80F5" stroke-width="4" stroke-linecap="round"/>
<path d="M149.5 133H181.5" stroke="#1B80F5" stroke-opacity="0.4" stroke-width="4" stroke-linecap="round"/>
<path d="M149.5 114H181.5" stroke="#1B80F5" stroke-opacity="0.4" stroke-width="4" stroke-linecap="round"/>
<path d="M149.5 95H181.5" stroke="#1B80F5" stroke-opacity="0.4" stroke-width="4" stroke-linecap="round"/>
<path fill-rule="evenodd" clip-rule="evenodd" d="M178.729 50H156.203C154.147 50 152.17 50.7914 150.682 52.2101L133.979 68.1359C132.396 69.6457 131.5 71.738 131.5 73.9258V141C131.5 145.418 135.082 149 139.5 149H206.5C210.918 149 214.5 145.418 214.5 141V78.2463C211.551 79.3791 208.348 80 205 80C190.364 80 178.5 68.1355 178.5 53.5C178.5 52.3135 178.578 51.1452 178.729 50Z" fill="#0068E1" fill-opacity="0.1"/>
<path d="M178.729 50L179.72 50.1308L179.87 49H178.729V50ZM150.682 52.2101L149.992 51.4864V51.4864L150.682 52.2101ZM133.979 68.1359L134.669 68.8597H134.669L133.979 68.1359ZM214.5 78.2463H215.5V76.7909L214.141 77.3128L214.5 78.2463ZM178.729 49H156.203V51H178.729V49ZM156.203 49C153.89 49 151.666 49.8904 149.992 51.4864L151.372 52.9338C152.674 51.6925 154.404 51 156.203 51V49ZM149.992 51.4864L133.289 67.4122L134.669 68.8597L151.372 52.9338L149.992 51.4864ZM133.289 67.4122C131.508 69.1107 130.5 71.4645 130.5 73.9258H132.5C132.5 72.0115 133.284 70.1807 134.669 68.8597L133.289 67.4122ZM130.5 73.9258V141H132.5V73.9258H130.5ZM130.5 141C130.5 145.971 134.529 150 139.5 150V148C135.634 148 132.5 144.866 132.5 141H130.5ZM139.5 150H206.5V148H139.5V150ZM206.5 150C211.471 150 215.5 145.971 215.5 141H213.5C213.5 144.866 210.366 148 206.5 148V150ZM215.5 141V78.2463H213.5V141H215.5ZM214.141 77.3128C211.305 78.4024 208.223 79 205 79V81C208.472 81 211.797 80.3559 214.859 79.1798L214.141 77.3128ZM205 79C190.917 79 179.5 67.5833 179.5 53.5H177.5C177.5 68.6878 189.812 81 205 81V79ZM179.5 53.5C179.5 52.3574 179.575 51.2328 179.72 50.1308L177.738 49.8692C177.581 51.0577 177.5 52.2696 177.5 53.5H179.5Z" fill="#1B80F5"/>
<circle cx="205" cy="53.5" r="19.5" fill="#0068E1" fill-opacity="0.1" stroke="#1B80F5" stroke-width="2"/>
<path d="M195.5 54.8L200.989 60L214.5 48" stroke="#1B80F5" stroke-width="3" stroke-linecap="round"/>
<path d="M81.228 183.816H84.468L92.1 196.272H92.244L92.1 192.96V183.816H94.788V201H91.956L83.94 187.92H83.796L83.94 191.232V201H81.228V183.816ZM103.332 188.856C104.228 188.856 105.052 189.016 105.804 189.336C106.556 189.64 107.204 190.072 107.748 190.632C108.292 191.192 108.716 191.856 109.02 192.624C109.324 193.392 109.476 194.224 109.476 195.12C109.476 196.016 109.324 196.848 109.02 197.616C108.716 198.384 108.292 199.048 107.748 199.608C107.204 200.168 106.556 200.608 105.804 200.928C105.052 201.232 104.228 201.384 103.332 201.384C102.436 201.384 101.612 201.232 100.86 200.928C100.108 200.608 99.4596 200.168 98.9156 199.608C98.3716 199.048 97.9476 198.384 97.6436 197.616C97.3396 196.848 97.1876 196.016 97.1876 195.12C97.1876 194.224 97.3396 193.392 97.6436 192.624C97.9476 191.856 98.3716 191.192 98.9156 190.632C99.4596 190.072 100.108 189.64 100.86 189.336C101.612 189.016 102.436 188.856 103.332 188.856ZM103.332 198.912C103.78 198.912 104.212 198.824 104.628 198.648C105.044 198.472 105.412 198.224 105.732 197.904C106.068 197.584 106.332 197.192 106.524 196.728C106.716 196.248 106.812 195.712 106.812 195.12C106.812 194.528 106.716 194 106.524 193.536C106.332 193.056 106.068 192.656 105.732 192.336C105.412 192.016 105.044 191.768 104.628 191.592C104.212 191.416 103.78 191.328 103.332 191.328C102.884 191.328 102.452 191.416 102.036 191.592C101.62 191.768 101.244 192.016 100.908 192.336C100.588 192.656 100.332 193.056 100.14 193.536C99.9476 194 99.8516 194.528 99.8516 195.12C99.8516 195.712 99.9476 196.248 100.14 196.728C100.332 197.192 100.588 197.584 100.908 197.904C101.244 198.224 101.62 198.472 102.036 198.648C102.452 198.824 102.884 198.912 103.332 198.912ZM117.158 183.816H122.678C124.038 183.816 125.254 184.032 126.326 184.464C127.414 184.88 128.334 185.464 129.086 186.216C129.854 186.968 130.438 187.872 130.838 188.928C131.254 189.984 131.462 191.144 131.462 192.408C131.462 193.672 131.254 194.832 130.838 195.888C130.438 196.944 129.854 197.848 129.086 198.6C128.334 199.352 127.414 199.944 126.326 200.376C125.254 200.792 124.038 201 122.678 201H117.158V183.816ZM122.63 198.408C124.566 198.408 126.062 197.88 127.118 196.824C128.174 195.768 128.702 194.296 128.702 192.408C128.702 190.536 128.174 189.072 127.118 188.016C126.062 186.944 124.566 186.408 122.63 186.408H119.87V198.408H122.63ZM141.136 199.56H140.992C140.64 200.024 140.184 200.448 139.624 200.832C139.064 201.2 138.352 201.384 137.488 201.384C136.864 201.384 136.28 201.28 135.736 201.072C135.192 200.88 134.72 200.608 134.32 200.256C133.92 199.888 133.6 199.464 133.36 198.984C133.136 198.488 133.024 197.944 133.024 197.352C133.024 196.728 133.144 196.168 133.384 195.672C133.64 195.176 133.984 194.76 134.416 194.424C134.864 194.088 135.392 193.832 136 193.656C136.608 193.464 137.264 193.368 137.968 193.368C138.752 193.368 139.408 193.448 139.936 193.608C140.464 193.752 140.864 193.888 141.136 194.016V193.56C141.136 193.208 141.056 192.88 140.896 192.576C140.752 192.272 140.544 192.016 140.272 191.808C140.016 191.584 139.72 191.416 139.384 191.304C139.048 191.176 138.696 191.112 138.328 191.112C137.736 191.112 137.2 191.232 136.72 191.472C136.256 191.696 135.84 192.064 135.472 192.576L133.36 191.184C133.92 190.416 134.616 189.84 135.448 189.456C136.28 189.056 137.224 188.856 138.28 188.856C140.024 188.856 141.368 189.288 142.312 190.152C143.272 191.016 143.752 192.248 143.752 193.848V201H141.136V199.56ZM141.136 196.104C140.784 195.896 140.392 195.728 139.96 195.6C139.528 195.472 139.032 195.408 138.472 195.408C137.64 195.408 136.976 195.6 136.48 195.984C135.984 196.368 135.736 196.832 135.736 197.376C135.736 197.664 135.8 197.92 135.928 198.144C136.056 198.352 136.216 198.536 136.408 198.696C136.616 198.856 136.848 198.976 137.104 199.056C137.376 199.136 137.648 199.176 137.92 199.176C138.352 199.176 138.76 199.096 139.144 198.936C139.544 198.76 139.888 198.536 140.176 198.264C140.464 197.976 140.696 197.648 140.872 197.28C141.048 196.912 141.136 196.52 141.136 196.104ZM147.32 191.592H145.256V189.24H147.32V185.64H149.984V189.24H152.888V191.592H149.984V196.824C149.984 197.112 150.016 197.376 150.08 197.616C150.144 197.856 150.24 198.056 150.368 198.216C150.64 198.52 150.984 198.672 151.4 198.672C151.656 198.672 151.856 198.656 152 198.624C152.144 198.576 152.296 198.512 152.456 198.432L153.272 200.784C152.936 200.912 152.584 201.008 152.216 201.072C151.848 201.152 151.432 201.192 150.968 201.192C150.408 201.192 149.912 201.104 149.48 200.928C149.048 200.752 148.672 200.512 148.352 200.208C147.664 199.52 147.32 198.584 147.32 197.4V191.592ZM162.3 199.56H162.156C161.804 200.024 161.348 200.448 160.788 200.832C160.228 201.2 159.516 201.384 158.652 201.384C158.028 201.384 157.444 201.28 156.9 201.072C156.356 200.88 155.884 200.608 155.484 200.256C155.084 199.888 154.764 199.464 154.524 198.984C154.3 198.488 154.188 197.944 154.188 197.352C154.188 196.728 154.308 196.168 154.548 195.672C154.804 195.176 155.148 194.76 155.58 194.424C156.028 194.088 156.556 193.832 157.164 193.656C157.772 193.464 158.428 193.368 159.132 193.368C159.916 193.368 160.572 193.448 161.1 193.608C161.628 193.752 162.028 193.888 162.3 194.016V193.56C162.3 193.208 162.22 192.88 162.06 192.576C161.916 192.272 161.708 192.016 161.436 191.808C161.18 191.584 160.884 191.416 160.548 191.304C160.212 191.176 159.86 191.112 159.492 191.112C158.9 191.112 158.364 191.232 157.884 191.472C157.42 191.696 157.004 192.064 156.636 192.576L154.524 191.184C155.084 190.416 155.78 189.84 156.612 189.456C157.444 189.056 158.388 188.856 159.444 188.856C161.188 188.856 162.532 189.288 163.476 190.152C164.436 191.016 164.916 192.248 164.916 193.848V201H162.3V199.56ZM162.3 196.104C161.948 195.896 161.556 195.728 161.124 195.6C160.692 195.472 160.196 195.408 159.636 195.408C158.804 195.408 158.14 195.6 157.644 195.984C157.148 196.368 156.9 196.832 156.9 197.376C156.9 197.664 156.964 197.92 157.092 198.144C157.22 198.352 157.38 198.536 157.572 198.696C157.78 198.856 158.012 198.976 158.268 199.056C158.54 199.136 158.812 199.176 159.084 199.176C159.516 199.176 159.924 199.096 160.308 198.936C160.708 198.76 161.052 198.536 161.34 198.264C161.628 197.976 161.86 197.648 162.036 197.28C162.212 196.912 162.3 196.52 162.3 196.104ZM177.369 183.816H180.489L186.945 201H183.945L182.385 196.584H175.473L173.913 201H170.913L177.369 183.816ZM181.473 194.112L179.673 189.048L179.001 187.032H178.857L178.185 189.048L176.385 194.112H181.473ZM186.143 189.24H189.143L192.311 197.544H192.431L195.671 189.24H198.599L193.679 201H191.015L186.143 189.24ZM207.253 199.56H207.109C206.757 200.024 206.301 200.448 205.741 200.832C205.181 201.2 204.469 201.384 203.605 201.384C202.981 201.384 202.397 201.28 201.853 201.072C201.309 200.88 200.837 200.608 200.437 200.256C200.037 199.888 199.717 199.464 199.477 198.984C199.253 198.488 199.141 197.944 199.141 197.352C199.141 196.728 199.261 196.168 199.501 195.672C199.757 195.176 200.101 194.76 200.533 194.424C200.981 194.088 201.509 193.832 202.117 193.656C202.725 193.464 203.381 193.368 204.085 193.368C204.869 193.368 205.525 193.448 206.053 193.608C206.581 193.752 206.981 193.888 207.253 194.016V193.56C207.253 193.208 207.173 192.88 207.013 192.576C206.869 192.272 206.661 192.016 206.389 191.808C206.133 191.584 205.837 191.416 205.501 191.304C205.165 191.176 204.813 191.112 204.445 191.112C203.853 191.112 203.317 191.232 202.837 191.472C202.373 191.696 201.957 192.064 201.589 192.576L199.477 191.184C200.037 190.416 200.733 189.84 201.565 189.456C202.397 189.056 203.341 188.856 204.397 188.856C206.141 188.856 207.485 189.288 208.429 190.152C209.389 191.016 209.869 192.248 209.869 193.848V201H207.253V199.56ZM207.253 196.104C206.901 195.896 206.509 195.728 206.077 195.6C205.645 195.472 205.149 195.408 204.589 195.408C203.757 195.408 203.093 195.6 202.597 195.984C202.101 196.368 201.853 196.832 201.853 197.376C201.853 197.664 201.917 197.92 202.045 198.144C202.173 198.352 202.333 198.536 202.525 198.696C202.733 198.856 202.965 198.976 203.221 199.056C203.493 199.136 203.765 199.176 204.037 199.176C204.469 199.176 204.877 199.096 205.261 198.936C205.661 198.76 206.005 198.536 206.293 198.264C206.581 197.976 206.813 197.648 206.989 197.28C207.165 196.912 207.253 196.52 207.253 196.104ZM213.911 187.152C213.399 187.152 212.967 186.976 212.615 186.624C212.279 186.272 212.111 185.848 212.111 185.352C212.111 184.856 212.279 184.432 212.615 184.08C212.967 183.728 213.399 183.552 213.911 183.552C214.407 183.552 214.823 183.728 215.159 184.08C215.511 184.432 215.687 184.856 215.687 185.352C215.687 185.848 215.511 186.272 215.159 186.624C214.823 186.976 214.407 187.152 213.911 187.152ZM212.567 201V189.24H215.231V201H212.567ZM218.117 201V183.816H220.781V201H218.117ZM230.784 199.56H230.64C230.288 200.024 229.832 200.448 229.272 200.832C228.712 201.2 228 201.384 227.136 201.384C226.512 201.384 225.928 201.28 225.384 201.072C224.84 200.88 224.368 200.608 223.968 200.256C223.568 199.888 223.248 199.464 223.008 198.984C222.784 198.488 222.672 197.944 222.672 197.352C222.672 196.728 222.792 196.168 223.032 195.672C223.288 195.176 223.632 194.76 224.064 194.424C224.512 194.088 225.04 193.832 225.648 193.656C226.256 193.464 226.912 193.368 227.616 193.368C228.4 193.368 229.056 193.448 229.584 193.608C230.112 193.752 230.512 193.888 230.784 194.016V193.56C230.784 193.208 230.704 192.88 230.544 192.576C230.4 192.272 230.192 192.016 229.92 191.808C229.664 191.584 229.368 191.416 229.032 191.304C228.696 191.176 228.344 191.112 227.976 191.112C227.384 191.112 226.848 191.232 226.368 191.472C225.904 191.696 225.488 192.064 225.12 192.576L223.008 191.184C223.568 190.416 224.264 189.84 225.096 189.456C225.928 189.056 226.872 188.856 227.928 188.856C229.672 188.856 231.016 189.288 231.96 190.152C232.92 191.016 233.4 192.248 233.4 193.848V201H230.784V199.56ZM230.784 196.104C230.432 195.896 230.04 195.728 229.608 195.6C229.176 195.472 228.68 195.408 228.12 195.408C227.288 195.408 226.624 195.6 226.128 195.984C225.632 196.368 225.384 196.832 225.384 197.376C225.384 197.664 225.448 197.92 225.576 198.144C225.704 198.352 225.864 198.536 226.056 198.696C226.264 198.856 226.496 198.976 226.752 199.056C227.024 199.136 227.296 199.176 227.568 199.176C228 199.176 228.408 199.096 228.792 198.936C229.192 198.76 229.536 198.536 229.824 198.264C230.112 197.976 230.344 197.648 230.52 197.28C230.696 196.912 230.784 196.52 230.784 196.104ZM235.907 183.816H238.571V189.12L238.427 190.752H238.571C238.891 190.24 239.379 189.8 240.035 189.432C240.691 189.048 241.475 188.856 242.387 188.856C243.139 188.856 243.851 189.016 244.523 189.336C245.211 189.64 245.811 190.072 246.323 190.632C246.835 191.192 247.243 191.856 247.547 192.624C247.851 193.376 248.003 194.208 248.003 195.12C248.003 196.032 247.851 196.872 247.547 197.64C247.243 198.392 246.835 199.048 246.323 199.608C245.811 200.168 245.211 200.608 244.523 200.928C243.851 201.232 243.139 201.384 242.387 201.384C241.475 201.384 240.691 201.2 240.035 200.832C239.379 200.448 238.891 200 238.571 199.488H238.427V201H235.907V183.816ZM241.883 198.912C242.331 198.912 242.763 198.824 243.179 198.648C243.611 198.472 243.979 198.224 244.283 197.904C244.603 197.568 244.859 197.168 245.051 196.704C245.243 196.24 245.339 195.712 245.339 195.12C245.339 194.528 245.243 194 245.051 193.536C244.859 193.072 244.603 192.68 244.283 192.36C243.979 192.024 243.611 191.768 243.179 191.592C242.763 191.416 242.331 191.328 241.883 191.328C241.419 191.328 240.979 191.416 240.562 191.592C240.147 191.768 239.779 192.016 239.459 192.336C239.155 192.656 238.907 193.056 238.715 193.536C238.523 194 238.427 194.528 238.427 195.12C238.427 195.712 238.523 196.248 238.715 196.728C238.907 197.192 239.155 197.584 239.459 197.904C239.779 198.224 240.147 198.472 240.562 198.648C240.979 198.824 241.419 198.912 241.883 198.912ZM249.899 201V183.816H252.563V201H249.899ZM266.021 198.192C265.525 199.104 264.821 199.864 263.909 200.472C262.997 201.08 261.877 201.384 260.549 201.384C259.669 201.384 258.853 201.232 258.101 200.928C257.365 200.608 256.725 200.168 256.181 199.608C255.637 199.048 255.213 198.392 254.909 197.64C254.605 196.872 254.453 196.032 254.453 195.12C254.453 194.272 254.597 193.472 254.885 192.72C255.173 191.952 255.573 191.288 256.085 190.728C256.613 190.152 257.245 189.696 257.981 189.36C258.717 189.024 259.533 188.856 260.429 188.856C261.341 188.856 262.149 189.008 262.853 189.312C263.573 189.616 264.181 190.04 264.677 190.584C265.173 191.128 265.549 191.784 265.805 192.552C266.077 193.32 266.213 194.16 266.213 195.072C266.213 195.152 266.213 195.224 266.213 195.288C266.197 195.368 266.189 195.44 266.189 195.504C266.173 195.568 266.165 195.632 266.165 195.696H257.117C257.165 196.256 257.301 196.744 257.525 197.16C257.749 197.576 258.021 197.92 258.341 198.192C258.677 198.464 259.045 198.664 259.445 198.792C259.845 198.92 260.237 198.984 260.621 198.984C261.389 198.984 262.021 198.8 262.517 198.432C263.013 198.064 263.421 197.608 263.741 197.064L266.021 198.192ZM263.549 193.656C263.517 193.416 263.437 193.152 263.309 192.864C263.197 192.56 263.013 192.288 262.757 192.048C262.517 191.792 262.197 191.576 261.797 191.4C261.413 191.224 260.941 191.136 260.381 191.136C259.613 191.136 258.949 191.368 258.389 191.832C257.845 192.28 257.477 192.888 257.285 193.656H263.549Z" fill="#151415"/>
<path d="M95.9933 234H94.7053V223.976H96.2733L101.145 231.774H101.201L101.145 229.842V223.976H102.433V234H101.089L95.9933 225.824H95.9373L95.9933 227.756V234ZM107.309 234.224C106.301 234.224 105.471 233.879 104.817 233.188C104.164 232.497 103.837 231.625 103.837 230.57C103.837 229.525 104.155 228.657 104.789 227.966C105.424 227.266 106.236 226.916 107.225 226.916C108.243 226.916 109.05 227.247 109.647 227.91C110.254 228.563 110.557 229.483 110.557 230.668L110.543 230.808H105.153C105.172 231.48 105.396 232.021 105.825 232.432C106.255 232.843 106.768 233.048 107.365 233.048C108.187 233.048 108.831 232.637 109.297 231.816L110.445 232.376C110.137 232.955 109.708 233.407 109.157 233.734C108.616 234.061 108 234.224 107.309 234.224ZM105.251 229.744H109.185C109.148 229.268 108.952 228.876 108.597 228.568C108.252 228.251 107.785 228.092 107.197 228.092C106.712 228.092 106.292 228.241 105.937 228.54C105.592 228.839 105.363 229.24 105.251 229.744ZM121.314 227.14L119.102 234H117.786L116.078 228.736L114.384 234H113.082L110.87 227.14H112.214L113.74 232.32H113.754L115.448 227.14H116.778L118.472 232.32H118.486L119.998 227.14H121.314ZM128.309 233.048C128.944 233.048 129.462 232.819 129.863 232.362C130.283 231.905 130.493 231.307 130.493 230.57C130.493 229.851 130.283 229.259 129.863 228.792C129.453 228.325 128.935 228.092 128.309 228.092C127.693 228.092 127.175 228.325 126.755 228.792C126.335 229.259 126.125 229.851 126.125 230.57C126.125 231.298 126.335 231.891 126.755 232.348C127.175 232.815 127.693 233.048 128.309 233.048ZM128.099 234.224C127.203 234.224 126.433 233.869 125.789 233.16C125.155 232.441 124.837 231.578 124.837 230.57C124.837 229.562 125.155 228.699 125.789 227.98C126.433 227.271 127.203 226.916 128.099 226.916C128.603 226.916 129.061 227.023 129.471 227.238C129.891 227.453 130.213 227.737 130.437 228.092H130.493L130.437 227.14V223.976H131.725V234H130.493V233.048H130.437C130.213 233.403 129.891 233.687 129.471 233.902C129.061 234.117 128.603 234.224 128.099 234.224ZM134.165 231.9C134.165 232.236 134.305 232.516 134.585 232.74C134.875 232.964 135.211 233.076 135.593 233.076C136.135 233.076 136.615 232.875 137.035 232.474C137.465 232.073 137.679 231.601 137.679 231.06C137.278 230.743 136.718 230.584 135.999 230.584C135.477 230.584 135.038 230.71 134.683 230.962C134.338 231.214 134.165 231.527 134.165 231.9ZM135.831 226.916C136.783 226.916 137.535 227.173 138.085 227.686C138.636 228.19 138.911 228.885 138.911 229.772V234H137.679V233.048H137.623C137.091 233.832 136.382 234.224 135.495 234.224C134.739 234.224 134.105 234 133.591 233.552C133.087 233.104 132.835 232.544 132.835 231.872C132.835 231.163 133.101 230.598 133.633 230.178C134.175 229.758 134.893 229.548 135.789 229.548C136.555 229.548 137.185 229.688 137.679 229.968V229.674C137.679 229.226 137.502 228.848 137.147 228.54C136.793 228.223 136.377 228.064 135.901 228.064C135.183 228.064 134.613 228.367 134.193 228.974L133.059 228.26C133.685 227.364 134.609 226.916 135.831 226.916ZM142.943 234.112C142.383 234.112 141.917 233.939 141.543 233.594C141.179 233.249 140.993 232.768 140.983 232.152V228.316H139.779V227.14H140.983V225.04H142.271V227.14H143.951V228.316H142.271V231.732C142.271 232.189 142.36 232.502 142.537 232.67C142.715 232.829 142.915 232.908 143.139 232.908C143.242 232.908 143.34 232.899 143.433 232.88C143.536 232.852 143.629 232.819 143.713 232.782L144.119 233.93C143.783 234.051 143.391 234.112 142.943 234.112ZM145.978 231.9C145.978 232.236 146.118 232.516 146.398 232.74C146.687 232.964 147.023 233.076 147.406 233.076C147.947 233.076 148.428 232.875 148.848 232.474C149.277 232.073 149.492 231.601 149.492 231.06C149.091 230.743 148.531 230.584 147.812 230.584C147.289 230.584 146.851 230.71 146.496 230.962C146.151 231.214 145.978 231.527 145.978 231.9ZM147.644 226.916C148.596 226.916 149.347 227.173 149.898 227.686C150.449 228.19 150.724 228.885 150.724 229.772V234H149.492V233.048H149.436C148.904 233.832 148.195 234.224 147.308 234.224C146.552 234.224 145.917 234 145.404 233.552C144.9 233.104 144.648 232.544 144.648 231.872C144.648 231.163 144.914 230.598 145.446 230.178C145.987 229.758 146.706 229.548 147.602 229.548C148.367 229.548 148.997 229.688 149.492 229.968V229.674C149.492 229.226 149.315 228.848 148.96 228.54C148.605 228.223 148.19 228.064 147.714 228.064C146.995 228.064 146.426 228.367 146.006 228.974L144.872 228.26C145.497 227.364 146.421 226.916 147.644 226.916ZM164.969 227.14L162.757 234H161.441L159.733 228.736L158.039 234H156.737L154.525 227.14H155.869L157.395 232.32H157.409L159.103 227.14H160.433L162.127 232.32H162.141L163.653 227.14H164.969ZM167.473 224.774C167.473 225.026 167.385 225.241 167.207 225.418C167.03 225.595 166.815 225.684 166.563 225.684C166.311 225.684 166.097 225.595 165.919 225.418C165.742 225.241 165.653 225.026 165.653 224.774C165.653 224.522 165.742 224.307 165.919 224.13C166.097 223.953 166.311 223.864 166.563 223.864C166.815 223.864 167.03 223.953 167.207 224.13C167.385 224.307 167.473 224.522 167.473 224.774ZM167.207 227.14V234H165.919V227.14H167.207ZM170.172 223.976V234H168.884V223.976H170.172ZM173.029 223.976V234H171.741V223.976H173.029ZM178.613 231.9C178.613 232.236 178.753 232.516 179.033 232.74C179.322 232.964 179.658 233.076 180.041 233.076C180.582 233.076 181.063 232.875 181.483 232.474C181.912 232.073 182.127 231.601 182.127 231.06C181.725 230.743 181.165 230.584 180.447 230.584C179.924 230.584 179.485 230.71 179.131 230.962C178.785 231.214 178.613 231.527 178.613 231.9ZM180.279 226.916C181.231 226.916 181.982 227.173 182.533 227.686C183.083 228.19 183.359 228.885 183.359 229.772V234H182.127V233.048H182.071C181.539 233.832 180.829 234.224 179.943 234.224C179.187 234.224 178.552 234 178.039 233.552C177.535 233.104 177.283 232.544 177.283 231.872C177.283 231.163 177.549 230.598 178.081 230.178C178.622 229.758 179.341 229.548 180.237 229.548C181.002 229.548 181.632 229.688 182.127 229.968V229.674C182.127 229.226 181.949 228.848 181.595 228.54C181.24 228.223 180.825 228.064 180.349 228.064C179.63 228.064 179.061 228.367 178.641 228.974L177.507 228.26C178.132 227.364 179.056 226.916 180.279 226.916ZM188.171 233.048C188.787 233.048 189.305 232.815 189.725 232.348C190.145 231.891 190.355 231.298 190.355 230.57C190.355 229.851 190.145 229.259 189.725 228.792C189.305 228.325 188.787 228.092 188.171 228.092C187.546 228.092 187.023 228.325 186.603 228.792C186.193 229.259 185.987 229.851 185.987 230.57C185.987 231.298 186.193 231.895 186.603 232.362C187.023 232.819 187.546 233.048 188.171 233.048ZM188.381 234.224C187.877 234.224 187.415 234.117 186.995 233.902C186.585 233.687 186.267 233.403 186.043 233.048H185.987L186.043 234V237.024H184.755V227.14H185.987V228.092H186.043C186.267 227.737 186.585 227.453 186.995 227.238C187.415 227.023 187.877 226.916 188.381 226.916C189.287 226.916 190.052 227.271 190.677 227.98C191.321 228.699 191.643 229.562 191.643 230.57C191.643 231.587 191.321 232.451 190.677 233.16C190.052 233.869 189.287 234.224 188.381 234.224ZM196.046 233.048C196.662 233.048 197.18 232.815 197.6 232.348C198.02 231.891 198.23 231.298 198.23 230.57C198.23 229.851 198.02 229.259 197.6 228.792C197.18 228.325 196.662 228.092 196.046 228.092C195.421 228.092 194.898 228.325 194.478 228.792C194.068 229.259 193.862 229.851 193.862 230.57C193.862 231.298 194.068 231.895 194.478 232.362C194.898 232.819 195.421 233.048 196.046 233.048ZM196.256 234.224C195.752 234.224 195.29 234.117 194.87 233.902C194.46 233.687 194.142 233.403 193.918 233.048H193.862L193.918 234V237.024H192.63V227.14H193.862V228.092H193.918C194.142 227.737 194.46 227.453 194.87 227.238C195.29 227.023 195.752 226.916 196.256 226.916C197.162 226.916 197.927 227.271 198.552 227.98C199.196 228.699 199.518 229.562 199.518 230.57C199.518 231.587 199.196 232.451 198.552 233.16C197.927 233.869 197.162 234.224 196.256 234.224ZM203.778 234.224C202.77 234.224 201.939 233.879 201.286 233.188C200.633 232.497 200.306 231.625 200.306 230.57C200.306 229.525 200.623 228.657 201.258 227.966C201.893 227.266 202.705 226.916 203.694 226.916C204.711 226.916 205.519 227.247 206.116 227.91C206.723 228.563 207.026 229.483 207.026 230.668L207.012 230.808H201.622C201.641 231.48 201.865 232.021 202.294 232.432C202.723 232.843 203.237 233.048 203.834 233.048C204.655 233.048 205.299 232.637 205.766 231.816L206.914 232.376C206.606 232.955 206.177 233.407 205.626 233.734C205.085 234.061 204.469 234.224 203.778 234.224ZM201.72 229.744H205.654C205.617 229.268 205.421 228.876 205.066 228.568C204.721 228.251 204.254 228.092 203.666 228.092C203.181 228.092 202.761 228.241 202.406 228.54C202.061 228.839 201.832 229.24 201.72 229.744ZM209.21 231.9C209.21 232.236 209.35 232.516 209.63 232.74C209.92 232.964 210.256 233.076 210.638 233.076C211.18 233.076 211.66 232.875 212.08 232.474C212.51 232.073 212.724 231.601 212.724 231.06C212.323 230.743 211.763 230.584 211.044 230.584C210.522 230.584 210.083 230.71 209.728 230.962C209.383 231.214 209.21 231.527 209.21 231.9ZM210.876 226.916C211.828 226.916 212.58 227.173 213.13 227.686C213.681 228.19 213.956 228.885 213.956 229.772V234H212.724V233.048H212.668C212.136 233.832 211.427 234.224 210.54 234.224C209.784 234.224 209.15 234 208.636 233.552C208.132 233.104 207.88 232.544 207.88 231.872C207.88 231.163 208.146 230.598 208.678 230.178C209.22 229.758 209.938 229.548 210.834 229.548C211.6 229.548 212.23 229.688 212.724 229.968V229.674C212.724 229.226 212.547 228.848 212.192 228.54C211.838 228.223 211.422 228.064 210.946 228.064C210.228 228.064 209.658 228.367 209.238 228.974L208.104 228.26C208.73 227.364 209.654 226.916 210.876 226.916ZM216.697 234H215.409V227.14H216.641V228.26H216.697C216.828 227.896 217.094 227.588 217.495 227.336C217.906 227.075 218.307 226.944 218.699 226.944C219.072 226.944 219.39 227 219.651 227.112L219.259 228.358C219.1 228.293 218.848 228.26 218.503 228.26C218.018 228.26 217.593 228.456 217.229 228.848C216.874 229.24 216.697 229.697 216.697 230.22V234ZM223.571 223.976H224.859V227.14L224.803 228.092H224.859C225.055 227.756 225.354 227.476 225.755 227.252C226.166 227.028 226.59 226.916 227.029 226.916C227.869 226.916 228.513 227.159 228.961 227.644C229.418 228.12 229.647 228.801 229.647 229.688V234H228.359V229.94C228.359 228.708 227.813 228.092 226.721 228.092C226.198 228.092 225.755 228.311 225.391 228.75C225.036 229.179 224.859 229.683 224.859 230.262V234H223.571V223.976ZM234.239 234.224C233.231 234.224 232.4 233.879 231.747 233.188C231.094 232.497 230.767 231.625 230.767 230.57C230.767 229.525 231.084 228.657 231.719 227.966C232.354 227.266 233.166 226.916 234.155 226.916C235.172 226.916 235.98 227.247 236.577 227.91C237.184 228.563 237.487 229.483 237.487 230.668L237.473 230.808H232.083C232.102 231.48 232.326 232.021 232.755 232.432C233.184 232.843 233.698 233.048 234.295 233.048C235.116 233.048 235.76 232.637 236.227 231.816L237.375 232.376C237.067 232.955 236.638 233.407 236.087 233.734C235.546 234.061 234.93 234.224 234.239 234.224ZM232.181 229.744H236.115C236.078 229.268 235.882 228.876 235.527 228.568C235.182 228.251 234.715 228.092 234.127 228.092C233.642 228.092 233.222 228.241 232.867 228.54C232.522 228.839 232.293 229.24 232.181 229.744ZM239.953 234H238.665V227.14H239.897V228.26H239.953C240.084 227.896 240.35 227.588 240.751 227.336C241.162 227.075 241.563 226.944 241.955 226.944C242.328 226.944 242.646 227 242.907 227.112L242.515 228.358C242.356 228.293 242.104 228.26 241.759 228.26C241.274 228.26 240.849 228.456 240.485 228.848C240.13 229.24 239.953 229.697 239.953 230.22V234ZM246.407 234.224C245.399 234.224 244.568 233.879 243.915 233.188C243.262 232.497 242.935 231.625 242.935 230.57C242.935 229.525 243.252 228.657 243.887 227.966C244.522 227.266 245.334 226.916 246.323 226.916C247.34 226.916 248.148 227.247 248.745 227.91C249.352 228.563 249.655 229.483 249.655 230.668L249.641 230.808H244.251C244.27 231.48 244.494 232.021 244.923 232.432C245.352 232.843 245.866 233.048 246.463 233.048C247.284 233.048 247.928 232.637 248.395 231.816L249.543 232.376C249.235 232.955 248.806 233.407 248.255 233.734C247.714 234.061 247.098 234.224 246.407 234.224ZM244.349 229.744H248.283C248.246 229.268 248.05 228.876 247.695 228.568C247.35 228.251 246.883 228.092 246.295 228.092C245.81 228.092 245.39 228.241 245.035 228.54C244.69 228.839 244.461 229.24 244.349 229.744ZM252.625 233.132C252.625 233.393 252.531 233.617 252.345 233.804C252.167 233.991 251.943 234.084 251.673 234.084C251.411 234.084 251.187 233.991 251.001 233.804C250.814 233.617 250.721 233.393 250.721 233.132C250.721 232.861 250.814 232.637 251.001 232.46C251.187 232.273 251.411 232.18 251.673 232.18C251.943 232.18 252.167 232.273 252.345 232.46C252.531 232.637 252.625 232.861 252.625 233.132Z" fill="#555555"/>
<path d="M10 9H337H10ZM337 238C337 253.464 324.464 266 309 266H38C22.536 266 10 253.464 10 238C10 249.046 20.7452 258 34 258H313C326.255 258 337 249.046 337 238ZM10 262V9V262ZM337 9V262V9Z" fill="#E0E0E0" mask="url(#path-1-inside-1_4718_23377)"/>
</g>
<defs>
<filter id="filter0_dd_4718_23377" x="0" y="0" width="347" height="273" filterUnits="userSpaceOnUse" color-interpolation-filters="sRGB">
<feFlood flood-opacity="0" result="BackgroundImageFix"/>
<feColorMatrix in="SourceAlpha" type="matrix" values="0 0 0 0 0 0 0 0 0 0 0 0 0 0 0 0 0 0 127 0" result="hardAlpha"/>
<feMorphology radius="2" operator="dilate" in="SourceAlpha" result="effect1_dropShadow_4718_23377"/>
<feOffset dy="1"/>
<feGaussianBlur stdDeviation="4"/>
<feColorMatrix type="matrix" values="0 0 0 0 0.0784314 0 0 0 0 0.0784314 0 0 0 0 0.0784314 0 0 0 0.08 0"/>
<feBlend mode="normal" in2="BackgroundImageFix" result="effect1_dropShadow_4718_23377"/>
<feColorMatrix in="SourceAlpha" type="matrix" values="0 0 0 0 0 0 0 0 0 0 0 0 0 0 0 0 0 0 127 0" result="hardAlpha"/>
<feOffset/>
<feGaussianBlur stdDeviation="0.5"/>
<feColorMatrix type="matrix" values="0 0 0 0 0.0784314 0 0 0 0 0.0784314 0 0 0 0 0.0784314 0 0 0 0.08 0"/>
<feBlend mode="normal" in2="effect1_dropShadow_4718_23377" result="effect2_dropShadow_4718_23377"/>
<feBlend mode="normal" in="SourceGraphic" in2="effect2_dropShadow_4718_23377" result="shape"/>
</filter>
</defs>
</svg>
