<svg width="133" height="116" viewBox="0 0 133 116" fill="none" xmlns="http://www.w3.org/2000/svg">
<path d="M103.319 88.9121C103.319 90.4961 102.035 91.7802 100.451 91.7802C98.8666 91.7802 97.5825 90.4961 97.5825 88.9121C97.5825 87.3281 98.8666 86.0439 100.451 86.0439C102.035 86.0439 103.319 87.3281 103.319 88.9121ZM98.4067 88.9121C98.4067 90.0409 99.3218 90.956 100.451 90.956C101.579 90.956 102.495 90.0409 102.495 88.9121C102.495 87.7833 101.579 86.8682 100.451 86.8682C99.3218 86.8682 98.4067 87.7833 98.4067 88.9121Z" fill="#0068E1" fill-opacity="0.5"/>
<path d="M107.78 71.0661C107.78 71.9461 107.067 72.6595 106.187 72.6595C105.307 72.6595 104.594 71.9461 104.594 71.0661C104.594 70.186 105.307 69.4727 106.187 69.4727C107.067 69.4727 107.78 70.186 107.78 71.0661ZM105.051 71.0661C105.051 71.6932 105.56 72.2016 106.187 72.2016C106.814 72.2016 107.322 71.6932 107.322 71.0661C107.322 70.4389 106.814 69.9306 106.187 69.9306C105.56 69.9306 105.051 70.4389 105.051 71.0661Z" fill="#0068E1" fill-opacity="0.5"/>
<path d="M26.198 66.6041C26.198 67.4842 25.4847 68.1976 24.6046 68.1976C23.7246 68.1976 23.0112 67.4842 23.0112 66.6041C23.0112 65.7241 23.7246 65.0107 24.6046 65.0107C25.4847 65.0107 26.198 65.7241 26.198 66.6041ZM23.4691 66.6041C23.4691 67.2313 23.9775 67.7396 24.6046 67.7396C25.2318 67.7396 25.7401 67.2313 25.7401 66.6041C25.7401 65.977 25.2318 65.4686 24.6046 65.4686C23.9775 65.4686 23.4691 65.977 23.4691 66.6041Z" fill="#0068E1" fill-opacity="0.5"/>
<path d="M23.0111 44.9339C23.0111 47.2219 21.1562 49.0767 18.8682 49.0767C16.5802 49.0767 14.7253 47.2219 14.7253 44.9339C14.7253 42.6458 16.5802 40.791 18.8682 40.791C21.1562 40.791 23.0111 42.6458 23.0111 44.9339ZM15.9159 44.9339C15.9159 46.5644 17.2377 47.8862 18.8682 47.8862C20.4987 47.8862 21.8205 46.5644 21.8205 44.9339C21.8205 43.3034 20.4987 41.9816 18.8682 41.9816C17.2377 41.9816 15.9159 43.3034 15.9159 44.9339Z" fill="#0068E1" fill-opacity="0.5"/>
<path d="M41.557 10.4679C47.7974 4.09175 56.2566 0.508123 65.0771 0.5C73.8976 0.508123 82.3568 4.09175 88.5972 10.4679C94.8381 16.8444 98.3495 25.4929 98.3573 34.5152C98.3572 49.6937 90.8739 63.142 83.1839 72.9492C75.5013 82.747 67.6573 88.8533 67.024 89.3424C66.461 89.7735 65.7779 90.0055 65.0771 90.0055C64.3762 90.0055 63.693 89.7734 63.13 89.3422C62.4953 88.8521 54.6521 82.746 46.9703 72.9492C39.2803 63.1419 31.797 49.6936 31.7969 34.515C31.8048 25.4927 35.3162 16.8444 41.557 10.4679ZM65.0771 49.5877H65.0776C68.9951 49.5835 72.7486 47.9915 75.5153 45.1647C78.2817 42.3382 79.8357 38.5081 79.8399 34.5153V34.5148C79.8399 31.536 78.9754 28.6233 77.3546 26.1449C75.7337 23.6663 73.4288 21.7329 70.7301 20.5907C68.0312 19.4485 65.0608 19.1495 62.195 19.7319C59.3292 20.3144 56.6984 21.7517 54.6345 23.8605C52.5707 25.9691 51.1664 28.6544 50.5976 31.5762C50.0288 34.498 50.3206 37.5266 51.4367 40.2795C52.5527 43.0324 54.4434 45.3872 56.8712 47.0447C59.2992 48.7023 62.1549 49.5877 65.0771 49.5877Z" fill="#0068E1" fill-opacity="0.1" stroke="#1B80F5"/>
<mask id="path-6-inside-1_4490_14018" fill="white">
<path fill-rule="evenodd" clip-rule="evenodd" d="M23.2144 82.0698C23.0014 82.1454 22.7918 82.222 22.5855 82.2995C8.86451 85.8027 0.214355 90.9211 0.214355 96.6224C0.214355 107.183 29.8915 115.743 66.5001 115.743C103.109 115.743 132.786 107.183 132.786 96.6224C132.786 90.757 123.63 85.5084 109.217 82.0009C109.216 82.0006 109.215 82.0003 109.214 82V82.0003C109.215 82.0005 109.216 82.0007 109.217 82.0009C116.058 84.4356 119.401 87.8972 119.401 92.4796C119.401 102.825 102.363 107.139 66.5001 107.139C30.637 107.139 12.9616 102.825 12.9616 92.4796C12.9616 88.0814 16.1564 84.7157 22.5855 82.2995C22.7939 82.2463 23.0036 82.1934 23.2144 82.1409V82.0698Z"/>
</mask>
<path fill-rule="evenodd" clip-rule="evenodd" d="M23.2144 82.0698C23.0014 82.1454 22.7918 82.222 22.5855 82.2995C8.86451 85.8027 0.214355 90.9211 0.214355 96.6224C0.214355 107.183 29.8915 115.743 66.5001 115.743C103.109 115.743 132.786 107.183 132.786 96.6224C132.786 90.757 123.63 85.5084 109.217 82.0009C109.216 82.0006 109.215 82.0003 109.214 82V82.0003C109.215 82.0005 109.216 82.0007 109.217 82.0009C116.058 84.4356 119.401 87.8972 119.401 92.4796C119.401 102.825 102.363 107.139 66.5001 107.139C30.637 107.139 12.9616 102.825 12.9616 92.4796C12.9616 88.0814 16.1564 84.7157 22.5855 82.2995C22.7939 82.2463 23.0036 82.1934 23.2144 82.1409V82.0698Z" fill="#0068E1" fill-opacity="0.1"/>
<path d="M23.2144 82.0698H24.2144V80.6538L22.8799 81.1274L23.2144 82.0698ZM109.214 82L109.551 81.0582L108.214 80.5811V82H109.214ZM109.214 82.0003H108.214V82.7855L108.977 82.9718L109.214 82.0003ZM23.2144 82.1409L23.4559 83.1113L24.2144 82.9225V82.1409H23.2144ZM22.8799 81.1274C22.6613 81.205 22.4459 81.2837 22.2337 81.3634L22.9373 83.2356C23.1377 83.1602 23.3415 83.0858 23.5488 83.0122L22.8799 81.1274ZM1.21436 96.6224C1.21436 94.3118 2.98221 91.8676 6.7856 89.484C10.5397 87.1312 16.0212 85.0075 22.8329 83.2684L22.3381 81.3306C15.4288 83.0946 9.72469 85.2817 5.72351 87.7893C1.77158 90.266 -0.785645 93.2317 -0.785645 96.6224H1.21436ZM66.5001 114.743C48.2622 114.743 31.7885 112.61 19.9062 109.182C13.9583 107.466 9.21765 105.442 5.98686 103.239C2.72302 101.013 1.21436 98.7595 1.21436 96.6224H-0.785645C-0.785645 99.7655 1.41533 102.542 4.85998 104.891C8.33766 107.263 13.3044 109.359 19.3518 111.104C31.4602 114.597 48.1293 116.743 66.5001 116.743V114.743ZM131.786 96.6224C131.786 98.7595 130.277 101.013 127.013 103.239C123.782 105.442 119.042 107.466 113.094 109.182C101.212 112.61 84.7379 114.743 66.5001 114.743V116.743C84.8708 116.743 101.54 114.597 113.648 111.104C119.696 109.359 124.662 107.263 128.14 104.891C131.585 102.542 133.786 99.7655 133.786 96.6224H131.786ZM108.981 82.9726C116.139 84.7145 121.92 86.8734 125.887 89.2822C129.911 91.7252 131.786 94.2438 131.786 96.6224H133.786C133.786 93.1356 131.083 90.0973 126.925 87.5727C122.712 85.014 116.709 82.7949 109.453 81.0293L108.981 82.9726ZM109.553 81.0592C109.552 81.0588 109.551 81.0584 109.551 81.0582C109.55 81.058 109.55 81.0581 109.551 81.0582L108.878 82.9418C108.879 82.9422 108.88 82.9426 108.881 82.9427C108.881 82.9429 108.881 82.9428 108.881 82.9427L109.553 81.0592ZM108.214 82V82.0003H110.214V82H108.214ZM108.977 82.9718C108.978 82.972 108.979 82.9722 108.979 82.9723C108.98 82.9724 108.98 82.9724 108.98 82.9724L109.454 81.0295C109.453 81.0292 109.452 81.029 109.452 81.0289C109.451 81.0288 109.451 81.0288 109.452 81.0288L108.977 82.9718ZM120.401 92.4796C120.401 87.2488 116.527 83.5409 109.552 81.0588L108.882 82.9431C115.59 85.3302 118.401 88.5456 118.401 92.4796H120.401ZM66.5001 108.139C84.4449 108.139 97.7828 107.062 106.661 104.654C111.099 103.45 114.512 101.89 116.831 99.892C119.186 97.8631 120.401 95.3866 120.401 92.4796H118.401C118.401 94.7451 117.487 96.6873 115.526 98.3769C113.529 100.097 110.442 101.556 106.137 102.724C97.531 105.058 84.4182 106.139 66.5001 106.139V108.139ZM11.9616 92.4796C11.9616 95.3997 13.2281 97.8774 15.6412 99.9007C18.019 101.894 21.5093 103.452 26.0247 104.655C35.0596 107.062 48.5542 108.139 66.5001 108.139V106.139C48.5829 106.139 35.3082 105.059 26.5396 102.722C22.1534 101.554 18.9834 100.093 16.9263 98.3681C14.9045 96.673 13.9616 94.732 13.9616 92.4796H11.9616ZM22.2337 81.3634C15.6702 83.8301 11.9616 87.446 11.9616 92.4796H13.9616C13.9616 88.7167 16.6427 85.6012 22.9373 83.2356L22.2337 81.3634ZM22.8329 83.2684C23.0394 83.2157 23.2471 83.1633 23.4559 83.1113L22.9728 81.1706C22.7601 81.2235 22.5485 81.2768 22.3381 81.3306L22.8329 83.2684ZM24.2144 82.1409V82.0698H22.2144V82.1409H24.2144Z" fill="#1B80F5" mask="url(#path-6-inside-1_4490_14018)"/>
</svg>
