<svg width="21" height="18" viewBox="0 0 21 18" fill="none" xmlns="http://www.w3.org/2000/svg">
<path d="M15.5 0.5H5.5C2.5 0.5 0.5 2 0.5 5.5V12.5C0.5 16 2.5 17.5 5.5 17.5H15.5C18.5 17.5 20.5 16 20.5 12.5V5.5C20.5 2 18.5 0.5 15.5 0.5ZM15.97 6.59L12.84 9.09C12.18 9.62 11.34 9.88 10.5 9.88C9.66 9.88 8.81 9.62 8.16 9.09L5.03 6.59C4.71 6.33 4.66 5.85 4.91 5.53C5.17 5.21 5.64 5.15 5.96 5.41L9.09 7.91C9.85 8.52 11.14 8.52 11.9 7.91L15.03 5.41C15.35 5.15 15.83 5.2 16.08 5.53C16.34 5.85 16.29 6.33 15.97 6.59Z" fill="#555555"/>
</svg>
