<svg width="347" height="340" viewBox="0 0 347 340" fill="none" xmlns="http://www.w3.org/2000/svg">
<g filter="url(#filter0_dd_4485_12352)">
<mask id="path-1-inside-1_4485_12352" fill="white">
<path d="M10 33C10 19.7451 20.7452 9 34 9H313C326.255 9 337 19.7452 337 33V304.501C337 317.755 326.255 328.501 313 328.501H34C20.7452 328.501 10 317.755 10 304.501V33Z"/>
</mask>
<path d="M10 33C10 19.7451 20.7452 9 34 9H313C326.255 9 337 19.7452 337 33V304.501C337 317.755 326.255 328.501 313 328.501H34C20.7452 328.501 10 317.755 10 304.501V33Z" fill="white"/>
<g filter="url(#filter1_d_4485_12352)">
<path fill-rule="evenodd" clip-rule="evenodd" d="M90.8892 100.439C77.6343 100.439 66.8892 111.184 66.8892 124.439V162.964C66.8892 176.218 77.6343 186.964 90.8891 186.964H100.495V210.781C100.495 212.618 102.763 213.483 103.987 212.113L126.442 186.964H167.269C180.524 186.964 191.269 176.218 191.269 162.964V124.439C191.269 111.184 180.524 100.439 167.269 100.439H90.8892Z" fill="#1B80F5"/>
</g>
<path fill-rule="evenodd" clip-rule="evenodd" d="M246.892 99.7173C246.892 86.4624 236.147 75.7173 222.892 75.7173H146.512C133.258 75.7173 122.512 86.4624 122.512 99.7173V100.439H167.269C180.523 100.439 191.269 111.184 191.269 124.439V162.964C191.269 164.121 191.187 165.26 191.028 166.374L209.794 187.392C211.018 188.762 213.286 187.897 213.286 186.06V162.242H222.892C236.147 162.242 246.892 151.497 246.892 138.242V99.7173Z" fill="#0068E1" fill-opacity="0.1"/>
<path d="M122.512 100.439H122.012V100.939H122.512V100.439ZM191.028 166.374L190.533 166.304L190.5 166.534L190.655 166.707L191.028 166.374ZM213.286 162.242V161.742H212.786V162.242H213.286ZM222.892 76.2173C235.871 76.2173 246.392 86.7386 246.392 99.7173H247.392C247.392 86.1863 236.423 75.2173 222.892 75.2173V76.2173ZM146.512 76.2173H222.892V75.2173H146.512V76.2173ZM123.012 99.7173C123.012 86.7386 133.534 76.2173 146.512 76.2173V75.2173C132.981 75.2173 122.012 86.1863 122.012 99.7173H123.012ZM123.012 100.439V99.7173H122.012V100.439H123.012ZM167.269 99.9387H122.512V100.939H167.269V99.9387ZM191.769 124.439C191.769 110.908 180.8 99.9387 167.269 99.9387V100.939C180.247 100.939 190.769 111.46 190.769 124.439H191.769ZM191.769 162.964V124.439H190.769V162.964H191.769ZM191.523 166.444C191.685 165.307 191.769 164.145 191.769 162.964H190.769C190.769 164.098 190.688 165.213 190.533 166.304L191.523 166.444ZM210.167 187.059L191.401 166.041L190.655 166.707L209.421 187.725L210.167 187.059ZM212.786 186.06C212.786 187.438 211.085 188.087 210.167 187.059L209.421 187.725C210.95 189.438 213.786 188.356 213.786 186.06H212.786ZM212.786 162.242V186.06H213.786V162.242H212.786ZM222.892 161.742H213.286V162.742H222.892V161.742ZM246.392 138.242C246.392 151.221 235.871 161.742 222.892 161.742V162.742C236.423 162.742 247.392 151.773 247.392 138.242H246.392ZM246.392 99.7173V138.242H247.392V99.7173H246.392Z" fill="#1B80F5"/>
<path d="M263.888 188.509C263.888 191.922 261.121 194.689 257.708 194.689C254.294 194.689 251.527 191.922 251.527 188.509C251.527 185.095 254.294 182.328 257.708 182.328C261.121 182.328 263.888 185.095 263.888 188.509ZM253.303 188.509C253.303 190.941 255.275 192.913 257.708 192.913C260.14 192.913 262.112 190.941 262.112 188.509C262.112 186.076 260.14 184.104 257.708 184.104C255.275 184.104 253.303 186.076 253.303 188.509Z" fill="#1B80F5" fill-opacity="0.2"/>
<path d="M102.426 64.1293C102.426 68.8226 98.6215 72.6273 93.9282 72.6273C89.2349 72.6273 85.4302 68.8226 85.4302 64.1293C85.4302 59.436 89.2349 55.6313 93.9282 55.6313C98.6215 55.6313 102.426 59.436 102.426 64.1293ZM87.8723 64.1293C87.8723 67.4739 90.5836 70.1852 93.9282 70.1852C97.2727 70.1852 99.984 67.4739 99.984 64.1293C99.984 60.7848 97.2727 58.0735 93.9282 58.0735C90.5836 58.0735 87.8723 60.7848 87.8723 64.1293Z" fill="#1B80F5" fill-opacity="0.2"/>
<path fill-rule="evenodd" clip-rule="evenodd" d="M252.14 34C252.14 33.4477 251.693 33 251.14 33C250.588 33 250.14 33.4477 250.14 34V40.1803C250.14 40.7326 250.588 41.1803 251.14 41.1803C251.693 41.1803 252.14 40.7326 252.14 40.1803V34ZM252.14 48.6783C252.14 48.126 251.693 47.6783 251.14 47.6783C250.588 47.6783 250.14 48.126 250.14 48.6783V54.8586C250.14 55.4109 250.588 55.8586 251.14 55.8586C251.693 55.8586 252.14 55.4109 252.14 54.8586V48.6783ZM262.57 44.4294C262.57 44.9817 262.122 45.4294 261.57 45.4294H255.389C254.837 45.4294 254.389 44.9817 254.389 44.4294C254.389 43.8771 254.837 43.4294 255.389 43.4294H261.57C262.122 43.4294 262.57 43.8771 262.57 44.4294ZM246.892 45.4294C247.444 45.4294 247.892 44.9817 247.892 44.4294C247.892 43.8771 247.444 43.4294 246.892 43.4294H240.711C240.159 43.4294 239.711 43.8771 239.711 44.4294C239.711 44.9817 240.159 45.4294 240.711 45.4294H246.892Z" fill="#1B80F5" fill-opacity="0.2"/>
<path fill-rule="evenodd" clip-rule="evenodd" d="M56.6873 201.642C56.6873 201.09 56.2396 200.642 55.6873 200.642C55.135 200.642 54.6873 201.09 54.6873 201.642V207.822C54.6873 208.374 55.135 208.822 55.6873 208.822C56.2396 208.822 56.6873 208.374 56.6873 207.822V201.642ZM56.6872 216.32C56.6872 215.768 56.2395 215.32 55.6872 215.32C55.1349 215.32 54.6872 215.768 54.6872 216.32V222.5C54.6872 223.053 55.1349 223.5 55.6872 223.5C56.2395 223.5 56.6872 223.053 56.6872 222.5V216.32ZM67.1165 212.071C67.1165 212.624 66.6687 213.071 66.1165 213.071H59.9361C59.3838 213.071 58.9361 212.624 58.9361 212.071C58.9361 211.519 59.3838 211.071 59.9361 211.071H66.1165C66.6687 211.071 67.1165 211.519 67.1165 212.071ZM51.4382 213.071C51.9904 213.071 52.4382 212.624 52.4382 212.071C52.4382 211.519 51.9904 211.071 51.4382 211.071H45.2578C44.7055 211.071 44.2578 211.519 44.2578 212.071C44.2578 212.624 44.7055 213.071 45.2578 213.071H51.4382Z" fill="#1B80F5" fill-opacity="0.2"/>
<path fill-rule="evenodd" clip-rule="evenodd" d="M292.313 145.246C292.313 144.694 291.865 144.246 291.313 144.246C290.76 144.246 290.313 144.694 290.313 145.246V151.427C290.313 151.979 290.76 152.427 291.313 152.427C291.865 152.427 292.313 151.979 292.313 151.427V145.246ZM292.313 159.925C292.313 159.372 291.865 158.925 291.313 158.925C290.76 158.925 290.313 159.372 290.313 159.925V166.105C290.313 166.657 290.76 167.105 291.313 167.105C291.865 167.105 292.313 166.657 292.313 166.105V159.925ZM302.742 155.676C302.742 156.228 302.295 156.676 301.742 156.676H295.562C295.01 156.676 294.562 156.228 294.562 155.676C294.562 155.123 295.01 154.676 295.562 154.676H301.742C302.295 154.676 302.742 155.123 302.742 155.676ZM287.063 156.676C287.616 156.676 288.063 156.228 288.063 155.676C288.063 155.123 287.616 154.676 287.063 154.676L280.883 154.676C280.331 154.676 279.883 155.123 279.883 155.676C279.883 156.228 280.331 156.676 280.883 156.676L287.063 156.676Z" fill="#1B80F5" fill-opacity="0.2"/>
<path fill-rule="evenodd" clip-rule="evenodd" d="M110.152 136.748C110.152 138.882 108.422 140.611 106.289 140.611C104.156 140.611 102.426 138.882 102.426 136.748C102.426 134.615 104.156 132.885 106.289 132.885C108.422 132.885 110.152 134.615 110.152 136.748ZM155.732 136.748C155.732 138.882 154.002 140.611 151.869 140.611C149.736 140.611 148.006 138.882 148.006 136.748C148.006 134.615 149.736 132.886 151.869 132.886C154.002 132.886 155.732 134.615 155.732 136.748ZM143.443 159.98C143.773 160.556 143.518 161.278 142.92 161.566C142.321 161.854 141.607 161.6 141.27 161.027C140.138 159.102 138.575 157.457 136.699 156.225C134.487 154.773 131.921 153.95 129.277 153.844C126.633 153.738 124.009 154.353 121.688 155.624C119.719 156.701 118.03 158.216 116.747 160.044C116.366 160.588 115.633 160.785 115.06 160.449C114.486 160.114 114.29 159.374 114.665 158.826C116.172 156.623 118.181 154.8 120.533 153.513C123.237 152.033 126.293 151.317 129.373 151.44C132.453 151.564 135.442 152.523 138.019 154.214C140.26 155.686 142.117 157.663 143.443 159.98Z" fill="white"/>
<path d="M75.228 250.316H78.468L86.1 262.772H86.244L86.1 259.46V250.316H88.788V267.5H85.956L77.94 254.42H77.796L77.94 257.732V267.5H75.228V250.316ZM97.3316 255.356C98.2276 255.356 99.0516 255.516 99.8036 255.836C100.556 256.14 101.204 256.572 101.748 257.132C102.292 257.692 102.716 258.356 103.02 259.124C103.324 259.892 103.476 260.724 103.476 261.62C103.476 262.516 103.324 263.348 103.02 264.116C102.716 264.884 102.292 265.548 101.748 266.108C101.204 266.668 100.556 267.108 99.8036 267.428C99.0516 267.732 98.2276 267.884 97.3316 267.884C96.4356 267.884 95.6116 267.732 94.8596 267.428C94.1076 267.108 93.4596 266.668 92.9156 266.108C92.3716 265.548 91.9476 264.884 91.6436 264.116C91.3396 263.348 91.1876 262.516 91.1876 261.62C91.1876 260.724 91.3396 259.892 91.6436 259.124C91.9476 258.356 92.3716 257.692 92.9156 257.132C93.4596 256.572 94.1076 256.14 94.8596 255.836C95.6116 255.516 96.4356 255.356 97.3316 255.356ZM97.3316 265.412C97.7796 265.412 98.2116 265.324 98.6276 265.148C99.0436 264.972 99.4116 264.724 99.7316 264.404C100.068 264.084 100.332 263.692 100.524 263.228C100.716 262.748 100.812 262.212 100.812 261.62C100.812 261.028 100.716 260.5 100.524 260.036C100.332 259.556 100.068 259.156 99.7316 258.836C99.4116 258.516 99.0436 258.268 98.6276 258.092C98.2116 257.916 97.7796 257.828 97.3316 257.828C96.8836 257.828 96.4516 257.916 96.0356 258.092C95.6196 258.268 95.2436 258.516 94.9076 258.836C94.5876 259.156 94.3316 259.556 94.1396 260.036C93.9476 260.5 93.8516 261.028 93.8516 261.62C93.8516 262.212 93.9476 262.748 94.1396 263.228C94.3316 263.692 94.5876 264.084 94.9076 264.404C95.2436 264.724 95.6196 264.972 96.0356 265.148C96.4516 265.324 96.8836 265.412 97.3316 265.412ZM125.665 264.788C124.849 265.748 123.865 266.508 122.713 267.068C121.561 267.612 120.265 267.884 118.825 267.884C117.545 267.884 116.361 267.66 115.273 267.212C114.185 266.748 113.233 266.116 112.417 265.316C111.617 264.5 110.985 263.548 110.521 262.46C110.073 261.372 109.849 260.188 109.849 258.908C109.849 257.644 110.073 256.468 110.521 255.38C110.985 254.276 111.617 253.324 112.417 252.524C113.233 251.708 114.185 251.076 115.273 250.628C116.361 250.164 117.545 249.932 118.825 249.932C120.153 249.932 121.345 250.18 122.401 250.676C123.457 251.156 124.385 251.844 125.185 252.74L123.265 254.612C122.689 253.924 122.041 253.404 121.321 253.052C120.617 252.7 119.785 252.524 118.825 252.524C117.977 252.524 117.169 252.676 116.401 252.98C115.649 253.268 114.993 253.692 114.433 254.252C113.873 254.796 113.425 255.468 113.089 256.268C112.769 257.052 112.609 257.932 112.609 258.908C112.609 259.884 112.769 260.772 113.089 261.572C113.425 262.356 113.873 263.028 114.433 263.588C114.993 264.132 115.649 264.556 116.401 264.86C117.169 265.148 117.977 265.292 118.825 265.292C119.849 265.292 120.761 265.084 121.561 264.668C122.361 264.236 123.073 263.644 123.697 262.892L125.665 264.788ZM127.649 250.316H130.313V255.428L130.169 257.324H130.313C130.649 256.764 131.145 256.3 131.801 255.932C132.457 255.548 133.185 255.356 133.985 255.356C134.753 255.356 135.417 255.476 135.977 255.716C136.537 255.94 137.001 256.268 137.369 256.7C137.737 257.132 138.009 257.652 138.185 258.26C138.361 258.852 138.449 259.508 138.449 260.228V267.5H135.785V260.588C135.785 259.612 135.545 258.908 135.065 258.476C134.601 258.044 134.009 257.828 133.289 257.828C132.825 257.828 132.409 257.932 132.041 258.14C131.689 258.332 131.377 258.596 131.105 258.932C130.849 259.268 130.649 259.652 130.505 260.084C130.377 260.516 130.313 260.964 130.313 261.428V267.5H127.649V250.316ZM148.354 266.06H148.21C147.858 266.524 147.402 266.948 146.842 267.332C146.282 267.7 145.57 267.884 144.706 267.884C144.082 267.884 143.498 267.78 142.954 267.572C142.41 267.38 141.938 267.108 141.538 266.756C141.138 266.388 140.818 265.964 140.578 265.484C140.354 264.988 140.242 264.444 140.242 263.852C140.242 263.228 140.362 262.668 140.602 262.172C140.858 261.676 141.202 261.26 141.634 260.924C142.082 260.588 142.61 260.332 143.218 260.156C143.826 259.964 144.482 259.868 145.186 259.868C145.97 259.868 146.626 259.948 147.154 260.108C147.682 260.252 148.082 260.388 148.354 260.516V260.06C148.354 259.708 148.274 259.38 148.114 259.076C147.97 258.772 147.762 258.516 147.49 258.308C147.234 258.084 146.938 257.916 146.602 257.804C146.266 257.676 145.914 257.612 145.546 257.612C144.954 257.612 144.418 257.732 143.938 257.972C143.474 258.196 143.058 258.564 142.69 259.076L140.578 257.684C141.138 256.916 141.834 256.34 142.666 255.956C143.498 255.556 144.442 255.356 145.498 255.356C147.242 255.356 148.586 255.788 149.53 256.652C150.49 257.516 150.97 258.748 150.97 260.348V267.5H148.354V266.06ZM148.354 262.604C148.002 262.396 147.61 262.228 147.178 262.1C146.746 261.972 146.25 261.908 145.69 261.908C144.858 261.908 144.194 262.1 143.698 262.484C143.202 262.868 142.954 263.332 142.954 263.876C142.954 264.164 143.018 264.42 143.146 264.644C143.274 264.852 143.434 265.036 143.626 265.196C143.834 265.356 144.066 265.476 144.322 265.556C144.594 265.636 144.866 265.676 145.138 265.676C145.57 265.676 145.978 265.596 146.362 265.436C146.762 265.26 147.106 265.036 147.394 264.764C147.682 264.476 147.914 264.148 148.09 263.78C148.266 263.412 148.354 263.02 148.354 262.604ZM154.538 258.092H152.474V255.74H154.538V252.14H157.202V255.74H160.106V258.092H157.202V263.324C157.202 263.612 157.234 263.876 157.298 264.116C157.362 264.356 157.458 264.556 157.586 264.716C157.858 265.02 158.202 265.172 158.618 265.172C158.874 265.172 159.074 265.156 159.218 265.124C159.362 265.076 159.514 265.012 159.674 264.932L160.49 267.284C160.154 267.412 159.802 267.508 159.434 267.572C159.066 267.652 158.65 267.692 158.186 267.692C157.626 267.692 157.13 267.604 156.698 267.428C156.266 267.252 155.89 267.012 155.57 266.708C154.882 266.02 154.538 265.084 154.538 263.9V258.092ZM167.011 267.884C166.291 267.884 165.643 267.788 165.067 267.596C164.491 267.404 163.987 267.156 163.555 266.852C163.123 266.532 162.755 266.172 162.451 265.772C162.163 265.372 161.939 264.956 161.779 264.524L164.179 263.516C164.451 264.204 164.843 264.716 165.355 265.052C165.867 265.372 166.419 265.532 167.011 265.532C167.683 265.532 168.211 265.396 168.595 265.124C168.979 264.852 169.171 264.548 169.171 264.212C169.171 263.876 169.027 263.588 168.739 263.348C168.451 263.092 167.907 262.868 167.107 262.676L165.427 262.268C165.059 262.188 164.683 262.068 164.299 261.908C163.931 261.732 163.587 261.516 163.267 261.26C162.947 260.988 162.683 260.668 162.475 260.3C162.283 259.916 162.187 259.468 162.187 258.956C162.187 258.38 162.307 257.868 162.547 257.42C162.803 256.972 163.147 256.596 163.579 256.292C164.011 255.988 164.507 255.756 165.067 255.596C165.643 255.436 166.251 255.356 166.891 255.356C167.419 255.356 167.923 255.412 168.403 255.524C168.899 255.636 169.355 255.804 169.771 256.028C170.187 256.252 170.555 256.54 170.875 256.892C171.211 257.228 171.475 257.628 171.667 258.092L169.315 259.076C169.091 258.564 168.739 258.196 168.259 257.972C167.779 257.732 167.291 257.612 166.795 257.612C166.571 257.612 166.339 257.644 166.099 257.708C165.875 257.756 165.667 257.836 165.475 257.948C165.299 258.044 165.147 258.172 165.019 258.332C164.907 258.492 164.851 258.668 164.851 258.86C164.851 259.18 164.987 259.436 165.259 259.628C165.547 259.804 165.979 259.964 166.555 260.108L168.355 260.564C169.571 260.868 170.459 261.332 171.019 261.956C171.595 262.564 171.883 263.284 171.883 264.116C171.883 264.628 171.763 265.108 171.523 265.556C171.299 266.004 170.971 266.404 170.539 266.756C170.107 267.108 169.587 267.38 168.979 267.572C168.387 267.78 167.731 267.884 167.011 267.884ZM183.744 250.316H186.864L193.32 267.5H190.32L188.76 263.084H181.848L180.288 267.5H177.288L183.744 250.316ZM187.848 260.612L186.048 255.548L185.376 253.532H185.232L184.56 255.548L182.76 260.612H187.848ZM192.518 255.74H195.518L198.686 264.044H198.806L202.046 255.74H204.974L200.054 267.5H197.39L192.518 255.74ZM213.628 266.06H213.484C213.132 266.524 212.676 266.948 212.116 267.332C211.556 267.7 210.844 267.884 209.98 267.884C209.356 267.884 208.772 267.78 208.228 267.572C207.684 267.38 207.212 267.108 206.812 266.756C206.412 266.388 206.092 265.964 205.852 265.484C205.628 264.988 205.516 264.444 205.516 263.852C205.516 263.228 205.636 262.668 205.876 262.172C206.132 261.676 206.476 261.26 206.908 260.924C207.356 260.588 207.884 260.332 208.492 260.156C209.1 259.964 209.756 259.868 210.46 259.868C211.244 259.868 211.9 259.948 212.428 260.108C212.956 260.252 213.356 260.388 213.628 260.516V260.06C213.628 259.708 213.548 259.38 213.388 259.076C213.244 258.772 213.036 258.516 212.764 258.308C212.508 258.084 212.212 257.916 211.876 257.804C211.54 257.676 211.188 257.612 210.82 257.612C210.228 257.612 209.692 257.732 209.212 257.972C208.748 258.196 208.332 258.564 207.964 259.076L205.852 257.684C206.412 256.916 207.108 256.34 207.94 255.956C208.772 255.556 209.716 255.356 210.772 255.356C212.516 255.356 213.86 255.788 214.804 256.652C215.764 257.516 216.244 258.748 216.244 260.348V267.5H213.628V266.06ZM213.628 262.604C213.276 262.396 212.884 262.228 212.452 262.1C212.02 261.972 211.524 261.908 210.964 261.908C210.132 261.908 209.468 262.1 208.972 262.484C208.476 262.868 208.228 263.332 208.228 263.876C208.228 264.164 208.292 264.42 208.42 264.644C208.548 264.852 208.708 265.036 208.9 265.196C209.108 265.356 209.34 265.476 209.596 265.556C209.868 265.636 210.14 265.676 210.412 265.676C210.844 265.676 211.252 265.596 211.636 265.436C212.036 265.26 212.38 265.036 212.668 264.764C212.956 264.476 213.188 264.148 213.364 263.78C213.54 263.412 213.628 263.02 213.628 262.604ZM220.286 253.652C219.774 253.652 219.342 253.476 218.99 253.124C218.654 252.772 218.486 252.348 218.486 251.852C218.486 251.356 218.654 250.932 218.99 250.58C219.342 250.228 219.774 250.052 220.286 250.052C220.782 250.052 221.198 250.228 221.534 250.58C221.886 250.932 222.062 251.356 222.062 251.852C222.062 252.348 221.886 252.772 221.534 253.124C221.198 253.476 220.782 253.652 220.286 253.652ZM218.942 267.5V255.74H221.606V267.5H218.942ZM224.492 267.5V250.316H227.156V267.5H224.492ZM237.159 266.06H237.015C236.663 266.524 236.207 266.948 235.647 267.332C235.087 267.7 234.375 267.884 233.511 267.884C232.887 267.884 232.303 267.78 231.759 267.572C231.215 267.38 230.743 267.108 230.343 266.756C229.943 266.388 229.623 265.964 229.383 265.484C229.159 264.988 229.047 264.444 229.047 263.852C229.047 263.228 229.167 262.668 229.407 262.172C229.663 261.676 230.007 261.26 230.439 260.924C230.887 260.588 231.415 260.332 232.023 260.156C232.631 259.964 233.287 259.868 233.991 259.868C234.775 259.868 235.431 259.948 235.959 260.108C236.487 260.252 236.887 260.388 237.159 260.516V260.06C237.159 259.708 237.079 259.38 236.919 259.076C236.775 258.772 236.567 258.516 236.295 258.308C236.039 258.084 235.743 257.916 235.407 257.804C235.071 257.676 234.719 257.612 234.351 257.612C233.759 257.612 233.223 257.732 232.743 257.972C232.279 258.196 231.863 258.564 231.495 259.076L229.383 257.684C229.943 256.916 230.639 256.34 231.471 255.956C232.303 255.556 233.247 255.356 234.303 255.356C236.047 255.356 237.391 255.788 238.335 256.652C239.295 257.516 239.775 258.748 239.775 260.348V267.5H237.159V266.06ZM237.159 262.604C236.807 262.396 236.415 262.228 235.983 262.1C235.551 261.972 235.055 261.908 234.495 261.908C233.663 261.908 232.999 262.1 232.503 262.484C232.007 262.868 231.759 263.332 231.759 263.876C231.759 264.164 231.823 264.42 231.951 264.644C232.079 264.852 232.239 265.036 232.431 265.196C232.639 265.356 232.871 265.476 233.127 265.556C233.399 265.636 233.671 265.676 233.943 265.676C234.375 265.676 234.783 265.596 235.167 265.436C235.567 265.26 235.911 265.036 236.199 264.764C236.487 264.476 236.719 264.148 236.895 263.78C237.071 263.412 237.159 263.02 237.159 262.604ZM242.282 250.316H244.946V255.62L244.802 257.252H244.946C245.266 256.74 245.754 256.3 246.41 255.932C247.066 255.548 247.85 255.356 248.762 255.356C249.514 255.356 250.226 255.516 250.898 255.836C251.586 256.14 252.186 256.572 252.698 257.132C253.21 257.692 253.618 258.356 253.922 259.124C254.226 259.876 254.378 260.708 254.378 261.62C254.378 262.532 254.226 263.372 253.922 264.14C253.618 264.892 253.21 265.548 252.698 266.108C252.186 266.668 251.586 267.108 250.898 267.428C250.226 267.732 249.514 267.884 248.762 267.884C247.85 267.884 247.066 267.7 246.41 267.332C245.754 266.948 245.266 266.5 244.946 265.988H244.802V267.5H242.282V250.316ZM248.258 265.412C248.706 265.412 249.138 265.324 249.554 265.148C249.986 264.972 250.354 264.724 250.658 264.404C250.978 264.068 251.234 263.668 251.426 263.204C251.618 262.74 251.714 262.212 251.714 261.62C251.714 261.028 251.618 260.5 251.426 260.036C251.234 259.572 250.978 259.18 250.658 258.86C250.354 258.524 249.986 258.268 249.554 258.092C249.138 257.916 248.706 257.828 248.258 257.828C247.794 257.828 247.354 257.916 246.938 258.092C246.522 258.268 246.154 258.516 245.834 258.836C245.53 259.156 245.282 259.556 245.09 260.036C244.898 260.5 244.802 261.028 244.802 261.62C244.802 262.212 244.898 262.748 245.09 263.228C245.282 263.692 245.53 264.084 245.834 264.404C246.154 264.724 246.522 264.972 246.938 265.148C247.354 265.324 247.794 265.412 248.258 265.412ZM256.274 267.5V250.316H258.938V267.5H256.274ZM272.396 264.692C271.9 265.604 271.196 266.364 270.284 266.972C269.372 267.58 268.252 267.884 266.924 267.884C266.044 267.884 265.228 267.732 264.476 267.428C263.74 267.108 263.1 266.668 262.556 266.108C262.012 265.548 261.588 264.892 261.284 264.14C260.98 263.372 260.828 262.532 260.828 261.62C260.828 260.772 260.972 259.972 261.26 259.22C261.548 258.452 261.948 257.788 262.46 257.228C262.988 256.652 263.62 256.196 264.356 255.86C265.092 255.524 265.908 255.356 266.804 255.356C267.716 255.356 268.524 255.508 269.228 255.812C269.948 256.116 270.556 256.54 271.052 257.084C271.548 257.628 271.924 258.284 272.18 259.052C272.452 259.82 272.588 260.66 272.588 261.572C272.588 261.652 272.588 261.724 272.588 261.788C272.572 261.868 272.564 261.94 272.564 262.004C272.548 262.068 272.54 262.132 272.54 262.196H263.492C263.54 262.756 263.676 263.244 263.9 263.66C264.124 264.076 264.396 264.42 264.716 264.692C265.052 264.964 265.42 265.164 265.82 265.292C266.22 265.42 266.612 265.484 266.996 265.484C267.764 265.484 268.396 265.3 268.892 264.932C269.388 264.564 269.796 264.108 270.116 263.564L272.396 264.692ZM269.924 260.156C269.892 259.916 269.812 259.652 269.684 259.364C269.572 259.06 269.388 258.788 269.132 258.548C268.892 258.292 268.572 258.076 268.172 257.9C267.788 257.724 267.316 257.636 266.756 257.636C265.988 257.636 265.324 257.868 264.764 258.332C264.22 258.78 263.852 259.388 263.66 260.156H269.924Z" fill="#151415"/>
<path d="M92.8214 300.5H91.5334V290.476H93.1014L97.9734 298.274H98.0294L97.9734 296.342V290.476H99.2614V300.5H97.9174L92.8214 292.324H92.7654L92.8214 294.256V300.5ZM104.137 300.724C103.129 300.724 102.299 300.379 101.645 299.688C100.992 298.998 100.665 298.125 100.665 297.07C100.665 296.025 100.983 295.157 101.617 294.466C102.252 293.766 103.064 293.416 104.053 293.416C105.071 293.416 105.878 293.748 106.475 294.41C107.082 295.064 107.385 295.983 107.385 297.168L107.371 297.308H101.981C102 297.98 102.224 298.522 102.653 298.932C103.083 299.343 103.596 299.548 104.193 299.548C105.015 299.548 105.659 299.138 106.125 298.316L107.273 298.876C106.965 299.455 106.536 299.908 105.985 300.234C105.444 300.561 104.828 300.724 104.137 300.724ZM102.079 296.244H106.013C105.976 295.768 105.78 295.376 105.425 295.068C105.08 294.751 104.613 294.592 104.025 294.592C103.54 294.592 103.12 294.742 102.765 295.04C102.42 295.339 102.191 295.74 102.079 296.244ZM118.143 293.64L115.931 300.5H114.615L112.907 295.236L111.213 300.5H109.911L107.699 293.64H109.043L110.569 298.82H110.583L112.277 293.64H113.607L115.301 298.82H115.315L116.827 293.64H118.143ZM125.193 300.724C124.176 300.724 123.331 300.379 122.659 299.688C121.997 298.979 121.665 298.106 121.665 297.07C121.665 296.016 121.997 295.143 122.659 294.452C123.331 293.762 124.176 293.416 125.193 293.416C125.893 293.416 126.505 293.594 127.027 293.948C127.55 294.294 127.942 294.774 128.203 295.39L127.027 295.88C126.663 295.022 126.024 294.592 125.109 294.592C124.521 294.592 124.013 294.83 123.583 295.306C123.163 295.782 122.953 296.37 122.953 297.07C122.953 297.77 123.163 298.358 123.583 298.834C124.013 299.31 124.521 299.548 125.109 299.548C126.052 299.548 126.715 299.119 127.097 298.26L128.245 298.75C127.993 299.366 127.597 299.852 127.055 300.206C126.523 300.552 125.903 300.724 125.193 300.724ZM129.372 290.476H130.66V293.64L130.604 294.592H130.66C130.856 294.256 131.155 293.976 131.556 293.752C131.967 293.528 132.391 293.416 132.83 293.416C133.67 293.416 134.314 293.659 134.762 294.144C135.219 294.62 135.448 295.302 135.448 296.188V300.5H134.16V296.44C134.16 295.208 133.614 294.592 132.522 294.592C131.999 294.592 131.556 294.812 131.192 295.25C130.837 295.68 130.66 296.184 130.66 296.762V300.5H129.372V290.476ZM137.829 298.4C137.829 298.736 137.969 299.016 138.249 299.24C138.539 299.464 138.875 299.576 139.257 299.576C139.799 299.576 140.279 299.376 140.699 298.974C141.129 298.573 141.343 298.102 141.343 297.56C140.942 297.243 140.382 297.084 139.663 297.084C139.141 297.084 138.702 297.21 138.347 297.462C138.002 297.714 137.829 298.027 137.829 298.4ZM139.495 293.416C140.447 293.416 141.199 293.673 141.749 294.186C142.3 294.69 142.575 295.386 142.575 296.272V300.5H141.343V299.548H141.287C140.755 300.332 140.046 300.724 139.159 300.724C138.403 300.724 137.769 300.5 137.255 300.052C136.751 299.604 136.499 299.044 136.499 298.372C136.499 297.663 136.765 297.098 137.297 296.678C137.839 296.258 138.557 296.048 139.453 296.048C140.219 296.048 140.849 296.188 141.343 296.468V296.174C141.343 295.726 141.166 295.348 140.811 295.04C140.457 294.723 140.041 294.564 139.565 294.564C138.847 294.564 138.277 294.868 137.857 295.474L136.723 294.76C137.349 293.864 138.273 293.416 139.495 293.416ZM146.607 300.612C146.047 300.612 145.581 300.44 145.207 300.094C144.843 299.749 144.657 299.268 144.647 298.652V294.816H143.443V293.64H144.647V291.54H145.935V293.64H147.615V294.816H145.935V298.232C145.935 298.69 146.024 299.002 146.201 299.17C146.379 299.329 146.579 299.408 146.803 299.408C146.906 299.408 147.004 299.399 147.097 299.38C147.2 299.352 147.293 299.32 147.377 299.282L147.783 300.43C147.447 300.552 147.055 300.612 146.607 300.612ZM154.227 298.596C154.227 299.194 153.966 299.698 153.443 300.108C152.921 300.519 152.263 300.724 151.469 300.724C150.779 300.724 150.172 300.547 149.649 300.192C149.127 299.828 148.753 299.352 148.529 298.764L149.677 298.274C149.845 298.685 150.088 299.007 150.405 299.24C150.732 299.464 151.087 299.576 151.469 299.576C151.88 299.576 152.221 299.488 152.491 299.31C152.771 299.133 152.911 298.923 152.911 298.68C152.911 298.242 152.575 297.92 151.903 297.714L150.727 297.42C149.393 297.084 148.725 296.44 148.725 295.488C148.725 294.863 148.977 294.364 149.481 293.99C149.995 293.608 150.648 293.416 151.441 293.416C152.048 293.416 152.594 293.561 153.079 293.85C153.574 294.14 153.919 294.527 154.115 295.012L152.967 295.488C152.837 295.199 152.622 294.975 152.323 294.816C152.034 294.648 151.707 294.564 151.343 294.564C151.007 294.564 150.704 294.648 150.433 294.816C150.172 294.984 150.041 295.19 150.041 295.432C150.041 295.824 150.41 296.104 151.147 296.272L152.183 296.538C153.546 296.874 154.227 297.56 154.227 298.596ZM168.141 293.64L165.929 300.5H164.613L162.905 295.236L161.211 300.5H159.909L157.697 293.64H159.041L160.567 298.82H160.581L162.275 293.64H163.605L165.299 298.82H165.313L166.825 293.64H168.141ZM170.645 291.274C170.645 291.526 170.557 291.741 170.379 291.918C170.202 292.096 169.987 292.184 169.735 292.184C169.483 292.184 169.269 292.096 169.091 291.918C168.914 291.741 168.825 291.526 168.825 291.274C168.825 291.022 168.914 290.808 169.091 290.63C169.269 290.453 169.483 290.364 169.735 290.364C169.987 290.364 170.202 290.453 170.379 290.63C170.557 290.808 170.645 291.022 170.645 291.274ZM170.379 293.64V300.5H169.091V293.64H170.379ZM173.343 290.476V300.5H172.055V290.476H173.343ZM176.201 290.476V300.5H174.913V290.476H176.201ZM181.785 298.4C181.785 298.736 181.925 299.016 182.205 299.24C182.494 299.464 182.83 299.576 183.213 299.576C183.754 299.576 184.235 299.376 184.655 298.974C185.084 298.573 185.299 298.102 185.299 297.56C184.897 297.243 184.337 297.084 183.619 297.084C183.096 297.084 182.657 297.21 182.303 297.462C181.957 297.714 181.785 298.027 181.785 298.4ZM183.451 293.416C184.403 293.416 185.154 293.673 185.705 294.186C186.255 294.69 186.531 295.386 186.531 296.272V300.5H185.299V299.548H185.243C184.711 300.332 184.001 300.724 183.115 300.724C182.359 300.724 181.724 300.5 181.211 300.052C180.707 299.604 180.455 299.044 180.455 298.372C180.455 297.663 180.721 297.098 181.253 296.678C181.794 296.258 182.513 296.048 183.409 296.048C184.174 296.048 184.804 296.188 185.299 296.468V296.174C185.299 295.726 185.121 295.348 184.767 295.04C184.412 294.723 183.997 294.564 183.521 294.564C182.802 294.564 182.233 294.868 181.812 295.474L180.679 294.76C181.304 293.864 182.228 293.416 183.451 293.416ZM191.343 299.548C191.959 299.548 192.477 299.315 192.897 298.848C193.317 298.391 193.527 297.798 193.527 297.07C193.527 296.352 193.317 295.759 192.897 295.292C192.477 294.826 191.959 294.592 191.343 294.592C190.718 294.592 190.195 294.826 189.775 295.292C189.365 295.759 189.159 296.352 189.159 297.07C189.159 297.798 189.365 298.396 189.775 298.862C190.195 299.32 190.718 299.548 191.343 299.548ZM191.553 300.724C191.049 300.724 190.587 300.617 190.167 300.402C189.757 300.188 189.439 299.903 189.215 299.548H189.159L189.215 300.5V303.524H187.927V293.64H189.159V294.592H189.215C189.439 294.238 189.757 293.953 190.167 293.738C190.587 293.524 191.049 293.416 191.553 293.416C192.459 293.416 193.224 293.771 193.849 294.48C194.493 295.199 194.815 296.062 194.815 297.07C194.815 298.088 194.493 298.951 193.849 299.66C193.224 300.37 192.459 300.724 191.553 300.724ZM199.218 299.548C199.834 299.548 200.352 299.315 200.772 298.848C201.192 298.391 201.402 297.798 201.402 297.07C201.402 296.352 201.192 295.759 200.772 295.292C200.352 294.826 199.834 294.592 199.218 294.592C198.593 294.592 198.07 294.826 197.65 295.292C197.24 295.759 197.034 296.352 197.034 297.07C197.034 297.798 197.24 298.396 197.65 298.862C198.07 299.32 198.593 299.548 199.218 299.548ZM199.428 300.724C198.924 300.724 198.462 300.617 198.042 300.402C197.632 300.188 197.314 299.903 197.09 299.548H197.034L197.09 300.5V303.524H195.802V293.64H197.034V294.592H197.09C197.314 294.238 197.632 293.953 198.042 293.738C198.462 293.524 198.924 293.416 199.428 293.416C200.334 293.416 201.099 293.771 201.724 294.48C202.368 295.199 202.69 296.062 202.69 297.07C202.69 298.088 202.368 298.951 201.724 299.66C201.099 300.37 200.334 300.724 199.428 300.724ZM206.95 300.724C205.942 300.724 205.111 300.379 204.458 299.688C203.805 298.998 203.478 298.125 203.478 297.07C203.478 296.025 203.795 295.157 204.43 294.466C205.065 293.766 205.877 293.416 206.866 293.416C207.883 293.416 208.691 293.748 209.288 294.41C209.895 295.064 210.198 295.983 210.198 297.168L210.184 297.308H204.794C204.813 297.98 205.037 298.522 205.466 298.932C205.895 299.343 206.409 299.548 207.006 299.548C207.827 299.548 208.471 299.138 208.938 298.316L210.086 298.876C209.778 299.455 209.349 299.908 208.798 300.234C208.257 300.561 207.641 300.724 206.95 300.724ZM204.892 296.244H208.826C208.789 295.768 208.593 295.376 208.238 295.068C207.893 294.751 207.426 294.592 206.838 294.592C206.353 294.592 205.933 294.742 205.578 295.04C205.233 295.339 205.004 295.74 204.892 296.244ZM212.382 298.4C212.382 298.736 212.522 299.016 212.802 299.24C213.091 299.464 213.427 299.576 213.81 299.576C214.351 299.576 214.832 299.376 215.252 298.974C215.681 298.573 215.896 298.102 215.896 297.56C215.495 297.243 214.935 297.084 214.216 297.084C213.693 297.084 213.255 297.21 212.9 297.462C212.555 297.714 212.382 298.027 212.382 298.4ZM214.048 293.416C215 293.416 215.751 293.673 216.302 294.186C216.853 294.69 217.128 295.386 217.128 296.272V300.5H215.896V299.548H215.84C215.308 300.332 214.599 300.724 213.712 300.724C212.956 300.724 212.321 300.5 211.808 300.052C211.304 299.604 211.052 299.044 211.052 298.372C211.052 297.663 211.318 297.098 211.85 296.678C212.391 296.258 213.11 296.048 214.006 296.048C214.771 296.048 215.401 296.188 215.896 296.468V296.174C215.896 295.726 215.719 295.348 215.364 295.04C215.009 294.723 214.594 294.564 214.118 294.564C213.399 294.564 212.83 294.868 212.41 295.474L211.276 294.76C211.901 293.864 212.825 293.416 214.048 293.416ZM219.869 300.5H218.581V293.64H219.813V294.76H219.869C220 294.396 220.266 294.088 220.667 293.836C221.078 293.575 221.479 293.444 221.871 293.444C222.244 293.444 222.562 293.5 222.823 293.612L222.431 294.858C222.272 294.793 222.02 294.76 221.675 294.76C221.19 294.76 220.765 294.956 220.401 295.348C220.046 295.74 219.869 296.198 219.869 296.72V300.5ZM226.743 290.476H228.031V293.64L227.975 294.592H228.031C228.227 294.256 228.526 293.976 228.927 293.752C229.338 293.528 229.762 293.416 230.201 293.416C231.041 293.416 231.685 293.659 232.133 294.144C232.59 294.62 232.819 295.302 232.819 296.188V300.5H231.531V296.44C231.531 295.208 230.985 294.592 229.893 294.592C229.37 294.592 228.927 294.812 228.563 295.25C228.208 295.68 228.031 296.184 228.031 296.762V300.5H226.743V290.476ZM237.411 300.724C236.403 300.724 235.572 300.379 234.919 299.688C234.266 298.998 233.939 298.125 233.939 297.07C233.939 296.025 234.256 295.157 234.891 294.466C235.526 293.766 236.338 293.416 237.327 293.416C238.344 293.416 239.152 293.748 239.749 294.41C240.356 295.064 240.659 295.983 240.659 297.168L240.645 297.308H235.255C235.274 297.98 235.498 298.522 235.927 298.932C236.356 299.343 236.87 299.548 237.467 299.548C238.288 299.548 238.932 299.138 239.399 298.316L240.547 298.876C240.239 299.455 239.81 299.908 239.259 300.234C238.718 300.561 238.102 300.724 237.411 300.724ZM235.353 296.244H239.287C239.25 295.768 239.054 295.376 238.699 295.068C238.354 294.751 237.887 294.592 237.299 294.592C236.814 294.592 236.394 294.742 236.039 295.04C235.694 295.339 235.465 295.74 235.353 296.244ZM243.125 300.5H241.837V293.64H243.069V294.76H243.125C243.255 294.396 243.521 294.088 243.923 293.836C244.333 293.575 244.735 293.444 245.127 293.444C245.5 293.444 245.817 293.5 246.079 293.612L245.687 294.858C245.528 294.793 245.276 294.76 244.931 294.76C244.445 294.76 244.021 294.956 243.657 295.348C243.302 295.74 243.125 296.198 243.125 296.72V300.5ZM249.579 300.724C248.571 300.724 247.74 300.379 247.087 299.688C246.434 298.998 246.107 298.125 246.107 297.07C246.107 296.025 246.424 295.157 247.059 294.466C247.694 293.766 248.506 293.416 249.495 293.416C250.512 293.416 251.32 293.748 251.917 294.41C252.524 295.064 252.827 295.983 252.827 297.168L252.813 297.308H247.423C247.442 297.98 247.666 298.522 248.095 298.932C248.524 299.343 249.038 299.548 249.635 299.548C250.456 299.548 251.1 299.138 251.567 298.316L252.715 298.876C252.407 299.455 251.978 299.908 251.427 300.234C250.886 300.561 250.27 300.724 249.579 300.724ZM247.521 296.244H251.455C251.418 295.768 251.222 295.376 250.867 295.068C250.522 294.751 250.055 294.592 249.467 294.592C248.982 294.592 248.562 294.742 248.207 295.04C247.862 295.339 247.633 295.74 247.521 296.244ZM255.797 299.632C255.797 299.894 255.703 300.118 255.517 300.304C255.339 300.491 255.115 300.584 254.845 300.584C254.583 300.584 254.359 300.491 254.173 300.304C253.986 300.118 253.893 299.894 253.893 299.632C253.893 299.362 253.986 299.138 254.173 298.96C254.359 298.774 254.583 298.68 254.845 298.68C255.115 298.68 255.339 298.774 255.517 298.96C255.703 299.138 255.797 299.362 255.797 299.632Z" fill="#555555"/>
<path d="M10 9H337H10ZM337 304.501C337 319.965 324.464 332.501 309 332.501H38C22.536 332.501 10 319.965 10 304.501C10 315.546 20.7452 324.501 34 324.501H313C326.255 324.501 337 315.546 337 304.501ZM10 328.501V9V328.501ZM337 9V328.501V9Z" fill="#E0E0E0" mask="url(#path-1-inside-1_4485_12352)"/>
</g>
<defs>
<filter id="filter0_dd_4485_12352" x="0" y="0" width="347" height="339.5" filterUnits="userSpaceOnUse" color-interpolation-filters="sRGB">
<feFlood flood-opacity="0" result="BackgroundImageFix"/>
<feColorMatrix in="SourceAlpha" type="matrix" values="0 0 0 0 0 0 0 0 0 0 0 0 0 0 0 0 0 0 127 0" result="hardAlpha"/>
<feMorphology radius="2" operator="dilate" in="SourceAlpha" result="effect1_dropShadow_4485_12352"/>
<feOffset dy="1"/>
<feGaussianBlur stdDeviation="4"/>
<feColorMatrix type="matrix" values="0 0 0 0 0.0784314 0 0 0 0 0.0784314 0 0 0 0 0.0784314 0 0 0 0.08 0"/>
<feBlend mode="normal" in2="BackgroundImageFix" result="effect1_dropShadow_4485_12352"/>
<feColorMatrix in="SourceAlpha" type="matrix" values="0 0 0 0 0 0 0 0 0 0 0 0 0 0 0 0 0 0 127 0" result="hardAlpha"/>
<feOffset/>
<feGaussianBlur stdDeviation="0.5"/>
<feColorMatrix type="matrix" values="0 0 0 0 0.0784314 0 0 0 0 0.0784314 0 0 0 0 0.0784314 0 0 0 0.08 0"/>
<feBlend mode="normal" in2="effect1_dropShadow_4485_12352" result="effect2_dropShadow_4485_12352"/>
<feBlend mode="normal" in="SourceGraphic" in2="effect2_dropShadow_4485_12352" result="shape"/>
</filter>
<filter id="filter1_d_4485_12352" x="66.8892" y="100.439" width="124.38" height="116.346" filterUnits="userSpaceOnUse" color-interpolation-filters="sRGB">
<feFlood flood-opacity="0" result="BackgroundImageFix"/>
<feColorMatrix in="SourceAlpha" type="matrix" values="0 0 0 0 0 0 0 0 0 0 0 0 0 0 0 0 0 0 127 0" result="hardAlpha"/>
<feOffset dy="4"/>
<feComposite in2="hardAlpha" operator="out"/>
<feColorMatrix type="matrix" values="0 0 0 0 0 0 0 0 0 0.407843 0 0 0 0 0.882353 0 0 0 0.16 0"/>
<feBlend mode="normal" in2="BackgroundImageFix" result="effect1_dropShadow_4485_12352"/>
<feBlend mode="normal" in="SourceGraphic" in2="effect1_dropShadow_4485_12352" result="shape"/>
</filter>
</defs>
</svg>
