<svg width="347" height="313" viewBox="0 0 347 313" fill="none" xmlns="http://www.w3.org/2000/svg">
<g filter="url(#filter0_dd_4485_12871)">
<mask id="path-1-inside-1_4485_12871" fill="white">
<path d="M10 33C10 19.7452 20.7452 9 34 9H313C326.255 9 337 19.7452 337 33V278C337 291.255 326.255 302 313 302H34C20.7452 302 10 291.255 10 278V33Z"/>
</mask>
<path d="M10 33C10 19.7452 20.7452 9 34 9H313C326.255 9 337 19.7452 337 33V278C337 291.255 326.255 302 313 302H34C20.7452 302 10 291.255 10 278V33Z" fill="white"/>
<path d="M251.5 111C251.5 121.243 249.482 131.386 245.563 140.849C241.643 150.313 235.897 158.911 228.654 166.154C221.411 173.397 212.813 179.143 203.349 183.063C193.886 186.982 183.743 189 173.5 189C163.257 189 153.114 186.982 143.651 183.063C134.187 179.143 125.589 173.397 118.346 166.154C111.103 158.911 105.357 150.313 101.437 140.849C97.5175 131.386 95.5 121.243 95.5 111L173.5 111H251.5Z" fill="#1B80F5"/>
<circle cx="173.5" cy="111" r="70.7899" fill="#1B80F5" fill-opacity="0.4"/>
<path fill-rule="evenodd" clip-rule="evenodd" d="M139.105 101.85L129.052 84.5075C128.279 83.1741 129.241 81.5044 130.782 81.5044H157.927C158.392 81.5044 158.797 81.6517 159.119 81.8917C160.52 81.6373 161.963 81.5044 163.437 81.5044H192.126C205.381 81.5044 216.126 92.2496 216.126 105.504V120.429C216.126 133.684 205.381 144.429 192.126 144.429H163.437C150.182 144.429 139.437 133.684 139.437 120.429V105.504C139.437 104.468 139.503 103.446 139.63 102.444C139.425 102.289 139.245 102.091 139.105 101.85Z" fill="#005ECB"/>
<path fill-rule="evenodd" clip-rule="evenodd" d="M141.727 97.9171L131.674 80.5746C130.901 79.2413 131.863 77.5715 133.404 77.5715H160.549C161.014 77.5715 161.419 77.7188 161.741 77.9589C163.142 77.7044 164.585 77.5715 166.059 77.5715H194.748C208.003 77.5715 218.748 88.3167 218.748 101.572V116.496C218.748 129.751 208.003 140.496 194.748 140.496H166.059C152.804 140.496 142.059 129.751 142.059 116.496V101.572C142.059 100.535 142.124 99.5136 142.252 98.5116C142.046 98.3566 141.867 98.1578 141.727 97.9171Z" fill="white"/>
<path d="M152.546 95.9246H205.966" stroke="#1B80F5" stroke-opacity="0.4" stroke-width="8" stroke-linecap="round"/>
<path d="M153.202 109.034H206.622" stroke="#1B80F5" stroke-opacity="0.4" stroke-width="8" stroke-linecap="round"/>
<path d="M153.202 122.143H191.218" stroke="#1B80F5" stroke-opacity="0.4" stroke-width="8" stroke-linecap="round"/>
<path d="M53.228 223.816H56.468L64.1 236.272H64.244L64.1 232.96V223.816H66.788V241H63.956L55.94 227.92H55.796L55.94 231.232V241H53.228V223.816ZM75.3316 228.856C76.2276 228.856 77.0516 229.016 77.8036 229.336C78.5556 229.64 79.2036 230.072 79.7476 230.632C80.2916 231.192 80.7156 231.856 81.0196 232.624C81.3236 233.392 81.4756 234.224 81.4756 235.12C81.4756 236.016 81.3236 236.848 81.0196 237.616C80.7156 238.384 80.2916 239.048 79.7476 239.608C79.2036 240.168 78.5556 240.608 77.8036 240.928C77.0516 241.232 76.2276 241.384 75.3316 241.384C74.4356 241.384 73.6116 241.232 72.8596 240.928C72.1076 240.608 71.4596 240.168 70.9156 239.608C70.3716 239.048 69.9476 238.384 69.6436 237.616C69.3396 236.848 69.1876 236.016 69.1876 235.12C69.1876 234.224 69.3396 233.392 69.6436 232.624C69.9476 231.856 70.3716 231.192 70.9156 230.632C71.4596 230.072 72.1076 229.64 72.8596 229.336C73.6116 229.016 74.4356 228.856 75.3316 228.856ZM75.3316 238.912C75.7796 238.912 76.2116 238.824 76.6276 238.648C77.0436 238.472 77.4116 238.224 77.7316 237.904C78.0676 237.584 78.3316 237.192 78.5236 236.728C78.7156 236.248 78.8116 235.712 78.8116 235.12C78.8116 234.528 78.7156 234 78.5236 233.536C78.3316 233.056 78.0676 232.656 77.7316 232.336C77.4116 232.016 77.0436 231.768 76.6276 231.592C76.2116 231.416 75.7796 231.328 75.3316 231.328C74.8836 231.328 74.4516 231.416 74.0356 231.592C73.6196 231.768 73.2436 232.016 72.9076 232.336C72.5876 232.656 72.3316 233.056 72.1396 233.536C71.9476 234 71.8516 234.528 71.8516 235.12C71.8516 235.712 71.9476 236.248 72.1396 236.728C72.3316 237.192 72.5876 237.584 72.9076 237.904C73.2436 238.224 73.6196 238.472 74.0356 238.648C74.4516 238.824 74.8836 238.912 75.3316 238.912ZM89.1577 223.816H91.8697L97.4857 233.584H97.6297L103.246 223.816H105.934V241H103.246V231.664L103.39 228.784H103.246L98.3497 237.352H96.7417L91.8697 228.784H91.7257L91.8697 231.664V241H89.1577V223.816ZM119.896 238.192C119.4 239.104 118.696 239.864 117.784 240.472C116.872 241.08 115.752 241.384 114.424 241.384C113.544 241.384 112.728 241.232 111.976 240.928C111.24 240.608 110.6 240.168 110.056 239.608C109.512 239.048 109.088 238.392 108.784 237.64C108.48 236.872 108.328 236.032 108.328 235.12C108.328 234.272 108.472 233.472 108.76 232.72C109.048 231.952 109.448 231.288 109.96 230.728C110.488 230.152 111.12 229.696 111.856 229.36C112.592 229.024 113.408 228.856 114.304 228.856C115.216 228.856 116.024 229.008 116.728 229.312C117.448 229.616 118.056 230.04 118.552 230.584C119.048 231.128 119.424 231.784 119.68 232.552C119.952 233.32 120.088 234.16 120.088 235.072C120.088 235.152 120.088 235.224 120.088 235.288C120.072 235.368 120.064 235.44 120.064 235.504C120.048 235.568 120.04 235.632 120.04 235.696H110.992C111.04 236.256 111.176 236.744 111.4 237.16C111.624 237.576 111.896 237.92 112.216 238.192C112.552 238.464 112.92 238.664 113.32 238.792C113.72 238.92 114.112 238.984 114.496 238.984C115.264 238.984 115.896 238.8 116.392 238.432C116.888 238.064 117.296 237.608 117.616 237.064L119.896 238.192ZM117.424 233.656C117.392 233.416 117.312 233.152 117.184 232.864C117.072 232.56 116.888 232.288 116.632 232.048C116.392 231.792 116.072 231.576 115.672 231.4C115.288 231.224 114.816 231.136 114.256 231.136C113.488 231.136 112.824 231.368 112.264 231.832C111.72 232.28 111.352 232.888 111.16 233.656H117.424ZM126.683 241.384C125.963 241.384 125.315 241.288 124.739 241.096C124.163 240.904 123.659 240.656 123.227 240.352C122.795 240.032 122.427 239.672 122.123 239.272C121.835 238.872 121.611 238.456 121.451 238.024L123.851 237.016C124.123 237.704 124.515 238.216 125.027 238.552C125.539 238.872 126.091 239.032 126.683 239.032C127.355 239.032 127.883 238.896 128.267 238.624C128.651 238.352 128.843 238.048 128.843 237.712C128.843 237.376 128.699 237.088 128.411 236.848C128.123 236.592 127.579 236.368 126.779 236.176L125.099 235.768C124.731 235.688 124.355 235.568 123.971 235.408C123.603 235.232 123.259 235.016 122.939 234.76C122.619 234.488 122.355 234.168 122.147 233.8C121.955 233.416 121.859 232.968 121.859 232.456C121.859 231.88 121.979 231.368 122.219 230.92C122.475 230.472 122.819 230.096 123.251 229.792C123.683 229.488 124.179 229.256 124.739 229.096C125.315 228.936 125.923 228.856 126.563 228.856C127.091 228.856 127.595 228.912 128.075 229.024C128.571 229.136 129.027 229.304 129.443 229.528C129.859 229.752 130.227 230.04 130.547 230.392C130.883 230.728 131.147 231.128 131.339 231.592L128.987 232.576C128.763 232.064 128.411 231.696 127.931 231.472C127.451 231.232 126.963 231.112 126.467 231.112C126.243 231.112 126.011 231.144 125.771 231.208C125.547 231.256 125.339 231.336 125.147 231.448C124.971 231.544 124.819 231.672 124.691 231.832C124.579 231.992 124.523 232.168 124.523 232.36C124.523 232.68 124.659 232.936 124.931 233.128C125.219 233.304 125.651 233.464 126.227 233.608L128.027 234.064C129.243 234.368 130.131 234.832 130.691 235.456C131.267 236.064 131.555 236.784 131.555 237.616C131.555 238.128 131.435 238.608 131.195 239.056C130.971 239.504 130.643 239.904 130.211 240.256C129.779 240.608 129.259 240.88 128.651 241.072C128.059 241.28 127.403 241.384 126.683 241.384ZM137.933 241.384C137.213 241.384 136.565 241.288 135.989 241.096C135.413 240.904 134.909 240.656 134.477 240.352C134.045 240.032 133.677 239.672 133.373 239.272C133.085 238.872 132.861 238.456 132.701 238.024L135.101 237.016C135.373 237.704 135.765 238.216 136.277 238.552C136.789 238.872 137.341 239.032 137.933 239.032C138.605 239.032 139.133 238.896 139.517 238.624C139.901 238.352 140.093 238.048 140.093 237.712C140.093 237.376 139.949 237.088 139.661 236.848C139.373 236.592 138.829 236.368 138.029 236.176L136.349 235.768C135.981 235.688 135.605 235.568 135.221 235.408C134.853 235.232 134.509 235.016 134.189 234.76C133.869 234.488 133.605 234.168 133.397 233.8C133.205 233.416 133.109 232.968 133.109 232.456C133.109 231.88 133.229 231.368 133.469 230.92C133.725 230.472 134.069 230.096 134.501 229.792C134.933 229.488 135.429 229.256 135.989 229.096C136.565 228.936 137.173 228.856 137.813 228.856C138.341 228.856 138.845 228.912 139.325 229.024C139.821 229.136 140.277 229.304 140.693 229.528C141.109 229.752 141.477 230.04 141.797 230.392C142.133 230.728 142.397 231.128 142.589 231.592L140.237 232.576C140.013 232.064 139.661 231.696 139.181 231.472C138.701 231.232 138.213 231.112 137.717 231.112C137.493 231.112 137.261 231.144 137.021 231.208C136.797 231.256 136.589 231.336 136.397 231.448C136.221 231.544 136.069 231.672 135.941 231.832C135.829 231.992 135.773 232.168 135.773 232.36C135.773 232.68 135.909 232.936 136.181 233.128C136.469 233.304 136.901 233.464 137.477 233.608L139.277 234.064C140.493 234.368 141.381 234.832 141.941 235.456C142.517 236.064 142.805 236.784 142.805 237.616C142.805 238.128 142.685 238.608 142.445 239.056C142.221 239.504 141.893 239.904 141.461 240.256C141.029 240.608 140.509 240.88 139.901 241.072C139.309 241.28 138.653 241.384 137.933 241.384ZM152.276 239.56H152.132C151.78 240.024 151.324 240.448 150.764 240.832C150.204 241.2 149.492 241.384 148.628 241.384C148.004 241.384 147.42 241.28 146.876 241.072C146.332 240.88 145.86 240.608 145.46 240.256C145.06 239.888 144.74 239.464 144.5 238.984C144.276 238.488 144.164 237.944 144.164 237.352C144.164 236.728 144.284 236.168 144.524 235.672C144.78 235.176 145.124 234.76 145.556 234.424C146.004 234.088 146.532 233.832 147.14 233.656C147.748 233.464 148.404 233.368 149.108 233.368C149.892 233.368 150.548 233.448 151.076 233.608C151.604 233.752 152.004 233.888 152.276 234.016V233.56C152.276 233.208 152.196 232.88 152.036 232.576C151.892 232.272 151.684 232.016 151.412 231.808C151.156 231.584 150.86 231.416 150.524 231.304C150.188 231.176 149.836 231.112 149.468 231.112C148.876 231.112 148.34 231.232 147.86 231.472C147.396 231.696 146.98 232.064 146.612 232.576L144.5 231.184C145.06 230.416 145.756 229.84 146.588 229.456C147.42 229.056 148.364 228.856 149.42 228.856C151.164 228.856 152.508 229.288 153.452 230.152C154.412 231.016 154.892 232.248 154.892 233.848V241H152.276V239.56ZM152.276 236.104C151.924 235.896 151.532 235.728 151.1 235.6C150.668 235.472 150.172 235.408 149.612 235.408C148.78 235.408 148.116 235.6 147.62 235.984C147.124 236.368 146.876 236.832 146.876 237.376C146.876 237.664 146.94 237.92 147.068 238.144C147.196 238.352 147.356 238.536 147.548 238.696C147.756 238.856 147.988 238.976 148.244 239.056C148.516 239.136 148.788 239.176 149.06 239.176C149.492 239.176 149.9 239.096 150.284 238.936C150.684 238.76 151.028 238.536 151.316 238.264C151.604 237.976 151.836 237.648 152.012 237.28C152.188 236.912 152.276 236.52 152.276 236.104ZM162.61 246.568C161.794 246.568 161.066 246.456 160.426 246.232C159.802 246.024 159.258 245.752 158.794 245.416C158.33 245.08 157.946 244.704 157.642 244.288C157.354 243.872 157.138 243.472 156.994 243.088L159.538 242.056C159.762 242.68 160.146 243.184 160.69 243.568C161.234 243.968 161.874 244.168 162.61 244.168C163.714 244.168 164.57 243.832 165.178 243.16C165.802 242.488 166.114 241.56 166.114 240.376V239.416H165.97C165.602 239.944 165.09 240.384 164.434 240.736C163.794 241.088 163.042 241.264 162.178 241.264C161.458 241.264 160.762 241.112 160.09 240.808C159.418 240.504 158.818 240.08 158.29 239.536C157.778 238.992 157.37 238.336 157.066 237.568C156.762 236.8 156.61 235.96 156.61 235.048C156.61 234.136 156.762 233.304 157.066 232.552C157.37 231.784 157.778 231.128 158.29 230.584C158.818 230.04 159.418 229.616 160.09 229.312C160.762 229.008 161.458 228.856 162.178 228.856C163.042 228.856 163.794 229.032 164.434 229.384C165.09 229.736 165.602 230.176 165.97 230.704H166.114V229.24H168.682V240.328C168.682 241.336 168.522 242.224 168.202 242.992C167.898 243.776 167.474 244.432 166.93 244.96C166.402 245.488 165.762 245.888 165.01 246.16C164.274 246.432 163.474 246.568 162.61 246.568ZM162.706 238.792C163.138 238.792 163.562 238.712 163.978 238.552C164.394 238.392 164.754 238.152 165.058 237.832C165.378 237.512 165.634 237.12 165.826 236.656C166.018 236.192 166.114 235.656 166.114 235.048C166.114 234.456 166.018 233.928 165.826 233.464C165.634 232.984 165.378 232.592 165.058 232.288C164.754 231.968 164.394 231.728 163.978 231.568C163.562 231.392 163.138 231.304 162.706 231.304C162.258 231.304 161.826 231.392 161.41 231.568C161.01 231.728 160.65 231.968 160.33 232.288C160.01 232.608 159.754 233 159.562 233.464C159.37 233.928 159.274 234.456 159.274 235.048C159.274 235.64 159.37 236.168 159.562 236.632C159.754 237.096 160.01 237.488 160.33 237.808C160.65 238.128 161.01 238.376 161.41 238.552C161.826 238.712 162.258 238.792 162.706 238.792ZM182.146 238.192C181.65 239.104 180.946 239.864 180.034 240.472C179.122 241.08 178.002 241.384 176.674 241.384C175.794 241.384 174.978 241.232 174.226 240.928C173.49 240.608 172.85 240.168 172.306 239.608C171.762 239.048 171.338 238.392 171.034 237.64C170.73 236.872 170.578 236.032 170.578 235.12C170.578 234.272 170.722 233.472 171.01 232.72C171.298 231.952 171.698 231.288 172.21 230.728C172.738 230.152 173.37 229.696 174.106 229.36C174.842 229.024 175.658 228.856 176.554 228.856C177.466 228.856 178.274 229.008 178.978 229.312C179.698 229.616 180.306 230.04 180.802 230.584C181.298 231.128 181.674 231.784 181.93 232.552C182.202 233.32 182.338 234.16 182.338 235.072C182.338 235.152 182.338 235.224 182.338 235.288C182.322 235.368 182.314 235.44 182.314 235.504C182.298 235.568 182.29 235.632 182.29 235.696H173.242C173.29 236.256 173.426 236.744 173.65 237.16C173.874 237.576 174.146 237.92 174.466 238.192C174.802 238.464 175.17 238.664 175.57 238.792C175.97 238.92 176.362 238.984 176.746 238.984C177.514 238.984 178.146 238.8 178.642 238.432C179.138 238.064 179.546 237.608 179.866 237.064L182.146 238.192ZM179.674 233.656C179.642 233.416 179.562 233.152 179.434 232.864C179.322 232.56 179.138 232.288 178.882 232.048C178.642 231.792 178.322 231.576 177.922 231.4C177.538 231.224 177.066 231.136 176.506 231.136C175.738 231.136 175.074 231.368 174.514 231.832C173.97 232.28 173.602 232.888 173.41 233.656H179.674ZM188.933 241.384C188.213 241.384 187.565 241.288 186.989 241.096C186.413 240.904 185.909 240.656 185.477 240.352C185.045 240.032 184.677 239.672 184.373 239.272C184.085 238.872 183.861 238.456 183.701 238.024L186.101 237.016C186.373 237.704 186.765 238.216 187.277 238.552C187.789 238.872 188.341 239.032 188.933 239.032C189.605 239.032 190.133 238.896 190.517 238.624C190.901 238.352 191.093 238.048 191.093 237.712C191.093 237.376 190.949 237.088 190.661 236.848C190.373 236.592 189.829 236.368 189.029 236.176L187.349 235.768C186.981 235.688 186.605 235.568 186.221 235.408C185.853 235.232 185.509 235.016 185.189 234.76C184.869 234.488 184.605 234.168 184.397 233.8C184.205 233.416 184.109 232.968 184.109 232.456C184.109 231.88 184.229 231.368 184.469 230.92C184.725 230.472 185.069 230.096 185.501 229.792C185.933 229.488 186.429 229.256 186.989 229.096C187.565 228.936 188.173 228.856 188.813 228.856C189.341 228.856 189.845 228.912 190.325 229.024C190.821 229.136 191.277 229.304 191.693 229.528C192.109 229.752 192.477 230.04 192.797 230.392C193.133 230.728 193.397 231.128 193.589 231.592L191.237 232.576C191.013 232.064 190.661 231.696 190.181 231.472C189.701 231.232 189.213 231.112 188.717 231.112C188.493 231.112 188.261 231.144 188.021 231.208C187.797 231.256 187.589 231.336 187.397 231.448C187.221 231.544 187.069 231.672 186.941 231.832C186.829 231.992 186.773 232.168 186.773 232.36C186.773 232.68 186.909 232.936 187.181 233.128C187.469 233.304 187.901 233.464 188.477 233.608L190.277 234.064C191.493 234.368 192.381 234.832 192.941 235.456C193.517 236.064 193.805 236.784 193.805 237.616C193.805 238.128 193.685 238.608 193.445 239.056C193.221 239.504 192.893 239.904 192.461 240.256C192.029 240.608 191.509 240.88 190.901 241.072C190.309 241.28 189.653 241.384 188.933 241.384ZM205.666 223.816H208.786L215.242 241H212.242L210.682 236.584H203.77L202.21 241H199.21L205.666 223.816ZM209.77 234.112L207.97 229.048L207.298 227.032H207.154L206.482 229.048L204.682 234.112H209.77ZM214.44 229.24H217.44L220.608 237.544H220.728L223.968 229.24H226.896L221.976 241H219.312L214.44 229.24ZM235.55 239.56H235.406C235.054 240.024 234.598 240.448 234.038 240.832C233.478 241.2 232.766 241.384 231.902 241.384C231.278 241.384 230.694 241.28 230.15 241.072C229.606 240.88 229.134 240.608 228.734 240.256C228.334 239.888 228.014 239.464 227.774 238.984C227.55 238.488 227.438 237.944 227.438 237.352C227.438 236.728 227.558 236.168 227.798 235.672C228.054 235.176 228.398 234.76 228.83 234.424C229.278 234.088 229.806 233.832 230.414 233.656C231.022 233.464 231.678 233.368 232.382 233.368C233.166 233.368 233.822 233.448 234.35 233.608C234.878 233.752 235.278 233.888 235.55 234.016V233.56C235.55 233.208 235.47 232.88 235.31 232.576C235.166 232.272 234.958 232.016 234.686 231.808C234.43 231.584 234.134 231.416 233.798 231.304C233.462 231.176 233.11 231.112 232.742 231.112C232.15 231.112 231.614 231.232 231.134 231.472C230.67 231.696 230.254 232.064 229.886 232.576L227.774 231.184C228.334 230.416 229.03 229.84 229.862 229.456C230.694 229.056 231.638 228.856 232.694 228.856C234.438 228.856 235.782 229.288 236.726 230.152C237.686 231.016 238.166 232.248 238.166 233.848V241H235.55V239.56ZM235.55 236.104C235.198 235.896 234.806 235.728 234.374 235.6C233.942 235.472 233.446 235.408 232.886 235.408C232.054 235.408 231.39 235.6 230.894 235.984C230.398 236.368 230.15 236.832 230.15 237.376C230.15 237.664 230.214 237.92 230.342 238.144C230.47 238.352 230.63 238.536 230.822 238.696C231.03 238.856 231.262 238.976 231.518 239.056C231.79 239.136 232.062 239.176 232.334 239.176C232.766 239.176 233.174 239.096 233.558 238.936C233.958 238.76 234.302 238.536 234.59 238.264C234.878 237.976 235.11 237.648 235.286 237.28C235.462 236.912 235.55 236.52 235.55 236.104ZM242.208 227.152C241.696 227.152 241.264 226.976 240.912 226.624C240.576 226.272 240.408 225.848 240.408 225.352C240.408 224.856 240.576 224.432 240.912 224.08C241.264 223.728 241.696 223.552 242.208 223.552C242.704 223.552 243.12 223.728 243.456 224.08C243.808 224.432 243.984 224.856 243.984 225.352C243.984 225.848 243.808 226.272 243.456 226.624C243.12 226.976 242.704 227.152 242.208 227.152ZM240.864 241V229.24H243.528V241H240.864ZM246.414 241V223.816H249.078V241H246.414ZM259.081 239.56H258.937C258.585 240.024 258.129 240.448 257.569 240.832C257.009 241.2 256.297 241.384 255.433 241.384C254.809 241.384 254.225 241.28 253.681 241.072C253.137 240.88 252.665 240.608 252.265 240.256C251.865 239.888 251.545 239.464 251.305 238.984C251.081 238.488 250.969 237.944 250.969 237.352C250.969 236.728 251.089 236.168 251.329 235.672C251.585 235.176 251.929 234.76 252.361 234.424C252.809 234.088 253.337 233.832 253.945 233.656C254.553 233.464 255.209 233.368 255.913 233.368C256.697 233.368 257.353 233.448 257.881 233.608C258.409 233.752 258.809 233.888 259.081 234.016V233.56C259.081 233.208 259.001 232.88 258.841 232.576C258.697 232.272 258.489 232.016 258.217 231.808C257.961 231.584 257.665 231.416 257.329 231.304C256.993 231.176 256.641 231.112 256.273 231.112C255.681 231.112 255.145 231.232 254.665 231.472C254.201 231.696 253.785 232.064 253.417 232.576L251.305 231.184C251.865 230.416 252.561 229.84 253.393 229.456C254.225 229.056 255.169 228.856 256.225 228.856C257.969 228.856 259.313 229.288 260.257 230.152C261.217 231.016 261.697 232.248 261.697 233.848V241H259.081V239.56ZM259.081 236.104C258.729 235.896 258.337 235.728 257.905 235.6C257.473 235.472 256.977 235.408 256.417 235.408C255.585 235.408 254.921 235.6 254.425 235.984C253.929 236.368 253.681 236.832 253.681 237.376C253.681 237.664 253.745 237.92 253.873 238.144C254.001 238.352 254.161 238.536 254.353 238.696C254.561 238.856 254.793 238.976 255.049 239.056C255.321 239.136 255.593 239.176 255.865 239.176C256.297 239.176 256.705 239.096 257.089 238.936C257.489 238.76 257.833 238.536 258.121 238.264C258.409 237.976 258.641 237.648 258.817 237.28C258.993 236.912 259.081 236.52 259.081 236.104ZM264.203 223.816H266.867V229.12L266.723 230.752H266.867C267.187 230.24 267.675 229.8 268.331 229.432C268.987 229.048 269.771 228.856 270.683 228.856C271.435 228.856 272.147 229.016 272.819 229.336C273.507 229.64 274.107 230.072 274.619 230.632C275.131 231.192 275.539 231.856 275.843 232.624C276.147 233.376 276.299 234.208 276.299 235.12C276.299 236.032 276.147 236.872 275.843 237.64C275.539 238.392 275.131 239.048 274.619 239.608C274.107 240.168 273.507 240.608 272.819 240.928C272.147 241.232 271.435 241.384 270.683 241.384C269.771 241.384 268.987 241.2 268.331 240.832C267.675 240.448 267.187 240 266.867 239.488H266.723V241H264.203V223.816ZM270.179 238.912C270.627 238.912 271.059 238.824 271.475 238.648C271.907 238.472 272.275 238.224 272.579 237.904C272.899 237.568 273.155 237.168 273.347 236.704C273.539 236.24 273.635 235.712 273.635 235.12C273.635 234.528 273.539 234 273.347 233.536C273.155 233.072 272.899 232.68 272.579 232.36C272.275 232.024 271.907 231.768 271.475 231.592C271.059 231.416 270.627 231.328 270.179 231.328C269.715 231.328 269.275 231.416 268.859 231.592C268.443 231.768 268.075 232.016 267.755 232.336C267.451 232.656 267.203 233.056 267.011 233.536C266.819 234 266.723 234.528 266.723 235.12C266.723 235.712 266.819 236.248 267.011 236.728C267.203 237.192 267.451 237.584 267.755 237.904C268.075 238.224 268.443 238.472 268.859 238.648C269.275 238.824 269.715 238.912 270.179 238.912ZM278.196 241V223.816H280.86V241H278.196ZM294.318 238.192C293.822 239.104 293.118 239.864 292.206 240.472C291.294 241.08 290.174 241.384 288.846 241.384C287.966 241.384 287.15 241.232 286.398 240.928C285.662 240.608 285.022 240.168 284.478 239.608C283.934 239.048 283.51 238.392 283.206 237.64C282.902 236.872 282.75 236.032 282.75 235.12C282.75 234.272 282.894 233.472 283.182 232.72C283.47 231.952 283.87 231.288 284.382 230.728C284.91 230.152 285.542 229.696 286.278 229.36C287.014 229.024 287.83 228.856 288.726 228.856C289.638 228.856 290.446 229.008 291.15 229.312C291.87 229.616 292.478 230.04 292.974 230.584C293.47 231.128 293.846 231.784 294.102 232.552C294.374 233.32 294.51 234.16 294.51 235.072C294.51 235.152 294.51 235.224 294.51 235.288C294.494 235.368 294.486 235.44 294.486 235.504C294.47 235.568 294.462 235.632 294.462 235.696H285.414C285.462 236.256 285.598 236.744 285.822 237.16C286.046 237.576 286.318 237.92 286.638 238.192C286.974 238.464 287.342 238.664 287.742 238.792C288.142 238.92 288.534 238.984 288.918 238.984C289.686 238.984 290.318 238.8 290.814 238.432C291.31 238.064 291.718 237.608 292.038 237.064L294.318 238.192ZM291.846 233.656C291.814 233.416 291.734 233.152 291.606 232.864C291.494 232.56 291.31 232.288 291.054 232.048C290.814 231.792 290.494 231.576 290.094 231.4C289.71 231.224 289.238 231.136 288.678 231.136C287.91 231.136 287.246 231.368 286.686 231.832C286.142 232.28 285.774 232.888 285.582 233.656H291.846Z" fill="#151415"/>
<path d="M95.9933 274H94.7053V263.976H96.2733L101.145 271.774H101.201L101.145 269.842V263.976H102.433V274H101.089L95.9933 265.824H95.9373L95.9933 267.756V274ZM107.309 274.224C106.301 274.224 105.471 273.879 104.817 273.188C104.164 272.497 103.837 271.625 103.837 270.57C103.837 269.525 104.155 268.657 104.789 267.966C105.424 267.266 106.236 266.916 107.225 266.916C108.243 266.916 109.05 267.247 109.647 267.91C110.254 268.563 110.557 269.483 110.557 270.668L110.543 270.808H105.153C105.172 271.48 105.396 272.021 105.825 272.432C106.255 272.843 106.768 273.048 107.365 273.048C108.187 273.048 108.831 272.637 109.297 271.816L110.445 272.376C110.137 272.955 109.708 273.407 109.157 273.734C108.616 274.061 108 274.224 107.309 274.224ZM105.251 269.744H109.185C109.148 269.268 108.952 268.876 108.597 268.568C108.252 268.251 107.785 268.092 107.197 268.092C106.712 268.092 106.292 268.241 105.937 268.54C105.592 268.839 105.363 269.24 105.251 269.744ZM121.314 267.14L119.102 274H117.786L116.078 268.736L114.384 274H113.082L110.87 267.14H112.214L113.74 272.32H113.754L115.448 267.14H116.778L118.472 272.32H118.486L119.998 267.14H121.314ZM128.309 273.048C128.944 273.048 129.462 272.819 129.863 272.362C130.283 271.905 130.493 271.307 130.493 270.57C130.493 269.851 130.283 269.259 129.863 268.792C129.453 268.325 128.935 268.092 128.309 268.092C127.693 268.092 127.175 268.325 126.755 268.792C126.335 269.259 126.125 269.851 126.125 270.57C126.125 271.298 126.335 271.891 126.755 272.348C127.175 272.815 127.693 273.048 128.309 273.048ZM128.099 274.224C127.203 274.224 126.433 273.869 125.789 273.16C125.155 272.441 124.837 271.578 124.837 270.57C124.837 269.562 125.155 268.699 125.789 267.98C126.433 267.271 127.203 266.916 128.099 266.916C128.603 266.916 129.061 267.023 129.471 267.238C129.891 267.453 130.213 267.737 130.437 268.092H130.493L130.437 267.14V263.976H131.725V274H130.493V273.048H130.437C130.213 273.403 129.891 273.687 129.471 273.902C129.061 274.117 128.603 274.224 128.099 274.224ZM134.165 271.9C134.165 272.236 134.305 272.516 134.585 272.74C134.875 272.964 135.211 273.076 135.593 273.076C136.135 273.076 136.615 272.875 137.035 272.474C137.465 272.073 137.679 271.601 137.679 271.06C137.278 270.743 136.718 270.584 135.999 270.584C135.477 270.584 135.038 270.71 134.683 270.962C134.338 271.214 134.165 271.527 134.165 271.9ZM135.831 266.916C136.783 266.916 137.535 267.173 138.085 267.686C138.636 268.19 138.911 268.885 138.911 269.772V274H137.679V273.048H137.623C137.091 273.832 136.382 274.224 135.495 274.224C134.739 274.224 134.105 274 133.591 273.552C133.087 273.104 132.835 272.544 132.835 271.872C132.835 271.163 133.101 270.598 133.633 270.178C134.175 269.758 134.893 269.548 135.789 269.548C136.555 269.548 137.185 269.688 137.679 269.968V269.674C137.679 269.226 137.502 268.848 137.147 268.54C136.793 268.223 136.377 268.064 135.901 268.064C135.183 268.064 134.613 268.367 134.193 268.974L133.059 268.26C133.685 267.364 134.609 266.916 135.831 266.916ZM142.943 274.112C142.383 274.112 141.917 273.939 141.543 273.594C141.179 273.249 140.993 272.768 140.983 272.152V268.316H139.779V267.14H140.983V265.04H142.271V267.14H143.951V268.316H142.271V271.732C142.271 272.189 142.36 272.502 142.537 272.67C142.715 272.829 142.915 272.908 143.139 272.908C143.242 272.908 143.34 272.899 143.433 272.88C143.536 272.852 143.629 272.819 143.713 272.782L144.119 273.93C143.783 274.051 143.391 274.112 142.943 274.112ZM145.978 271.9C145.978 272.236 146.118 272.516 146.398 272.74C146.687 272.964 147.023 273.076 147.406 273.076C147.947 273.076 148.428 272.875 148.848 272.474C149.277 272.073 149.492 271.601 149.492 271.06C149.091 270.743 148.531 270.584 147.812 270.584C147.289 270.584 146.851 270.71 146.496 270.962C146.151 271.214 145.978 271.527 145.978 271.9ZM147.644 266.916C148.596 266.916 149.347 267.173 149.898 267.686C150.449 268.19 150.724 268.885 150.724 269.772V274H149.492V273.048H149.436C148.904 273.832 148.195 274.224 147.308 274.224C146.552 274.224 145.917 274 145.404 273.552C144.9 273.104 144.648 272.544 144.648 271.872C144.648 271.163 144.914 270.598 145.446 270.178C145.987 269.758 146.706 269.548 147.602 269.548C148.367 269.548 148.997 269.688 149.492 269.968V269.674C149.492 269.226 149.315 268.848 148.96 268.54C148.605 268.223 148.19 268.064 147.714 268.064C146.995 268.064 146.426 268.367 146.006 268.974L144.872 268.26C145.497 267.364 146.421 266.916 147.644 266.916ZM164.969 267.14L162.757 274H161.441L159.733 268.736L158.039 274H156.737L154.525 267.14H155.869L157.395 272.32H157.409L159.103 267.14H160.433L162.127 272.32H162.141L163.653 267.14H164.969ZM167.473 264.774C167.473 265.026 167.385 265.241 167.207 265.418C167.03 265.595 166.815 265.684 166.563 265.684C166.311 265.684 166.097 265.595 165.919 265.418C165.742 265.241 165.653 265.026 165.653 264.774C165.653 264.522 165.742 264.307 165.919 264.13C166.097 263.953 166.311 263.864 166.563 263.864C166.815 263.864 167.03 263.953 167.207 264.13C167.385 264.307 167.473 264.522 167.473 264.774ZM167.207 267.14V274H165.919V267.14H167.207ZM170.172 263.976V274H168.884V263.976H170.172ZM173.029 263.976V274H171.741V263.976H173.029ZM178.613 271.9C178.613 272.236 178.753 272.516 179.033 272.74C179.322 272.964 179.658 273.076 180.041 273.076C180.582 273.076 181.063 272.875 181.483 272.474C181.912 272.073 182.127 271.601 182.127 271.06C181.725 270.743 181.165 270.584 180.447 270.584C179.924 270.584 179.485 270.71 179.131 270.962C178.785 271.214 178.613 271.527 178.613 271.9ZM180.279 266.916C181.231 266.916 181.982 267.173 182.533 267.686C183.083 268.19 183.359 268.885 183.359 269.772V274H182.127V273.048H182.071C181.539 273.832 180.829 274.224 179.943 274.224C179.187 274.224 178.552 274 178.039 273.552C177.535 273.104 177.283 272.544 177.283 271.872C177.283 271.163 177.549 270.598 178.081 270.178C178.622 269.758 179.341 269.548 180.237 269.548C181.002 269.548 181.632 269.688 182.127 269.968V269.674C182.127 269.226 181.949 268.848 181.595 268.54C181.24 268.223 180.825 268.064 180.349 268.064C179.63 268.064 179.061 268.367 178.641 268.974L177.507 268.26C178.132 267.364 179.056 266.916 180.279 266.916ZM188.171 273.048C188.787 273.048 189.305 272.815 189.725 272.348C190.145 271.891 190.355 271.298 190.355 270.57C190.355 269.851 190.145 269.259 189.725 268.792C189.305 268.325 188.787 268.092 188.171 268.092C187.546 268.092 187.023 268.325 186.603 268.792C186.193 269.259 185.987 269.851 185.987 270.57C185.987 271.298 186.193 271.895 186.603 272.362C187.023 272.819 187.546 273.048 188.171 273.048ZM188.381 274.224C187.877 274.224 187.415 274.117 186.995 273.902C186.585 273.687 186.267 273.403 186.043 273.048H185.987L186.043 274V277.024H184.755V267.14H185.987V268.092H186.043C186.267 267.737 186.585 267.453 186.995 267.238C187.415 267.023 187.877 266.916 188.381 266.916C189.287 266.916 190.052 267.271 190.677 267.98C191.321 268.699 191.643 269.562 191.643 270.57C191.643 271.587 191.321 272.451 190.677 273.16C190.052 273.869 189.287 274.224 188.381 274.224ZM196.046 273.048C196.662 273.048 197.18 272.815 197.6 272.348C198.02 271.891 198.23 271.298 198.23 270.57C198.23 269.851 198.02 269.259 197.6 268.792C197.18 268.325 196.662 268.092 196.046 268.092C195.421 268.092 194.898 268.325 194.478 268.792C194.068 269.259 193.862 269.851 193.862 270.57C193.862 271.298 194.068 271.895 194.478 272.362C194.898 272.819 195.421 273.048 196.046 273.048ZM196.256 274.224C195.752 274.224 195.29 274.117 194.87 273.902C194.46 273.687 194.142 273.403 193.918 273.048H193.862L193.918 274V277.024H192.63V267.14H193.862V268.092H193.918C194.142 267.737 194.46 267.453 194.87 267.238C195.29 267.023 195.752 266.916 196.256 266.916C197.162 266.916 197.927 267.271 198.552 267.98C199.196 268.699 199.518 269.562 199.518 270.57C199.518 271.587 199.196 272.451 198.552 273.16C197.927 273.869 197.162 274.224 196.256 274.224ZM203.778 274.224C202.77 274.224 201.939 273.879 201.286 273.188C200.633 272.497 200.306 271.625 200.306 270.57C200.306 269.525 200.623 268.657 201.258 267.966C201.893 267.266 202.705 266.916 203.694 266.916C204.711 266.916 205.519 267.247 206.116 267.91C206.723 268.563 207.026 269.483 207.026 270.668L207.012 270.808H201.622C201.641 271.48 201.865 272.021 202.294 272.432C202.723 272.843 203.237 273.048 203.834 273.048C204.655 273.048 205.299 272.637 205.766 271.816L206.914 272.376C206.606 272.955 206.177 273.407 205.626 273.734C205.085 274.061 204.469 274.224 203.778 274.224ZM201.72 269.744H205.654C205.617 269.268 205.421 268.876 205.066 268.568C204.721 268.251 204.254 268.092 203.666 268.092C203.181 268.092 202.761 268.241 202.406 268.54C202.061 268.839 201.832 269.24 201.72 269.744ZM209.21 271.9C209.21 272.236 209.35 272.516 209.63 272.74C209.92 272.964 210.256 273.076 210.638 273.076C211.18 273.076 211.66 272.875 212.08 272.474C212.51 272.073 212.724 271.601 212.724 271.06C212.323 270.743 211.763 270.584 211.044 270.584C210.522 270.584 210.083 270.71 209.728 270.962C209.383 271.214 209.21 271.527 209.21 271.9ZM210.876 266.916C211.828 266.916 212.58 267.173 213.13 267.686C213.681 268.19 213.956 268.885 213.956 269.772V274H212.724V273.048H212.668C212.136 273.832 211.427 274.224 210.54 274.224C209.784 274.224 209.15 274 208.636 273.552C208.132 273.104 207.88 272.544 207.88 271.872C207.88 271.163 208.146 270.598 208.678 270.178C209.22 269.758 209.938 269.548 210.834 269.548C211.6 269.548 212.23 269.688 212.724 269.968V269.674C212.724 269.226 212.547 268.848 212.192 268.54C211.838 268.223 211.422 268.064 210.946 268.064C210.228 268.064 209.658 268.367 209.238 268.974L208.104 268.26C208.73 267.364 209.654 266.916 210.876 266.916ZM216.697 274H215.409V267.14H216.641V268.26H216.697C216.828 267.896 217.094 267.588 217.495 267.336C217.906 267.075 218.307 266.944 218.699 266.944C219.072 266.944 219.39 267 219.651 267.112L219.259 268.358C219.1 268.293 218.848 268.26 218.503 268.26C218.018 268.26 217.593 268.456 217.229 268.848C216.874 269.24 216.697 269.697 216.697 270.22V274ZM223.571 263.976H224.859V267.14L224.803 268.092H224.859C225.055 267.756 225.354 267.476 225.755 267.252C226.166 267.028 226.59 266.916 227.029 266.916C227.869 266.916 228.513 267.159 228.961 267.644C229.418 268.12 229.647 268.801 229.647 269.688V274H228.359V269.94C228.359 268.708 227.813 268.092 226.721 268.092C226.198 268.092 225.755 268.311 225.391 268.75C225.036 269.179 224.859 269.683 224.859 270.262V274H223.571V263.976ZM234.239 274.224C233.231 274.224 232.4 273.879 231.747 273.188C231.094 272.497 230.767 271.625 230.767 270.57C230.767 269.525 231.084 268.657 231.719 267.966C232.354 267.266 233.166 266.916 234.155 266.916C235.172 266.916 235.98 267.247 236.577 267.91C237.184 268.563 237.487 269.483 237.487 270.668L237.473 270.808H232.083C232.102 271.48 232.326 272.021 232.755 272.432C233.184 272.843 233.698 273.048 234.295 273.048C235.116 273.048 235.76 272.637 236.227 271.816L237.375 272.376C237.067 272.955 236.638 273.407 236.087 273.734C235.546 274.061 234.93 274.224 234.239 274.224ZM232.181 269.744H236.115C236.078 269.268 235.882 268.876 235.527 268.568C235.182 268.251 234.715 268.092 234.127 268.092C233.642 268.092 233.222 268.241 232.867 268.54C232.522 268.839 232.293 269.24 232.181 269.744ZM239.953 274H238.665V267.14H239.897V268.26H239.953C240.084 267.896 240.35 267.588 240.751 267.336C241.162 267.075 241.563 266.944 241.955 266.944C242.328 266.944 242.646 267 242.907 267.112L242.515 268.358C242.356 268.293 242.104 268.26 241.759 268.26C241.274 268.26 240.849 268.456 240.485 268.848C240.13 269.24 239.953 269.697 239.953 270.22V274ZM246.407 274.224C245.399 274.224 244.568 273.879 243.915 273.188C243.262 272.497 242.935 271.625 242.935 270.57C242.935 269.525 243.252 268.657 243.887 267.966C244.522 267.266 245.334 266.916 246.323 266.916C247.34 266.916 248.148 267.247 248.745 267.91C249.352 268.563 249.655 269.483 249.655 270.668L249.641 270.808H244.251C244.27 271.48 244.494 272.021 244.923 272.432C245.352 272.843 245.866 273.048 246.463 273.048C247.284 273.048 247.928 272.637 248.395 271.816L249.543 272.376C249.235 272.955 248.806 273.407 248.255 273.734C247.714 274.061 247.098 274.224 246.407 274.224ZM244.349 269.744H248.283C248.246 269.268 248.05 268.876 247.695 268.568C247.35 268.251 246.883 268.092 246.295 268.092C245.81 268.092 245.39 268.241 245.035 268.54C244.69 268.839 244.461 269.24 244.349 269.744ZM252.625 273.132C252.625 273.393 252.531 273.617 252.345 273.804C252.167 273.991 251.943 274.084 251.673 274.084C251.411 274.084 251.187 273.991 251.001 273.804C250.814 273.617 250.721 273.393 250.721 273.132C250.721 272.861 250.814 272.637 251.001 272.46C251.187 272.273 251.411 272.18 251.673 272.18C251.943 272.18 252.167 272.273 252.345 272.46C252.531 272.637 252.625 272.861 252.625 273.132Z" fill="#555555"/>
<path d="M10 9H337H10ZM337 278C337 293.464 324.464 306 309 306H38C22.536 306 10 293.464 10 278C10 289.046 20.7452 298 34 298H313C326.255 298 337 289.046 337 278ZM10 302V9V302ZM337 9V302V9Z" fill="#E0E0E0" mask="url(#path-1-inside-1_4485_12871)"/>
</g>
<defs>
<filter id="filter0_dd_4485_12871" x="0" y="0" width="347" height="313" filterUnits="userSpaceOnUse" color-interpolation-filters="sRGB">
<feFlood flood-opacity="0" result="BackgroundImageFix"/>
<feColorMatrix in="SourceAlpha" type="matrix" values="0 0 0 0 0 0 0 0 0 0 0 0 0 0 0 0 0 0 127 0" result="hardAlpha"/>
<feMorphology radius="2" operator="dilate" in="SourceAlpha" result="effect1_dropShadow_4485_12871"/>
<feOffset dy="1"/>
<feGaussianBlur stdDeviation="4"/>
<feColorMatrix type="matrix" values="0 0 0 0 0.0784314 0 0 0 0 0.0784314 0 0 0 0 0.0784314 0 0 0 0.08 0"/>
<feBlend mode="normal" in2="BackgroundImageFix" result="effect1_dropShadow_4485_12871"/>
<feColorMatrix in="SourceAlpha" type="matrix" values="0 0 0 0 0 0 0 0 0 0 0 0 0 0 0 0 0 0 127 0" result="hardAlpha"/>
<feOffset/>
<feGaussianBlur stdDeviation="0.5"/>
<feColorMatrix type="matrix" values="0 0 0 0 0.0784314 0 0 0 0 0.0784314 0 0 0 0 0.0784314 0 0 0 0.08 0"/>
<feBlend mode="normal" in2="effect1_dropShadow_4485_12871" result="effect2_dropShadow_4485_12871"/>
<feBlend mode="normal" in="SourceGraphic" in2="effect2_dropShadow_4485_12871" result="shape"/>
</filter>
</defs>
</svg>
