<svg width="17" height="16" viewBox="0 0 17 16" fill="none" xmlns="http://www.w3.org/2000/svg">
<path d="M14.375 14.6665H2.375C2.10167 14.6665 1.875 14.4398 1.875 14.1665C1.875 13.8932 2.10167 13.6665 2.375 13.6665H14.375C14.6483 13.6665 14.875 13.8932 14.875 14.1665C14.875 14.4398 14.6483 14.6665 14.375 14.6665Z" fill="white"/>
<path d="M13.0549 2.31994C11.7616 1.02661 10.4949 0.993275 9.16822 2.31994L8.36155 3.12661C8.29489 3.19328 8.26822 3.29994 8.29489 3.39328C8.80155 5.15994 10.2149 6.57328 11.9816 7.07994C12.0082 7.08661 12.0349 7.09328 12.0616 7.09328C12.1349 7.09328 12.2016 7.06661 12.2549 7.01328L13.0549 6.20661C13.7149 5.55328 14.0349 4.91994 14.0349 4.27994C14.0416 3.61994 13.7216 2.97994 13.0549 2.31994Z" fill="white"/>
<path d="M10.7816 7.68654C10.5882 7.5932 10.4016 7.49987 10.2216 7.3932C10.0749 7.30654 9.93489 7.2132 9.79489 7.1132C9.68155 7.03987 9.54822 6.9332 9.42155 6.82654C9.40822 6.81987 9.36155 6.77987 9.30822 6.72654C9.08822 6.53987 8.84155 6.29987 8.62155 6.0332C8.60155 6.01987 8.56822 5.9732 8.52155 5.9132C8.45489 5.8332 8.34155 5.69987 8.24155 5.54654C8.16155 5.44654 8.06822 5.29987 7.98155 5.1532C7.87489 4.9732 7.78155 4.7932 7.68822 4.60654C7.56585 4.34431 7.22168 4.26641 7.01706 4.47103L3.26822 8.21987C3.18155 8.30654 3.10155 8.4732 3.08155 8.58654L2.72155 11.1399C2.65489 11.5932 2.78155 12.0199 3.06155 12.3065C3.30155 12.5399 3.63489 12.6665 3.99489 12.6665C4.07489 12.6665 4.15489 12.6599 4.23489 12.6465L6.79489 12.2865C6.91489 12.2665 7.08155 12.1865 7.16155 12.0999L10.9166 8.34484C11.1171 8.14432 11.0418 7.79929 10.7816 7.68654Z" fill="white"/>
</svg>
