<svg width="40" height="40" viewBox="0 0 40 40" fill="none" xmlns="http://www.w3.org/2000/svg">
<rect width="40" height="40" rx="16" fill="#1B80F5"/>
<path d="M26.0703 16.5096L17.5103 12.2296C11.7603 9.34965 9.40026 11.7096 12.2803 17.4596L13.1503 19.1996C13.4003 19.7096 13.4003 20.2996 13.1503 20.8096L12.2803 22.5396C9.40026 28.2896 11.7503 30.6496 17.5103 27.7696L26.0703 23.4896C29.9103 21.5696 29.9103 18.4296 26.0703 16.5096ZM22.8403 20.7496H17.4403C17.0303 20.7496 16.6903 20.4096 16.6903 19.9996C16.6903 19.5896 17.0303 19.2496 17.4403 19.2496H22.8403C23.2503 19.2496 23.5903 19.5896 23.5903 19.9996C23.5903 20.4096 23.2503 20.7496 22.8403 20.7496Z" fill="white"/>
</svg>
