<svg width="16" height="16" viewBox="0 0 16 16" fill="none" xmlns="http://www.w3.org/2000/svg">
<path fill-rule="evenodd" clip-rule="evenodd" d="M13 10C12.1511 10 11.3845 10.3526 10.8387 10.9194L5.96167 8.48084C5.98689 8.32428 6 8.16367 6 8C6 7.83633 5.98689 7.67572 5.96167 7.51916L10.8387 5.08063C11.3845 5.64738 12.1511 6 13 6C14.6569 6 16 4.65685 16 3C16 1.34315 14.6569 0 13 0C11.3431 0 10 1.34315 10 3C10 3.16406 10.0132 3.32504 10.0385 3.48195L5.166 5.92431C4.61996 5.35467 3.8514 5 3 5C1.34315 5 0 6.34315 0 8C0 9.65685 1.34315 11 3 11C3.8514 11 4.61996 10.6453 5.166 10.0757L10.0385 12.518C10.0132 12.675 10 12.8359 10 13C10 14.6569 11.3431 16 13 16C14.6569 16 16 14.6569 16 13C16 11.3431 14.6569 10 13 10ZM14 3C14 3.55228 13.5523 4 13 4C12.4477 4 12 3.55228 12 3C12 2.44772 12.4477 2 13 2C13.5523 2 14 2.44772 14 3ZM13 14C13.5523 14 14 13.5523 14 13C14 12.4477 13.5523 12 13 12C12.4477 12 12 12.4477 12 13C12 13.5523 12.4477 14 13 14ZM4 8C4 8.55229 3.55228 9 3 9C2.44772 9 2 8.55229 2 8C2 7.44772 2.44772 7 3 7C3.55228 7 4 7.44772 4 8Z" fill="#0068E1"/>
</svg>
