<svg width="281" height="130" viewBox="0 0 281 130" fill="none" xmlns="http://www.w3.org/2000/svg">
<g clip-path="url(#clip0_14:38)">
<path d="M1.13482 130H279.865C280.492 130 281 129.495 281 128.873C281 128.25 280.492 127.746 279.865 127.746H1.13482C0.508162 127.746 0 128.25 0 128.873C0 129.496 0.508162 130 1.13482 130Z" fill="#1B80F5"/>
<path d="M223.063 26.079H194.543C192.293 26.079 190.47 24.2671 190.47 22.0329V9.94378C190.47 7.7088 192.294 5.89771 194.543 5.89771H223.063C225.313 5.89771 227.136 7.70952 227.136 9.94378V22.0322C227.136 24.2671 225.312 26.079 223.063 26.079Z" fill="#6AA6EC"/>
<path d="M221.944 25.1748V32.6878C221.944 33.2908 221.127 33.485 220.852 32.9478L216.877 25.1748H221.944Z" fill="#B8C6F2"/>
<path d="M222.355 12.2045H195.594C194.564 12.2045 193.731 11.3755 193.731 10.3537C193.731 9.33121 194.565 8.50293 195.594 8.50293H222.355C223.384 8.50293 224.218 9.33193 224.218 10.3537C224.219 11.3755 223.384 12.2045 222.355 12.2045Z" fill="white"/>
<path d="M222.355 18.0764H195.594C194.564 18.0764 193.731 17.2474 193.731 16.2256C193.731 15.203 194.565 14.3748 195.594 14.3748H222.355C223.384 14.3748 224.218 15.2038 224.218 16.2256C224.219 17.2474 223.384 18.0764 222.355 18.0764Z" fill="white"/>
<path d="M222.629 23.948H205.455C204.577 23.948 203.865 23.241 203.865 22.3687V21.8249C203.865 20.9526 204.577 20.2456 205.455 20.2456H222.629C223.507 20.2456 224.219 20.9526 224.219 21.8249V22.3687C224.219 23.241 223.506 23.948 222.629 23.948Z" fill="white"/>
<path d="M77.949 99.192C77.9562 100.23 77.9671 101.296 77.9802 102.37C77.9802 102.37 78.359 115.087 79.5592 117.065C80.7595 119.043 262.65 117.921 263.211 117.714C265.962 116.695 267.288 101.071 267.288 101.071C267.288 101.071 267.875 56.8436 267.875 50.4774C267.875 41.575 265.067 37.365 257.228 37.365C252.734 37.365 133.746 37.365 133.746 37.365C126.367 37.365 121.898 38.0236 119.319 40.4586C110.999 48.2417 84.976 79.1162 78.7799 86.1887C78.2579 86.7851 77.9671 87.5455 77.9599 88.3355C77.9584 88.5688 77.9555 88.8309 77.9526 89.1205C77.9359 91.3049 77.9199 95.034 77.949 99.192Z" fill="#B8C6F2"/>
<path d="M77.9409 100.838C77.9409 100.838 77.7824 115.565 78.7791 116.962C79.9088 118.153 81.6354 118.898 83.5125 119.004C85.4833 119.273 100.952 119.148 100.952 119.148C100.952 119.148 260.559 117.965 263.21 117.714C265.86 117.464 266.902 115.762 266.993 113.325C266.993 112.806 267.242 104.69 267.287 100.068L77.9409 100.838Z" fill="#5E8ADB"/>
<path d="M124.549 123.041C131.422 116.219 131.422 105.159 124.549 98.3379C117.676 91.5163 106.533 91.5163 99.66 98.3379C92.7871 105.159 92.7871 116.219 99.66 123.041C106.533 129.863 117.676 129.863 124.549 123.041Z" fill="#3A3D96"/>
<path d="M112.096 123.431C119.18 123.431 124.924 117.727 124.924 110.689C124.924 103.652 119.18 97.9475 112.096 97.9475C105.011 97.9475 99.2683 103.652 99.2683 110.689C99.2683 117.727 105.011 123.431 112.096 123.431Z" fill="#B8C6F2"/>
<path d="M112.096 117.559C115.915 117.559 119.012 114.483 119.012 110.689C119.012 106.895 115.915 103.82 112.096 103.82C108.276 103.82 105.18 106.895 105.18 110.689C105.18 114.483 108.276 117.559 112.096 117.559Z" fill="#98B0F2"/>
<path d="M254.734 123.042C261.607 116.22 261.607 105.16 254.734 98.3389C247.861 91.5173 236.718 91.5173 229.845 98.3389C222.973 105.16 222.973 116.22 229.845 123.042C236.718 129.864 247.861 129.864 254.734 123.042Z" fill="#3A3D96"/>
<path d="M242.282 123.432C249.367 123.432 255.11 117.727 255.11 110.69C255.11 103.653 249.367 97.9478 242.282 97.9478C235.198 97.9478 229.455 103.653 229.455 110.69C229.455 117.727 235.198 123.432 242.282 123.432Z" fill="#B8C6F2"/>
<path d="M242.282 117.559C246.102 117.559 249.198 114.484 249.198 110.69C249.198 106.896 246.102 103.82 242.282 103.82C238.463 103.82 235.366 106.896 235.366 110.69C235.366 114.484 238.463 117.559 242.282 117.559Z" fill="#98B0F2"/>
<path d="M108.389 74.0684H143.668C144.757 74.0684 145.641 73.1903 145.641 72.1079V48.8207C145.641 47.0407 144.188 45.5972 142.396 45.5972H130.229C126.968 45.5972 123.9 47.136 121.964 49.7429L106.565 70.4809C105.462 71.967 106.531 74.0684 108.389 74.0684Z" fill="#5E8ADB"/>
<path d="M109.594 75.6701C113.146 75.6701 116.025 73.4122 116.025 70.6268C116.025 67.8415 113.146 65.5835 109.594 65.5835C106.043 65.5835 103.164 67.8415 103.164 70.6268C103.164 73.4122 106.043 75.6701 109.594 75.6701Z" fill="#98B0F2"/>
<path d="M77.9483 99.1918H79.7948C82.5944 99.1918 84.8633 96.9374 84.8633 94.1572C84.8633 92.7664 84.2963 91.5077 83.3796 90.5971C82.4621 89.6858 81.195 89.1226 79.7948 89.1226H77.9512C77.9352 91.3048 77.9192 95.0339 77.9483 99.1918Z" fill="#FAAF16"/>
<path d="M213.217 103.957H161.15C159.591 103.957 158.326 102.702 158.326 101.152V45.042C158.326 43.4931 159.59 42.2373 161.149 42.2373H213.217C214.776 42.2373 216.041 43.4931 216.041 45.042V101.152C216.041 102.701 214.777 103.957 213.217 103.957Z" fill="#272A66"/>
<path d="M172.031 103.82H196.972V54.0312H172.031V103.82Z" fill="#313480"/>
<path d="M181.892 103.82H206.686V65.5837H181.892V103.82Z" fill="#3A3D96"/>
<path d="M160.98 103.82H186.984V76.4043H160.98V103.82Z" fill="#4043A6"/>
<path d="M257.22 103.82H205.153C203.594 103.82 202.329 102.564 202.329 101.014V44.9046C202.329 43.3556 203.593 42.0999 205.153 42.0999H257.22C258.779 42.0999 260.044 43.3556 260.044 44.9053V101.015C260.044 102.564 258.779 103.82 257.22 103.82Z" fill="#98B0F2"/>
<path d="M202.328 89.1223H260.042V83.432H202.328V89.1223Z" fill="#B8C6F2"/>
<path d="M212.476 74.0684H251.188C253.473 74.0684 255.325 72.2284 255.325 69.9588V49.7068C255.325 47.4371 253.473 45.5972 251.188 45.5972H212.476C210.191 45.5972 208.339 47.4371 208.339 49.7068V69.9581C208.339 72.2277 210.191 74.0684 212.476 74.0684Z" fill="#5E8ADB"/>
<path d="M232.441 43.6287H232.438L229.863 43.6381L229.28 49.6786L232.286 51.255L235.491 49.6967L234.973 43.6381L232.441 43.6287Z" fill="#F37A50"/>
<path d="M237.558 39.3204C236.972 43.7009 233.69 46.8818 230.227 46.4247C226.763 45.9676 224.43 42.0465 225.016 37.666C225.602 33.2856 228.884 30.1047 232.347 30.5618C235.811 31.0181 238.144 34.94 237.558 39.3204Z" fill="#F37A50"/>
<path d="M229.106 39.4158C228.469 40.2404 227.665 41.2435 227.665 41.2435C227.665 41.2435 227.899 42.1996 229.126 42.3303C228.626 42.0667 228.146 41.6702 228.425 41.0016C228.704 40.3336 229.106 39.4158 229.106 39.4158Z" fill="#DE623C"/>
<path d="M238.987 35.7988C239.363 31.6249 235.499 30.2543 235.499 30.2543C235.499 30.2543 236.364 29.9517 236.154 28.6902C235.544 29.0628 234.797 29.2354 234.084 29.1653C229.28 28.6924 226.256 29.4773 226.734 31.3476C226.904 32.0127 223.788 32.3543 225.176 36.7701C225.474 36.2487 225.74 34.2917 226.675 33.8606C227.612 33.4281 227.056 34.9554 229.178 34.7178C231.319 34.478 232.712 33.5956 234.272 34.4361C235.519 35.1973 237.079 40.2789 237.008 40.6262C237.17 39.8297 238.822 37.633 238.987 35.7988Z" fill="#201D40"/>
<path d="M224.981 40.0571C224.981 40.0571 225.391 42.4372 225.914 43.0734C226.028 42.0487 228.291 42.6936 229.274 42.7788C231.055 42.9341 232.863 41.3642 233.462 43.6872C235.73 43.818 236.556 38.8584 236.556 38.8584C237.951 43.8143 235.453 47.4286 229.955 47.9319C226.332 48.2648 224.326 43.6728 224.981 40.0571Z" fill="#201D40"/>
<path d="M231.675 39.1564C232.012 39.1788 232.304 38.9254 232.327 38.5903C232.349 38.2552 232.094 37.9649 231.757 37.9425C231.42 37.9202 231.127 38.1736 231.105 38.5087C231.082 38.8438 231.337 39.1333 231.675 39.1564Z" fill="black"/>
<path d="M226.619 38.9709C226.957 38.9933 227.249 38.7398 227.271 38.4047C227.294 38.0697 227.039 37.7794 226.701 37.757C226.364 37.7346 226.072 37.9881 226.049 38.3231C226.027 38.6589 226.282 38.9485 226.619 38.9709Z" fill="black"/>
<path d="M225.602 37.7016C225.705 37.7088 225.81 37.6626 225.873 37.5716C226.047 37.321 226.246 37.1773 226.466 37.1441C226.845 37.087 227.199 37.3593 227.203 37.3622C227.335 37.4647 227.525 37.4431 227.629 37.3138C227.733 37.1838 227.713 36.9953 227.583 36.8914C227.56 36.8733 227.026 36.453 226.382 36.5462C225.986 36.6039 225.647 36.8336 225.372 37.2293C225.277 37.3665 225.312 37.5543 225.451 37.6489C225.498 37.6814 225.55 37.698 225.602 37.7016Z" fill="#201D40"/>
<path d="M233.055 38.1859C233.121 38.1903 233.191 38.1729 233.249 38.1325C233.387 38.0372 233.421 37.8494 233.325 37.7122C232.96 37.1916 232.538 36.8933 232.069 36.8262C231.464 36.7388 231.021 37.0833 231.002 37.0977C230.871 37.2017 230.85 37.3916 230.954 37.5216C231.058 37.6509 231.248 37.6732 231.379 37.5707C231.388 37.5635 231.651 37.3714 231.989 37.4241C232.282 37.4696 232.564 37.6826 232.826 38.0567C232.881 38.1354 232.967 38.1802 233.055 38.1859Z" fill="#201D40"/>
<path d="M236.613 38.88C235.855 39.5963 235.719 40.6759 236.309 41.2926C236.9 41.9086 237.992 41.8277 238.75 41.1114C239.508 40.395 239.644 39.3147 239.054 38.6987C238.464 38.0828 237.371 38.1636 236.613 38.88Z" fill="#F37A50"/>
<path d="M237.298 40.9986C237.266 40.9863 237.236 40.9668 237.211 40.9401C236.854 40.5545 236.777 40.0887 237.006 39.6945C237.241 39.2908 237.728 39.0691 238.166 39.1659C238.29 39.1933 238.367 39.3146 238.339 39.4374C238.311 39.5601 238.189 39.6367 238.066 39.6093C237.826 39.5558 237.534 39.693 237.401 39.9212C237.274 40.1407 237.326 40.3928 237.547 40.6318C237.632 40.7242 237.626 40.8679 237.533 40.9531C237.468 41.0138 237.377 41.0282 237.298 40.9986Z" fill="#DE623C"/>
<path d="M231.255 43.4619C231.281 43.3052 231.245 43.1564 231.087 43.1767C230.684 43.2279 230.018 43.298 229.382 43.303C228.746 43.3081 228.079 43.2481 227.676 43.2034C227.517 43.186 227.479 43.3362 227.512 43.4915C227.646 44.1349 228.38 44.852 229.355 44.8448C230.33 44.8368 231.162 44.0446 231.255 43.4619Z" fill="white"/>
<path d="M227.743 122.739C225.466 125.859 219.875 123.944 220.061 128.164H232.096C232.085 127.195 231.916 124.895 231.721 123.994L227.743 122.739Z" fill="#1B80F5"/>
<path d="M240.463 122.739C238.186 125.859 232.596 123.944 232.781 128.164H244.816C244.806 127.195 244.637 124.895 244.441 123.994L240.463 122.739Z" fill="#1B80F5"/>
<path d="M223.807 75.0232C223.807 75.0232 222.426 95.021 222.987 99.4664C223.548 103.913 225.534 109.612 225.309 124.318C228.08 125.007 232.096 124.318 232.096 124.318C232.096 124.318 232.691 107.689 229.761 100.263C230.953 93.0489 234.775 76.5252 234.775 76.5252L223.807 75.0232Z" fill="black"/>
<path d="M229.053 75.5698C229.053 75.5698 231.84 98.0207 233.204 102.279C234.569 106.537 235.756 109.657 238.226 124.144C241.075 124.285 245.188 124.198 245.188 124.198C245.188 124.198 244.816 106.249 240.38 102.07C240.229 94.7546 241.097 75.715 241.097 75.715L229.053 75.5698Z" fill="black"/>
<path d="M241.902 50.0902C241.902 50.0902 237.061 48.4069 235.447 49.1789C230.431 51.5778 229.281 49.1789 229.281 49.1789C227.678 49.3161 222.84 50.0902 222.84 50.0902C222.84 55.4578 222.479 60.8434 222.577 64.9053C222.646 68.4423 221.968 78.0682 221.968 78.0682C221.968 78.0682 227.305 79.4583 232.354 79.4944C237.403 79.4619 242.542 78.1246 242.542 78.1246C242.542 78.1246 242.273 68.3751 242.049 64.7515C242.12 60.6896 241.902 55.4433 241.902 50.0902Z" fill="#E62552"/>
<path d="M214.234 58.0677C216.232 53.332 222.162 50.32 222.839 50.0903L224.215 56.1699C221.366 57.8431 219.299 59.6534 219.299 59.6534C219.649 61.3461 219.591 63.0063 220.577 65.1474C220.577 65.1474 219.721 63.9732 218.664 64.6679C217.637 65.3438 215.747 63.9645 215.747 63.9645C215.747 63.9645 212.708 61.6848 214.234 58.0677Z" fill="#C4204A"/>
<path d="M215.348 70.0346C215.313 70.0455 215.278 70.052 215.244 70.0556H215.13C214.921 70.0339 214.736 69.8924 214.67 69.6808L209.343 52.6213C209.332 52.5873 209.326 52.5527 209.322 52.518C209.32 52.4949 209.321 52.4732 209.322 52.4508C209.322 52.4371 209.32 52.4234 209.322 52.4104C209.323 52.3981 209.327 52.3873 209.328 52.375C209.361 52.1808 209.497 52.0118 209.699 51.949C209.732 51.9389 209.765 51.9309 209.8 51.9273C209.839 51.923 209.878 51.9237 209.915 51.9273H223.325L228.699 70.0548H215.339L215.348 70.0346Z" fill="#80BC48"/>
<path d="M223.203 51.9489C223.489 51.8608 223.792 52.019 223.881 52.3028L229.174 69.3197L229.186 69.3594C229.274 69.6417 229.116 69.9407 228.832 70.0302L228.832 70.0317C228.546 70.1198 228.243 69.9616 228.154 69.6778L222.847 52.622C222.758 52.3382 222.918 52.037 223.203 51.9489Z" fill="#17962E"/>
<path d="M213.072 62.7714C213.022 62.7382 212.967 62.7173 212.911 62.7021C212.917 62.6934 212.924 62.6862 212.929 62.6776C213.263 62.1778 213.24 61.5799 212.879 61.3423C212.821 61.3034 212.755 61.2781 212.687 61.2622C212.781 60.8917 212.696 60.5386 212.439 60.3689C212.336 60.3018 212.218 60.2714 212.093 60.2729C212.211 59.9089 212.117 59.5276 211.828 59.3377C211.467 59.1001 210.943 59.2532 210.658 59.68C210.373 60.1068 210.435 60.6455 210.797 60.8831C210.888 60.943 210.99 60.9784 211.095 60.99C210.855 61.455 210.903 61.9641 211.23 62.1793C211.289 62.2183 211.354 62.2443 211.423 62.2594C211.329 62.6299 211.413 62.983 211.67 63.1527C211.766 63.2155 211.875 63.2459 211.99 63.2488C211.87 63.5672 211.946 63.9095 212.2 64.0763C212.505 64.2771 212.947 64.1478 213.188 63.7875C213.429 63.4271 213.377 62.9722 213.072 62.7714Z" fill="#F37A50"/>
<path d="M229.558 61.6933L228.335 60.99C228.335 60.99 227.996 59.2677 226.033 59.2266C226.258 59.9494 226.582 60.99 226.582 60.99C226.582 60.99 225.616 61.7352 223.325 60.46C221.085 59.9602 222.042 61.5821 221.299 61.6984C220.204 61.8703 222.098 64.0085 224.334 64.3356C227.229 64.7588 227.572 64.1702 227.572 64.1702L229.21 64.7386L229.558 61.6933Z" fill="#F37A50"/>
<path d="M242.059 63.6973C237.973 63.4135 229.814 61.2457 229.814 61.2457C228.699 62.9449 229.007 65.2022 229.007 65.2022C235.352 70.7279 244.901 72.5145 247.831 71.1843C250.506 69.9704 248.606 53.7919 241.89 50.0867L242.059 63.6973Z" fill="#C4204A"/>
<path d="M220.47 54.5393C220.702 55.1156 221.297 55.4203 221.799 55.221C222.302 55.0217 222.521 54.3934 222.29 53.8172C222.059 53.2409 221.464 52.9362 220.961 53.1355C220.458 53.3348 220.239 53.9631 220.47 54.5393Z" fill="#17962E"/>
<path d="M218.758 54.3437C218.897 54.6874 219.251 54.8694 219.552 54.7502C219.851 54.6311 219.983 54.2563 219.844 53.9126C219.706 53.5688 219.352 53.3869 219.051 53.506C218.751 53.6252 218.62 53.9999 218.758 54.3437Z" fill="#17962E"/>
<path d="M169.527 128.164H196.824V94.5544H169.527V128.164Z" fill="#DE8914"/>
<path d="M191.2 128.164H219.14V86.5934H191.2V128.164Z" fill="#FF9A16"/>
<path d="M180.024 128.165H208.555V99.824H180.024V128.165Z" fill="#FAAF16"/>
<path d="M183.729 109.857H196.973V104.47H183.729V109.857Z" fill="#FAC352"/>
<path d="M198.85 114.119L203.908 116.899L206.707 111.875L201.649 109.095L198.85 114.119Z" fill="#FF9A16"/>
<path d="M202.328 115.879C202.328 117.7 200.842 119.176 199.008 119.176C197.175 119.176 195.688 117.699 195.688 115.879C195.688 114.058 197.175 112.582 199.008 112.582C200.841 112.582 202.328 114.058 202.328 115.879Z" fill="#FAC352"/>
<path d="M152.811 91.3676C154.577 87.5859 150.136 82.8191 152.255 79.2208C153.57 76.9858 157.028 76.1712 157.413 73.6106C157.528 72.8473 157.322 72.0782 157.214 71.3149C156.791 68.334 157.952 65.1761 160.209 63.1679C162.461 61.1647 165.737 60.3646 168.668 61.1005L168.668 61.099C168.672 61.1005 168.676 61.1019 168.679 61.1033C168.683 61.1041 168.687 61.1048 168.691 61.1062L168.69 61.1077C171.52 62.1641 173.895 64.7219 174.595 67.6429C175.296 70.5711 174.436 73.8229 172.378 76.0319C171.85 76.598 171.24 77.1129 170.896 77.8047C169.742 80.1263 172.114 82.7541 171.912 85.3357C171.586 89.4916 165.201 90.891 164.481 94.9978C164.291 96.081 164.546 97.1872 164.568 98.287C164.664 103.086 159.415 107.206 154.737 106.004L154.497 105.929C149.964 104.267 148.018 97.9094 150.852 94.0215C151.501 93.1296 152.345 92.3649 152.811 91.3676Z" fill="#17962E"/>
<path d="M168.388 61.3416L150.023 117.456C149.875 117.906 150.123 118.39 150.577 118.535C151.029 118.682 151.517 118.436 151.663 117.985C151.665 117.981 151.668 117.972 151.669 117.967L168.804 61.4694C168.838 61.3553 168.773 61.2347 168.658 61.2008C168.544 61.1676 168.425 61.2304 168.388 61.3416Z" fill="#068A1E"/>
<path d="M166.824 87.4284C163.068 86.7886 160.027 89.667 158.223 92.6227C157.789 93.2863 158.886 93.9116 159.241 93.1967C160.518 90.657 162.492 87.9816 165.534 87.6169C165.689 87.523 167.144 87.6472 166.824 87.4284Z" fill="#068A1E"/>
<path d="M172.402 69.7334C168.66 69.1391 165.669 72.0268 163.908 74.9876C163.575 75.5082 164.428 75.9964 164.711 75.4411C166.027 72.9035 168.047 70.2367 171.111 69.9067C171.265 69.8157 172.727 69.9543 172.402 69.7334Z" fill="#068A1E"/>
<path d="M156.712 78.8148C159.836 80.6259 160.155 84.5651 159.692 87.7872C159.612 88.336 160.487 88.4508 160.548 87.8948C160.712 84.9175 160.405 81.4007 157.867 79.4221C157.732 79.326 156.587 78.4422 156.712 78.8148Z" fill="#068A1E"/>
<path d="M143.745 91.3467C142.282 88.3615 145.747 84.5003 144.006 81.6659C142.925 79.9054 140.159 79.3082 139.814 77.2747C139.712 76.6688 139.864 76.0536 139.939 75.4434C140.231 73.0632 139.259 70.5661 137.431 69.0006C135.608 67.4386 132.987 66.8501 130.665 67.479L130.664 67.4776C130.661 67.479 130.658 67.4798 130.655 67.4812C130.652 67.4819 130.649 67.4826 130.646 67.4834L130.647 67.4848C128.409 68.368 126.556 70.4397 126.043 72.7765C125.528 75.1191 126.262 77.6957 127.935 79.4237C128.364 79.8664 128.857 80.2679 129.142 80.8138C130.095 82.6458 128.245 84.7732 128.445 86.8255C128.767 90.13 133.873 91.1503 134.507 94.41C134.675 95.2701 134.488 96.1547 134.488 97.0306C134.483 100.854 138.725 104.057 142.432 103.03L142.622 102.967C146.207 101.576 147.661 96.4847 145.346 93.4308C144.815 92.7303 144.131 92.1339 143.745 91.3467Z" fill="#17962E"/>
<path d="M130.891 67.6667L146.356 112.08C146.481 112.436 146.29 112.824 145.932 112.948C145.573 113.071 145.182 112.882 145.058 112.526C145.057 112.522 145.054 112.516 145.053 112.511L130.563 67.775C130.534 67.6848 130.584 67.588 130.675 67.5591C130.764 67.531 130.86 67.5786 130.891 67.6667Z" fill="#068A1E"/>
<path d="M132.528 88.417C134.695 88.014 136.792 89.1297 138.165 90.7458C138.541 91.4008 139.961 92.3143 139.326 93.0682C137.789 93.2942 137.831 88.5968 132.528 88.417Z" fill="#068A1E"/>
<path d="M127.821 74.4086C130.792 73.88 133.216 76.1359 134.663 78.4676C134.936 78.8778 134.263 79.2786 134.03 78.8403C132.944 76.8392 131.295 74.7451 128.851 74.5277C128.707 74.4512 127.604 74.5985 127.821 74.4086Z" fill="#068A1E"/>
<path d="M140.451 81.4079C137.991 82.8962 137.796 86.0382 138.212 88.5967C138.284 89.0321 137.588 89.1368 137.532 88.6949C137.357 86.3263 137.549 83.5216 139.54 81.9084C139.661 81.8246 140.52 81.1191 140.451 81.4079Z" fill="#068A1E"/>
<path d="M141.913 84.979C142.461 80.8463 136.789 77.6155 137.728 73.5521C138.311 71.0283 141.366 69.2251 140.963 66.6666C140.843 65.9048 140.416 65.2318 140.082 64.5349C138.781 61.8161 138.939 58.4575 140.49 55.8716C142.036 53.2914 144.922 51.5554 147.94 51.3872V51.3857C147.944 51.3857 147.948 51.3865 147.952 51.3865C147.955 51.3865 147.96 51.3857 147.963 51.3857V51.3872C150.982 51.5554 154.018 53.2914 155.565 55.8716C157.114 58.4582 157.273 61.8161 155.972 64.5349C155.639 65.2318 155.212 65.9048 155.091 66.6666C154.689 69.2244 157.743 71.0283 158.326 73.5521C159.266 77.6148 153.593 80.8456 154.141 84.979C154.286 86.0695 154.862 87.0494 155.213 88.0921C156.749 92.6437 152.979 101.672 148.153 101.913H147.901C143.075 101.672 139.305 92.6437 140.841 88.0921C141.192 87.0494 141.769 86.0687 141.913 84.979Z" fill="#068A1E"/>
<path d="M147.746 51.7013L147.1 110.703C147.095 111.176 147.477 111.564 147.953 111.569C148.429 111.574 148.82 111.195 148.825 110.722C148.825 110.717 148.825 110.708 148.825 110.703L148.179 51.7013C148.178 51.5822 148.08 51.4869 147.96 51.4883C147.843 51.489 147.747 51.5843 147.746 51.7013Z" fill="#17962E"/>
<path d="M154.026 77.2068C151.283 77.5823 149.233 79.7393 148.245 82.2061C148.059 83.134 146.733 84.7834 147.792 85.4304C149.67 85.2289 147.764 79.5241 154.026 77.2068Z" fill="#17962E"/>
<path d="M154.101 58.5183C150.351 59.0613 148.365 62.7059 147.575 66.0537C147.414 66.6495 148.376 66.8618 148.478 66.248C148.97 63.436 150.096 60.2911 152.92 59.0664C153.041 58.9343 154.477 58.6331 154.101 58.5183Z" fill="#17962E"/>
<path d="M142.083 71.8413C144.647 72.4248 146.315 74.6735 147.026 77.076C147.492 77.7974 147.203 79.7428 148.128 79.867C149.025 79.3593 147.794 77.6508 147.662 76.8456C146.847 74.5449 144.442 71.6889 142.083 71.8413Z" fill="#17962E"/>
<path d="M142.345 108.188H156.466C157.572 108.188 158.429 109.177 158.298 110.3L156.395 126.503C156.283 127.451 155.497 128.165 154.563 128.165H144.248C143.315 128.165 142.528 127.452 142.416 126.503L140.513 110.3C140.381 109.177 141.238 108.188 142.345 108.188Z" fill="#E62552"/>
<path d="M139.362 111.758H158.997C159.487 111.758 159.884 111.364 159.884 110.877V108.77C159.884 108.283 159.487 107.889 158.997 107.889H139.362C138.872 107.889 138.475 108.283 138.475 108.77V110.877C138.475 111.364 138.872 111.758 139.362 111.758Z" fill="#C4204A"/>
<path d="M162.181 11.588C161.966 6.81543 158.002 3.01199 153.144 3.01199C151.504 3.01199 149.966 3.44599 148.64 4.2035C148.476 1.85442 146.506 0 144.099 0C141.942 0 140.134 1.49119 139.665 3.49292C139.09 3.355 138.489 3.28206 137.871 3.28206C134.618 3.28206 131.839 5.29896 130.733 8.14341C130.084 7.8885 129.376 7.74769 128.635 7.74769C126.857 7.74769 125.268 8.55575 124.221 9.82236C123.64 10.5264 124.157 11.5872 125.074 11.5872H162.181V11.588Z" fill="#E3EAFF"/>
<path d="M30.9165 14.6368C30.9165 14.6859 30.9172 14.735 30.918 14.7841H47.9854C47.5027 13.1304 45.9658 11.9209 44.1455 11.9209C43.7282 11.9209 43.3269 11.9844 42.9488 12.1014C41.9703 9.91626 39.7654 8.39258 37.2027 8.39258C33.7307 8.39186 30.9165 11.1879 30.9165 14.6368Z" fill="#E3EAFF"/>
<path d="M82.637 34.8844C82.637 34.9494 82.6384 35.0144 82.6413 35.0779H112.092C112.095 35.0136 112.097 34.9486 112.097 34.8844C112.097 32.0262 109.764 29.7096 106.888 29.7096C106.345 29.7096 105.821 29.7927 105.329 29.9458C104.054 27.0984 101.182 25.1133 97.8419 25.1133C94.3749 25.1133 91.4109 27.2529 90.2158 30.2743C89.5048 29.9133 88.7 29.7096 87.8465 29.7096C84.9691 29.7096 82.637 32.0262 82.637 34.8844Z" fill="#E3EAFF"/>
<path d="M250.255 28.4964C250.255 28.5614 250.256 28.6257 250.259 28.6899H279.71C279.713 28.6257 279.715 28.5607 279.715 28.4964C279.715 25.6382 277.382 23.3217 274.506 23.3217C273.963 23.3217 273.439 23.4047 272.947 23.5578C271.673 20.7105 268.8 18.7246 265.46 18.7246C261.993 18.7246 259.029 20.8643 257.834 23.8864C257.123 23.5253 256.318 23.3217 255.465 23.3217C252.587 23.3217 250.255 25.6382 250.255 28.4964Z" fill="#E3EAFF"/>
<path d="M76.8662 51.4131C80.5142 52.3179 86.7488 60.7834 87.3319 67.1316C85.3305 67.5432 83.0434 65.9581 83.0434 65.9581L78.0875 58.8784L76.8662 51.4131Z" fill="#DE623C"/>
<path d="M73.3854 33.1007C71.7105 30.3639 67.3289 28.9947 65.7499 32.05C64.1702 35.1054 63.7413 37.3208 59.8344 35.6332C56.7229 34.2894 52.5479 36.1972 51.2066 40.7249C49.4909 46.5178 54.2003 45.4448 52.4156 48.0329C50.6308 50.6202 49.1681 53.3463 53.3083 54.6591C57.4492 55.9719 61.7144 53.4517 62.6217 48.5997C63.529 43.7478 66.0516 46.364 67.6255 44.2937C69.8625 41.3489 73.3854 33.1007 73.3854 33.1007Z" fill="#6AA6EC"/>
<path d="M80.393 124.041L82.3464 116.397L77.4989 115.734C77.3324 119.349 77.0605 122.909 77.0845 123.873L80.393 124.041Z" fill="#F37A50"/>
<path d="M68.8264 115.691H63.7651C63.9316 116.896 64.5954 123.419 64.5954 123.419C65.0228 124.383 68.7944 124.163 68.7944 123.621C68.5102 122.446 68.8031 115.841 68.8264 115.691Z" fill="#F37A50"/>
<path d="M77.1027 118.678L82.0942 119.41L85.5553 98.8511C84.8422 91.0492 77.9278 74.4504 77.9278 74.4504L70.1338 77.1613L69.9441 84.4815L79.3294 100.266C78.1059 103.32 77.2692 113.19 77.1027 118.678Z" fill="black"/>
<path d="M73.2444 75.0007C73.1731 74.519 73.1492 74.3681 72.7457 74.1269L65.2606 72.0183L63.4788 73.7651C61.7915 79.8505 62.8369 88.3152 64.168 95.0325C62.2197 100.846 62.9815 112.832 63.766 118.465H69.0882C69.3972 114.7 69.3005 107.715 69.3238 104.341C70.0129 101.63 70.6781 98.7384 71.2721 95.6961C72.0325 91.8103 72.9827 88.0445 73.2444 84.5198C73.4821 81.1763 73.5534 77.5917 73.2444 75.0007Z" fill="black"/>
<path d="M67.2127 40.5683C66.2683 44.4996 68.0218 48.2828 71.1304 49.0201C74.2382 49.7567 77.5235 47.1678 78.4678 43.2373C79.4122 39.3068 77.6587 35.5228 74.5501 34.7863C71.4423 34.0482 68.1577 36.6378 67.2127 40.5683Z" fill="#F37A50"/>
<path d="M63.803 50.4858C62.0663 51.6174 54.8059 61.0007 58.5426 68.8322C58.5927 68.9369 58.688 68.9217 58.7418 69.0264C58.9308 69.1311 62.176 63.7058 62.176 63.7058L66.04 56.1076L63.803 50.4858Z" fill="#F37A50"/>
<path d="M67.5273 45.4998L72.1742 48.1211C72.1742 48.1211 72.5864 49.9899 72.7922 50.5965C73.2167 51.848 71.5897 52.3946 70.2143 51.6155C68.8388 50.8363 67.9483 49.7942 67.9483 49.7942L67.5273 45.4998Z" fill="#F37A50"/>
<path d="M78.9216 42.0025C77.8653 41.6566 77.3753 40.0477 76.9318 38.81C74.7182 43.2316 66.5527 42.6005 66.2074 41.7296C65.4913 36.5779 67.7602 32.8294 73.3391 32.9976C80.9899 33.228 78.9216 42.0025 78.9216 42.0025Z" fill="#1B80F5"/>
<path d="M76.7841 43.9263C76.8845 44.2144 77.2014 44.3668 77.4908 44.2671C77.7808 44.1675 77.9342 43.8526 77.8339 43.5645C77.7336 43.2764 77.4166 43.124 77.1273 43.2236C76.8372 43.324 76.6838 43.6381 76.7841 43.9263Z" fill="black"/>
<path d="M72.7712 42.7953C72.8803 43.1073 73.2227 43.2726 73.5367 43.1643C73.8508 43.056 74.0173 42.7159 73.9082 42.4039C73.7992 42.092 73.4568 41.9266 73.1427 42.0349C72.8287 42.1432 72.6622 42.4834 72.7712 42.7953Z" fill="black"/>
<path d="M78.2978 42.8372C78.3196 42.8329 78.3414 42.8249 78.3618 42.8134C78.4621 42.7563 78.4963 42.6285 78.4381 42.5296C77.9896 41.7576 77.1623 41.8017 77.1266 41.8038C77.0118 41.8111 76.9238 41.91 76.9311 42.0248C76.9384 42.1389 77.0372 42.2256 77.1521 42.2191C77.179 42.2176 77.7598 42.1952 78.0754 42.7375C78.1226 42.8163 78.2128 42.8545 78.2978 42.8372Z" fill="#2C2858"/>
<path d="M75.6711 44.2677C75.7656 44.6923 75.8223 45.1047 75.9735 45.4123C76.0244 45.5156 75.9823 45.6427 75.8805 45.6983C75.461 45.9272 74.6962 45.8586 74.2448 45.7893C74.1786 45.7791 74.1786 45.6845 74.244 45.6737C74.8016 45.5813 75.1012 45.4448 75.2458 45.3574C75.3178 45.3141 75.3629 45.239 75.3701 45.1559C75.3869 44.9653 75.4239 44.5783 75.477 44.2714C75.4952 44.1652 75.6478 44.1623 75.6711 44.2677Z" fill="#DE623C"/>
<path d="M68.3169 42.4717C68.8127 43.2849 68.6709 44.2706 68.0013 44.6728C67.3318 45.0757 66.3867 44.7428 65.8916 43.9304C65.3958 43.1173 65.5369 42.1316 66.2072 41.7294C66.8767 41.3265 67.8218 41.6586 68.3169 42.4717Z" fill="#F37A50"/>
<path d="M67.5055 43.9818C67.5353 43.9717 67.563 43.9544 67.5862 43.9305C67.9235 43.5875 68.0057 43.1636 67.8072 42.7975C67.6037 42.4227 67.1639 42.2061 66.7604 42.2834C66.647 42.305 66.5728 42.4141 66.5946 42.5267C66.6164 42.6394 66.7262 42.713 66.8396 42.6914C67.0606 42.6488 67.3238 42.7816 67.4386 42.994C67.5491 43.1976 67.4954 43.4272 67.2867 43.6395C67.206 43.7218 67.2075 43.8533 67.2903 43.9334C67.3492 43.9912 67.4328 44.0071 67.5055 43.9818Z" fill="#DE623C"/>
<path d="M79.0843 75.6652C79.0843 75.6652 77.1665 77.9204 76.843 78.0893L75.1259 76.227L75.1135 76.2587L74.7064 77.3246L74.2302 78.5695C73.8318 78.5695 61.8577 75.9056 61.8577 75.9056C61.8824 74.8333 62.8973 71.3598 64.5395 67.6626C64.1411 64.5307 64.5243 61.2754 64.3992 59.47C65.3661 54.6275 64.6762 52.768 63.8038 50.4861L66.8419 49.595L72.3103 51.5108L72.7166 50.2008C72.7166 50.2008 76.1451 51.0176 76.8663 51.4133L78.1618 56.7837L77.8812 68.1926C77.8812 68.1926 78.3115 72.7868 79.0843 75.6652Z" fill="#3F964F"/>
<path d="M67.869 48.9912L65.7556 49.8953C65.9817 52.4509 71.7387 53.9782 71.7387 53.9782L72.3101 51.5114L67.869 48.9912Z" fill="#0E6A41"/>
<path d="M72.3096 51.5107L74.0049 53.3818C74.0049 53.3818 75.4705 51.8761 74.9405 50.9453C74.4098 50.0145 72.4673 49.387 72.4673 49.387L72.3096 51.5107Z" fill="#0E6A41"/>
<path d="M73.6247 47.8135C73.4909 47.7961 73.3593 47.7665 73.2307 47.7246C72.2812 47.4134 71.8414 46.5324 71.8232 46.4949C71.7665 46.3793 71.8152 46.2407 71.9316 46.1843C72.0479 46.1287 72.1874 46.1764 72.2442 46.2912C72.2478 46.2984 72.6215 47.0372 73.3819 47.2841C73.8777 47.4452 74.4375 47.3665 75.0467 47.0509C75.1615 46.9917 75.3026 47.0357 75.3622 47.1491C75.4218 47.2632 75.3774 47.4033 75.2633 47.4625C74.6861 47.7622 74.1372 47.8799 73.6247 47.8135Z" fill="#DE623C"/>
<path d="M79.2149 123.918C79.7216 122.595 80.8056 122.449 80.8056 122.449C82.9116 125.24 88.0849 123.527 87.9133 127.302C80.0466 127.254 76.7781 127.302 76.7781 127.302C76.7883 126.436 76.9438 124.378 77.1256 123.572L77.5356 123.644L79.2149 123.918Z" fill="#2C2858"/>
<path d="M87.6133 128.31H77.0807C76.9128 128.31 76.7769 128.175 76.7769 128.008V127.198H87.9164V128.008C87.9172 128.175 87.7805 128.31 87.6133 128.31Z" fill="white"/>
<path d="M75.1135 76.2586L74.7064 77.3245C74.3371 74.8729 72.9602 64.6122 73.7373 61.7793C74.4665 59.1189 73.5549 56.3128 72.6723 53.6005C72.4578 52.9375 72.2339 52.2523 72.0427 51.5872L72.311 51.5106L72.5778 51.4341C72.7668 52.0898 72.9885 52.7707 73.2023 53.4293C74.1095 56.2196 75.0459 59.1045 74.2738 61.9244C73.6028 64.3702 74.6301 72.7931 75.1135 76.2586Z" fill="#0E6A41"/>
<path d="M69.6958 127.338C69.6958 127.338 69.0641 124.998 69.0088 124.697C68.9456 124.356 68.7602 123.548 68.7224 123.133C68.713 123.031 67.629 122.372 66.801 122.374C65.6792 122.376 64.6571 123.021 64.6367 123.143C64.5044 123.924 64.5001 124.842 64.2856 125.602C64.1264 126.168 63.6931 127.486 63.6931 127.486L69.6958 127.338Z" fill="#2C2858"/>
<path d="M69.6968 127.156C69.55 127.621 67.7339 127.085 66.4086 127.085C65.2964 127.086 63.8569 127.514 63.6934 127.348C63.4157 127.836 63.6447 128.847 63.6447 128.847C63.6447 128.847 64.8042 128.906 66.1942 128.847C67.5849 128.787 69.1915 128.875 69.7964 128.697C70.1781 128.062 69.6968 127.156 69.6968 127.156Z" fill="white"/>
<path d="M72.0209 61.2276C72.0209 61.2276 63.356 69.8555 59.3038 69.2771C58.7723 69.2013 58.6058 69.119 58.4626 68.5911C57.9886 66.845 60.3295 64.0482 62.5352 63.0473C64.967 61.9432 69.0483 60.2036 69.0483 60.2036L72.0209 61.2276Z" fill="#F37A50"/>
<path d="M73.8353 57.9861L77.817 54.9344C77.9035 54.8687 78.014 54.8419 78.1216 54.86L80.834 55.3489C80.9111 55.3619 81.0703 55.832 81.0078 55.8789L78.3005 57.495C78.2874 57.5044 78.2721 57.5109 78.2561 57.5124L73.9996 58.2381C73.908 58.2475 73.7634 58.041 73.8353 57.9861Z" fill="#F9CD2D"/>
<path d="M74.0406 58.2786L77.8274 55.4074C77.914 55.3417 78.0245 55.3143 78.1313 55.3323L80.9338 55.8032C81.0116 55.8162 81.0356 55.9144 80.9731 55.962L78.3094 57.9681C78.2963 57.9782 78.2811 57.984 78.2651 57.9854L74.1046 58.4375C74.0144 58.4476 73.9686 58.3335 74.0406 58.2786Z" fill="#F9F93A"/>
<path d="M68.9436 60.2549L71.1813 59.1421C71.1813 59.1421 72.5996 57.6083 73.0438 57.1505C73.6101 56.9866 74.713 56.5143 74.9376 56.5302C75.1622 56.5461 75.5424 56.6782 75.5424 56.6782L74.2477 57.6849C74.2477 57.6849 74.7755 57.9268 75.5155 57.6329C76.2563 57.339 77.6362 56.437 78.1676 56.7605C78.337 56.9764 78.337 56.9764 78.337 56.9764C78.337 56.9764 78.8037 56.6176 79.0843 56.8667C79.9523 57.6357 74.3531 60.9503 74.3531 60.9503L72.0209 61.2283L68.9436 60.2549Z" fill="#F37A50"/>
<path d="M78.2397 56.024C78.082 56.1309 77.8864 56.12 77.8028 55.9987C77.7192 55.8774 77.7795 55.6926 77.9373 55.5857C78.095 55.4788 78.2906 55.4896 78.3735 55.611C78.4571 55.7315 78.3975 55.9164 78.2397 56.024Z" fill="#F9CD2D"/>
<path d="M87.332 67.1317C87.332 67.1317 82.3645 72.7744 78.907 73.5717C78.7012 72.4408 78.5122 71.575 78.5122 71.575L83.226 65.4109L87.332 67.1317Z" fill="#DE623C"/>
<path d="M78.278 73.8821C78.294 73.8337 78.3202 73.7911 78.3493 73.7506C78.3413 73.7477 78.3325 73.7463 78.3245 73.7434C77.8338 73.5817 77.5307 73.1672 77.6477 72.8176C77.6666 72.7606 77.6972 72.7086 77.735 72.6624C77.4747 72.4624 77.3438 72.18 77.4274 71.9301C77.4609 71.8312 77.5249 71.7482 77.6099 71.6839C77.3373 71.5005 77.197 71.1943 77.2908 70.9148C77.4078 70.5653 77.8426 70.3942 78.2613 70.5321C78.68 70.67 78.925 71.0658 78.808 71.4153C78.7782 71.5041 78.728 71.5806 78.6633 71.6442C79.0726 71.8319 79.3111 72.2002 79.2049 72.5165C79.186 72.5736 79.1555 72.6256 79.1177 72.6718C79.3779 72.8718 79.5088 73.1542 79.4252 73.404C79.3947 73.4957 79.3372 73.5737 79.2609 73.6365C79.5103 73.7882 79.6418 74.059 79.5597 74.3045C79.4608 74.5999 79.0937 74.745 78.7404 74.628C78.3863 74.511 78.1791 74.1767 78.278 73.8821Z" fill="#DE623C"/>
<path d="M22.1055 46.3835H22.1084L24.6463 46.3929L25.2206 52.3461L22.2588 53.8994L19.1001 52.3635L19.6104 46.3929L22.1055 46.3835Z" fill="#F37A50"/>
<path d="M14.5529 43.0161C16.2904 47.3287 20.4626 49.7254 23.8721 48.37C27.2817 47.0146 28.6375 42.4204 26.9 38.1079C25.1625 33.796 20.9904 31.3986 17.5808 32.754C14.1713 34.1094 12.8154 38.7036 14.5529 43.0161Z" fill="#F37A50"/>
<path d="M25.417 39.5235C25.6184 39.8109 26.0168 39.8824 26.3061 39.6824C26.5955 39.4823 26.6674 39.0873 26.4653 38.7992C26.264 38.5118 25.8656 38.441 25.5762 38.6411C25.2876 38.8404 25.2156 39.2361 25.417 39.5235Z" fill="black"/>
<path d="M20.6333 41.4628C20.8514 41.7741 21.2825 41.8506 21.5958 41.6347C21.9092 41.4181 21.9869 40.9898 21.7688 40.6786C21.5507 40.3674 21.1204 40.2901 20.8063 40.5067C20.493 40.7234 20.4152 41.1516 20.6333 41.4628Z" fill="black"/>
<path d="M24.447 40.5359C25.3107 41.2118 26.3903 42.0278 26.3903 42.0278C26.3903 42.0278 26.4012 43.0619 25.1849 43.5103C25.6255 43.1139 26.0115 42.586 25.5535 41.9765C25.0955 41.3671 24.447 40.5359 24.447 40.5359Z" fill="#DE623C"/>
<path d="M19.3748 41.0499C19.3501 41.0499 19.3254 41.047 19.3007 41.0413C19.1291 41.0008 19.0237 40.8297 19.0644 40.66C19.1756 40.1956 19.6438 39.3168 20.6158 39.3118C20.7932 39.3132 20.9349 39.4519 20.9357 39.6266C20.9364 39.8014 20.7946 39.9436 20.6187 39.9443C19.899 39.948 19.6867 40.7979 19.6845 40.8066C19.6496 40.9517 19.5188 41.0499 19.3748 41.0499Z" fill="#201D40"/>
<path d="M24.748 38.1818C24.7022 38.1818 24.6564 38.1702 24.6143 38.1457C24.4878 38.072 24.4449 37.9103 24.519 37.7846C24.5307 37.7651 24.8098 37.3008 25.3376 37.204C25.6975 37.1376 26.0704 37.2553 26.4441 37.5528C26.559 37.6438 26.5771 37.8099 26.4855 37.9233C26.3939 38.0374 26.2267 38.0554 26.1119 37.9644C25.8632 37.7673 25.635 37.6857 25.4336 37.7225C25.1472 37.7752 24.9785 38.0489 24.977 38.0518C24.9283 38.1349 24.8396 38.1818 24.748 38.1818Z" fill="#201D40"/>
<path d="M10.7113 41.3063C9.62445 37.0363 13.2507 33.6979 13.2507 33.6979C13.2507 33.6979 12.7803 33.651 12.2779 33.438C11.6019 33.1513 11.8236 32.1461 12.5586 32.1555C13.4491 32.1663 14.5098 32.0053 15.2898 31.424C20.2035 27.7635 24.1983 29.727 24.1983 31.7547C24.1983 32.4761 28.694 32.9534 27.0576 38.5268C27.1542 38.1975 25.2823 34.857 24.2187 34.6576C23.1507 34.4576 24.1154 35.8708 21.8916 36.1741C19.6481 36.4803 17.9986 35.9394 16.6282 37.1959C14.0823 39.7956 16.5759 46.0485 16.7395 46.3843C16.3658 45.6137 11.9188 46.0477 10.7113 41.3063Z" fill="#1B80F5"/>
<path d="M16.2967 42.0992C17.2556 42.6343 17.6751 43.6994 17.2346 44.4786C16.794 45.2577 15.6592 45.4563 14.701 44.9212C13.7421 44.3861 13.3227 43.321 13.7632 42.5418C14.203 41.7627 15.3379 41.5641 16.2967 42.0992Z" fill="#F37A50"/>
<path d="M16.1505 44.4339C16.1803 44.413 16.2058 44.3855 16.224 44.3516C16.4871 43.8671 16.4442 43.3731 16.1084 43.0301C15.7645 42.6791 15.2091 42.578 14.7882 42.7896C14.6697 42.8496 14.6224 42.9926 14.682 43.1103C14.7416 43.228 14.8863 43.2749 15.0048 43.2157C15.2353 43.0994 15.5682 43.1644 15.763 43.363C15.9499 43.5536 15.963 43.8244 15.8001 44.1241C15.7369 44.2404 15.7805 44.3848 15.8975 44.4476C15.9811 44.4924 16.0786 44.4838 16.1505 44.4339Z" fill="#DE623C"/>
<path d="M23.6305 45.72C23.2627 45.6327 22.8788 45.4832 22.4805 45.2723C22.3772 45.2174 22.338 45.0896 22.3932 44.9864C22.4485 44.8838 22.5771 44.8448 22.6811 44.8997C23.5629 45.3676 24.3532 45.5012 25.0307 45.2961C25.8682 45.0427 26.2506 44.3415 26.2542 44.335C26.3087 44.2325 26.4374 44.1927 26.5414 44.2469C26.6453 44.3011 26.6853 44.4281 26.6308 44.5307C26.6126 44.5654 26.1699 45.3886 25.163 45.6976C24.6898 45.8428 24.1772 45.85 23.6305 45.72Z" fill="#DE623C"/>
<path d="M26.7365 124.266C28.98 127.341 34.4898 125.454 34.3073 129.613C25.9288 129.56 22.4465 129.613 22.4465 129.613C22.4574 128.658 22.6232 126.391 22.8166 125.503L26.7365 124.266Z" fill="black"/>
<path d="M13.5233 124.266C15.7668 127.341 21.2766 125.454 21.0941 129.613C12.7157 129.56 9.2334 129.613 9.2334 129.613C9.2443 128.658 9.41006 126.391 9.60343 125.503L13.5233 124.266Z" fill="black"/>
<path d="M30.5507 77.2581C30.5507 77.2581 32.9803 97.6762 32.4278 102.057C31.8753 106.438 28.8489 111.345 29.0706 125.838C26.3393 126.518 22.3824 125.838 22.3824 125.838C22.3824 125.838 21.7957 109.451 24.6833 102.132C23.5092 95.0216 19.7419 78.7377 19.7419 78.7377L30.5507 77.2581Z" fill="#1B80F5"/>
<path d="M25.4445 77.8618C25.4445 77.8618 22.6979 99.987 21.353 104.184C20.0081 108.38 17.9667 111.48 15.532 125.756C12.7251 125.895 9.53076 126.205 9.53076 126.205C9.53076 126.205 9.90952 108.096 14.2809 103.978C14.4292 96.7678 13.5743 78.0041 13.5743 78.0041L25.4445 77.8618Z" fill="#1B80F5"/>
<path d="M12.2148 51.9931C12.2148 51.9931 17.7086 51.8104 19.2542 51.9057C22.4791 54.7971 25.2205 51.8537 25.2205 51.8537C26.9544 51.4717 31.0502 51.4717 31.0502 51.4717C31.5686 58.3449 32.4279 80.3242 32.4279 80.3242C32.4279 80.3242 27.1681 81.6941 22.1926 81.7295C17.2172 81.6977 10.5085 80.5531 10.5085 80.5531C10.5085 80.5531 11.4856 70.8911 11.7066 67.3202C11.6346 63.3167 12.2148 57.2682 12.2148 51.9931Z" fill="#3F964F"/>
<path d="M51.5477 54.9407C51.4648 54.5262 51.2867 54.1572 51.0482 53.8373C49.2162 50.4946 44.0386 51.7894 36.5645 53.087C35.3148 53.3044 35.735 51.7114 35.5322 48.4365C35.4006 46.3063 33.4101 43.3903 31.1376 43.8395C27.3907 44.5811 31.581 46.7908 29.717 54.6743C28.7211 58.8864 24.3301 57.5064 25.108 61.3857L26.8789 70.2166C27.1813 71.7265 27.6226 73.1484 29.8181 72.9628C31.9467 72.7823 31.7722 74.3421 34.7754 73.7485L49.8073 70.7748C51.3383 70.4722 52.3372 68.9933 52.0333 67.479C51.9075 66.8515 51.5702 66.3236 51.1187 65.9315C51.8741 65.2931 52.279 64.2894 52.0725 63.2596C51.9468 62.6335 51.6109 62.1057 51.1602 61.7143C51.9184 61.0759 52.3248 60.0714 52.1183 59.0402C51.9686 58.2914 51.5251 57.6733 50.9319 57.2739C51.4611 56.6449 51.72 55.8022 51.5477 54.9407Z" fill="#313480"/>
<path d="M42.1542 59.6534L49.3223 58.2352C50.2972 58.0423 51.1085 57.3455 51.44 56.4176C51.5767 56.0348 51.3739 55.6153 50.9864 55.4802C50.5996 55.3452 50.1751 55.5481 50.0384 55.9309C49.8821 56.3721 49.4953 56.7021 49.033 56.7938L41.6926 58.246C40.9656 58.3897 40.2568 57.9218 40.1121 57.2025C39.9682 56.4833 40.4422 55.7814 41.1692 55.6377L46.0734 54.6679C46.4762 54.5884 46.7379 54.2006 46.6579 53.8027C46.5779 53.4049 46.1868 53.1463 45.7841 53.2265L40.8791 54.197C39.3481 54.4996 38.3492 55.9778 38.6531 57.4921C38.8225 58.3363 39.3677 59.0057 40.0772 59.3891C39.665 59.9892 39.4848 60.7438 39.6381 61.5086C39.8083 62.3556 40.3564 63.0265 41.0689 63.4092C40.6596 64.0071 40.4822 64.7596 40.6348 65.5221C40.8195 66.445 41.4491 67.1664 42.2567 67.5253C41.9172 68.0972 41.7711 68.7832 41.9107 69.4815C42.2139 70.9958 43.7071 71.9808 45.2381 71.6782L49.8065 70.7741C50.7814 70.5813 51.5934 69.8852 51.9256 68.9573C52.063 68.5745 51.8602 68.155 51.4734 68.02C51.0867 67.8864 50.6614 68.0864 50.5247 68.4691C50.3662 68.9111 49.9795 69.2418 49.5171 69.3328L44.9488 70.2369C44.2211 70.3806 43.513 69.9126 43.3683 69.1934C43.2244 68.4742 43.6984 67.7723 44.4253 67.6286L49.845 66.5562C50.8199 66.3634 51.6327 65.6665 51.9634 64.7386C52.1008 64.3552 51.898 63.9356 51.5112 63.8013C51.1209 63.6634 50.6985 63.8677 50.5625 64.2497C50.4019 64.6989 50.0253 65.0217 49.5557 65.1148L43.6715 66.2789C42.9445 66.4226 42.2349 65.954 42.091 65.2347C41.947 64.5155 42.421 63.8136 43.148 63.6699L49.8886 62.3368C50.8635 62.144 51.6755 61.4479 52.0078 60.52C52.1452 60.1372 51.9423 59.7177 51.5556 59.5826C51.1674 59.4483 50.7436 59.6491 50.6069 60.0318C50.4462 60.4795 50.0696 60.803 49.5993 60.8955L42.6748 62.2653C41.9478 62.409 41.239 61.9411 41.0943 61.2219C40.9525 60.5005 41.4258 59.7978 42.1542 59.6534Z" fill="#6AA6EC"/>
<path d="M27.8778 74.0393L23.1975 74.9651C22.549 75.0936 21.9187 74.6755 21.79 74.0314L19.0202 60.2157C18.8908 59.5715 19.3117 58.9462 19.9602 58.8176L24.6405 57.8919C25.289 57.7633 25.9193 58.1814 26.048 58.8256L28.8178 72.6413C28.9472 73.2854 28.5262 73.9115 27.8778 74.0393Z" fill="#7F99EB"/>
<path d="M31.9327 75.7011C30.9375 75.6231 29.8325 75.1421 29.0771 75.7646L27.6392 73.5636C29.6893 71.1344 33.7509 70.7805 34.1602 70.8022C35.2223 70.8571 35.7247 70.8173 35.7865 70.9683C35.849 71.1192 35.974 72.0825 34.4263 72.0514C32.4838 72.0125 33.5372 73.7066 37.617 72.8039C38.6384 72.5779 40.3985 73.3022 39.638 73.9145C38.8006 74.5897 36.4604 76.0563 31.9327 75.7011Z" fill="#F37A50"/>
<path d="M11.5153 71.2058C10.0221 71.8312 9.47321 76.6745 9.92685 77.0117C16.658 79.1521 29.3853 75.6837 29.3853 75.6837L30.3275 73.2328C30.3282 73.2328 20.2958 73.0111 11.5153 71.2058Z" fill="#F37A50"/>
<path d="M8.20829 57.0652C7.51765 61.4477 8.8066 75.8563 9.92688 77.0117L14.9155 73.1072C14.9155 73.1072 15.4222 58.513 15.4163 56.0333C15.4171 51.7402 9.3213 49.9082 8.20829 57.0652Z" fill="#F37A50"/>
<path d="M48.897 53.0343C48.836 52.9686 48.7924 52.8935 48.756 52.8148C48.7451 52.8249 48.7349 52.8364 48.7233 52.8465C48.0574 53.4553 47.1617 53.5643 46.7226 53.0899C46.6507 53.0119 46.5969 52.9224 46.5576 52.8256C46.0284 53.0509 45.4824 53.0112 45.1683 52.6725C45.044 52.5382 44.9713 52.3707 44.943 52.1865C44.429 52.4458 43.838 52.3988 43.4868 52.0197C43.0477 51.5453 43.1524 50.7394 43.7202 50.2194C44.2887 49.6995 45.1051 49.6634 45.5449 50.1378C45.6561 50.2577 45.7325 50.3992 45.7754 50.5523C46.4115 50.0887 47.1821 50.0396 47.579 50.4686C47.651 50.5466 47.7048 50.6361 47.744 50.7329C48.2733 50.5076 48.8193 50.5473 49.1333 50.886C49.2489 51.0109 49.3201 51.164 49.3521 51.333C49.7978 51.0824 50.3263 51.1127 50.6353 51.4463C51.006 51.8471 50.9181 52.5281 50.4382 52.9664C49.9584 53.4047 49.2685 53.4351 48.897 53.0343Z" fill="#F37A50"/>
<path d="M11.5153 71.2058C10.0221 71.8312 9.47321 76.6745 9.92685 77.0117C16.658 79.1521 28.6816 75.8874 28.6816 75.8874L27.8179 72.4775C27.8179 72.4782 20.2958 73.0111 11.5153 71.2058Z" fill="#0E6A41"/>
<path d="M8.09703 56.9706C7.3635 61.4507 7.948 76.0008 9.92685 77.0118L14.9554 73.1997C14.9554 73.1997 15.5457 58.3159 15.5508 55.7885C15.5712 51.4124 9.27984 49.6554 8.09703 56.9706Z" fill="#0E6A41"/>
<path d="M100.161 6.146H75.6733C72.7835 6.146 70.4419 8.47269 70.4419 11.3424V21.1258C70.4419 23.9962 72.7842 26.3222 75.6733 26.3222H92.5633L91.9701 37.2451C91.9243 38.0827 93.078 38.3658 93.4306 37.6032L98.6366 26.3222H100.162C103.052 26.3222 105.393 23.9955 105.393 21.1258V11.3424C105.392 8.47269 103.05 6.146 100.161 6.146Z" fill="#1B80F5"/>
<path d="M100.828 13.1253H75.3709C74.3829 13.1253 73.5818 12.3296 73.5818 11.3482C73.5818 10.3668 74.3829 9.57104 75.3709 9.57104H100.828C101.816 9.57104 102.617 10.3668 102.617 11.3482C102.617 12.3296 101.816 13.1253 100.828 13.1253Z" fill="white"/>
<path d="M100.828 18.392H75.3709C74.3829 18.392 73.5818 17.5962 73.5818 16.6148C73.5818 15.6334 74.3829 14.8376 75.3709 14.8376H100.828C101.816 14.8376 102.617 15.6334 102.617 16.6148C102.617 17.5969 101.816 18.392 100.828 18.392Z" fill="white"/>
<path d="M101.472 23.6591H83.1692C82.5367 23.6591 82.0242 23.15 82.0242 22.5217V21.2428C82.0242 20.6146 82.5367 20.1055 83.1692 20.1055H101.472C102.104 20.1055 102.617 20.6146 102.617 21.2428V22.5217C102.617 23.15 102.104 23.6591 101.472 23.6591Z" fill="white"/>
</g>
<defs>
<clipPath id="clip0_14:38">
<rect width="281" height="130" fill="white"/>
</clipPath>
</defs>
</svg>
