<svg width="25" height="26" viewBox="0 0 25 26" fill="none" xmlns="http://www.w3.org/2000/svg">
    <g clip-path="url(#clip0_14:260)">
        <path
            d="M20.1324 0C20.5054 0.148828 20.6039 0.437787 20.5878 0.828703C20.5638 1.40372 20.5817 1.40034 21.1488 1.40614C21.5976 1.41097 22.0564 1.37038 22.493 1.45108C23.9855 1.72747 24.976 2.95627 24.9939 4.51752C25.0076 5.70041 24.9977 6.8833 24.9953 8.0662C24.9953 8.1783 24.9718 8.29041 24.9657 8.403C24.9365 8.90988 24.9374 8.90988 24.4283 8.90988C16.4493 8.90988 8.47028 8.90988 0.49129 8.9094C-0.0126663 8.9094 0.0353744 8.95965 0.0311355 8.45567C0.0207738 7.14327 -0.00371755 5.83039 0.00193429 4.518C0.00758614 3.14569 0.795077 1.99952 2.03754 1.57864C2.39125 1.45881 2.78264 1.44044 3.15943 1.41049C3.49666 1.38343 3.83765 1.39889 4.17629 1.4071C4.34773 1.41145 4.43016 1.35395 4.41461 1.16791C4.40472 1.04711 4.42545 0.922928 4.41084 0.803093C4.36375 0.415076 4.50598 0.145929 4.86252 0C4.93034 0 4.99817 0 5.06599 0C5.423 0.172505 5.52708 0.47596 5.48988 0.855279C5.4814 0.94129 5.49741 1.0302 5.48705 1.11621C5.4602 1.34622 5.5544 1.41242 5.77624 1.41C6.811 1.39937 7.84623 1.40904 8.88098 1.4042C9.53942 1.4013 9.457 1.49263 9.44052 0.82532C9.43063 0.432472 9.52388 0.144479 9.90161 0.000483208C9.95248 0.000483208 10.0033 0.000483208 10.0542 0.000483208C10.4169 0.136265 10.5615 0.403479 10.5167 0.791979C10.5049 0.894902 10.5252 1.00169 10.513 1.10413C10.4838 1.35105 10.5944 1.41145 10.82 1.40952C11.8364 1.39937 12.8533 1.40517 13.8697 1.40517C14.4782 1.40517 14.4961 1.40469 14.4735 0.791979C14.4584 0.402029 14.578 0.136265 14.9402 0C14.9911 0 15.042 0 15.0928 0C15.4564 0.139164 15.5921 0.413143 15.5478 0.798744C15.537 0.892969 15.5563 0.991061 15.5445 1.08529C15.513 1.338 15.6152 1.41242 15.8587 1.41C16.8934 1.39792 17.9286 1.40517 18.9634 1.40517C19.5046 1.40517 19.5196 1.40469 19.5003 0.855279C19.4871 0.474994 19.5705 0.172505 19.9285 0C19.9967 0 20.0646 0 20.1324 0Z"
            fill="#1B80F5" />
        <path d="M25 8.66675H0V25.9999H25V8.66675Z" fill="#6AA6EC" />
        <path
            d="M9.26194 13.6595C9.26194 13.9634 9.26477 14.2674 9.26053 14.5713C9.25864 14.7052 9.29161 14.7863 9.44233 14.7854C10.0603 14.782 10.6787 14.7883 11.2966 14.7757C11.3536 14.7747 11.4558 14.6684 11.4567 14.6095C11.4685 13.9755 11.4695 13.3415 11.4567 12.7076C11.4553 12.6448 11.3451 12.5317 11.2834 12.5302C10.674 12.5167 10.064 12.5244 9.45457 12.5201C9.31234 12.5191 9.25723 12.5757 9.26006 12.7206C9.26571 13.0342 9.26194 13.3469 9.26194 13.6595ZM13.5357 13.6508C13.5357 13.946 13.5418 14.2418 13.5333 14.5365C13.5281 14.7076 13.5729 14.7907 13.7594 14.7883C14.3434 14.7796 14.9279 14.782 15.5119 14.7873C15.6678 14.7888 15.7441 14.7453 15.7418 14.5674C15.7347 13.9596 15.7347 13.3512 15.7418 12.7433C15.7437 12.5699 15.6777 12.5182 15.5162 12.5201C14.9322 12.5269 14.3477 12.5283 13.7636 12.5191C13.5814 12.5162 13.5272 12.5882 13.5333 12.7646C13.5427 13.0598 13.5357 13.3556 13.5357 13.6508ZM20.0136 13.6382C20.0136 13.343 20.0075 13.0473 20.016 12.752C20.0207 12.5873 19.9698 12.5177 19.7993 12.5201C19.2064 12.5273 18.6139 12.5278 18.0209 12.5201C17.8471 12.5177 17.8052 12.596 17.8066 12.7559C17.8118 13.3551 17.8122 13.9547 17.8066 14.5539C17.8052 14.7177 17.8556 14.7892 18.0247 14.7873C18.6176 14.781 19.2101 14.7805 19.8031 14.7873C19.976 14.7892 20.0202 14.711 20.016 14.5501C20.008 14.2466 20.0136 13.9422 20.0136 13.6382ZM6.09078 18.4839C6.37903 18.4839 6.66774 18.4761 6.95552 18.4868C7.12978 18.4935 7.1976 18.4336 7.19478 18.249C7.18677 17.6489 7.18677 17.0487 7.19478 16.4486C7.19713 16.2621 7.12036 16.2075 6.95175 16.2094C6.37526 16.2152 5.79877 16.2152 5.22228 16.2094C5.04896 16.2075 4.98208 16.2693 4.98443 16.4529C4.99244 17.0531 4.99291 17.6532 4.98396 18.2534C4.98114 18.4433 5.05602 18.4926 5.22605 18.4868C5.51382 18.4766 5.80254 18.4839 6.09078 18.4839ZM10.3636 18.4839C10.6518 18.4839 10.9405 18.4761 11.2283 18.4868C11.4012 18.493 11.4713 18.4375 11.4685 18.2509C11.46 17.6513 11.4605 17.0507 11.468 16.451C11.4704 16.2659 11.3988 16.2079 11.2278 16.2094C10.6514 16.2152 10.0749 16.2152 9.49838 16.2094C9.32694 16.2075 9.25629 16.2664 9.25864 16.451C9.26665 17.0511 9.26712 17.6513 9.25817 18.2509C9.25535 18.4384 9.32647 18.4926 9.49838 18.4863C9.78662 18.4761 10.0753 18.4839 10.3636 18.4839ZM14.6368 18.4839C14.9336 18.4839 15.2303 18.479 15.527 18.4858C15.6758 18.4892 15.7427 18.4409 15.7413 18.278C15.7357 17.6605 15.7361 17.0429 15.7413 16.4259C15.7427 16.2664 15.6773 16.2104 15.5289 16.2108C14.9355 16.2142 14.342 16.2142 13.7486 16.2108C13.6016 16.2099 13.5329 16.2635 13.5343 16.4239C13.539 17.0415 13.5394 17.659 13.5343 18.2761C13.5329 18.437 13.5969 18.4892 13.7472 18.4858C14.0434 18.4785 14.3401 18.4839 14.6368 18.4839ZM18.9096 18.4839C19.2064 18.4839 19.5031 18.479 19.7998 18.4858C19.9468 18.4892 20.0169 18.4442 20.0155 18.2795C20.0099 17.6619 20.0099 17.0444 20.0155 16.4268C20.0169 16.2679 19.9538 16.2099 19.8045 16.2108C19.2111 16.2142 18.6176 16.2137 18.0237 16.2108C17.8782 16.2099 17.8061 16.2611 17.8071 16.4225C17.8118 17.04 17.8118 17.6576 17.8066 18.2751C17.8052 18.4346 17.8678 18.4897 18.019 18.4858C18.3162 18.4785 18.6129 18.4839 18.9096 18.4839ZM7.19195 21.0371C7.19195 20.7332 7.18536 20.4288 7.19431 20.1253C7.19949 19.9485 7.14391 19.8774 6.96258 19.8803C6.37856 19.889 5.79406 19.8876 5.21004 19.8813C5.04943 19.8794 4.98208 19.9296 4.98396 20.1041C4.99103 20.7119 4.9915 21.3198 4.98396 21.9277C4.98161 22.107 5.05885 22.1475 5.21428 22.1461C5.7983 22.1408 6.3828 22.1384 6.96682 22.1471C7.15286 22.15 7.19902 22.0688 7.19384 21.8968C7.18583 21.6107 7.19195 21.3237 7.19195 21.0371ZM10.3377 22.1437C10.6254 22.1437 10.9137 22.1345 11.201 22.1471C11.3927 22.1553 11.4742 22.1016 11.4695 21.8856C11.4567 21.3043 11.4596 20.7221 11.468 20.1403C11.4709 19.9547 11.4224 19.8755 11.2264 19.8794C10.6509 19.89 10.0753 19.8876 9.49979 19.8803C9.33023 19.8779 9.25582 19.9253 9.25864 20.1142C9.26759 20.7134 9.26759 21.3126 9.25864 21.9117C9.25582 22.1007 9.33071 22.1519 9.50026 22.1461C9.77908 22.1369 10.0584 22.1437 10.3377 22.1437ZM14.6397 22.1437C14.9274 22.1437 15.2157 22.1364 15.503 22.1466C15.6749 22.1524 15.7451 22.0973 15.7427 21.9103C15.7342 21.3111 15.7357 20.7119 15.7418 20.1132C15.7437 19.9489 15.6952 19.8789 15.5251 19.8813C14.9326 19.8885 14.3401 19.8885 13.7476 19.8813C13.5743 19.8794 13.5324 19.9567 13.5338 20.1171C13.5394 20.7163 13.5418 21.3155 13.5329 21.9142C13.53 22.105 13.6092 22.1519 13.7768 22.1466C14.0637 22.1369 14.3519 22.1437 14.6397 22.1437Z"
            fill="white" />
        <path
            d="M9.26198 13.6594C9.26198 13.3468 9.26575 13.0342 9.26057 12.7215C9.25822 12.5766 9.31332 12.52 9.45509 12.521C10.0645 12.5254 10.6745 12.5176 11.2839 12.5312C11.3456 12.5326 11.4558 12.6452 11.4573 12.7085C11.47 13.3425 11.469 13.9764 11.4573 14.6104C11.4563 14.6694 11.3541 14.7752 11.2971 14.7766C10.6792 14.7887 10.0608 14.7829 9.44284 14.7863C9.29166 14.7873 9.25869 14.7061 9.26104 14.5722C9.26481 14.2678 9.26198 13.9634 9.26198 13.6594Z"
            fill="black" />
        <path
            d="M13.5357 13.6508C13.5357 13.3556 13.5428 13.0598 13.5329 12.7651C13.5272 12.5887 13.5809 12.5167 13.7632 12.5196C14.3472 12.5288 14.9317 12.5269 15.5157 12.5206C15.6773 12.5186 15.7432 12.5704 15.7413 12.7438C15.7343 13.3517 15.7343 13.9601 15.7413 14.5679C15.7437 14.7462 15.6674 14.7892 15.5115 14.7878C14.9275 14.7825 14.343 14.7801 13.7589 14.7888C13.5724 14.7917 13.5282 14.7081 13.5329 14.537C13.5418 14.2413 13.5357 13.946 13.5357 13.6508Z"
            fill="black" />
        <path
            d="M20.0136 13.6382C20.0136 13.9421 20.008 14.2466 20.016 14.5505C20.0202 14.7114 19.9759 14.7897 19.8031 14.7878C19.2101 14.781 18.6176 14.781 18.0246 14.7878C17.8555 14.7897 17.8051 14.7182 17.8066 14.5544C17.8122 13.9552 17.8117 13.3555 17.8066 12.7564C17.8051 12.5964 17.8471 12.5186 18.0209 12.5205C18.6134 12.5283 19.2063 12.5278 19.7993 12.5205C19.9698 12.5186 20.0207 12.5882 20.016 12.7525C20.0075 13.0472 20.0136 13.343 20.0136 13.6382Z"
            fill="black" />
        <path
            d="M6.09078 18.484C5.80254 18.484 5.51382 18.4767 5.22605 18.4869C5.05602 18.4927 4.98114 18.4434 4.98396 18.2535C4.99291 17.6533 4.99244 17.0532 4.98443 16.4531C4.98208 16.2694 5.04896 16.2076 5.22228 16.2095C5.79877 16.2158 6.37526 16.2153 6.95175 16.2095C7.12083 16.2081 7.19713 16.2622 7.19477 16.4487C7.18724 17.0488 7.18724 17.649 7.19477 18.2491C7.19713 18.4337 7.12978 18.4932 6.95551 18.4869C6.66774 18.4762 6.37903 18.484 6.09078 18.484Z"
            fill="black" />
        <path
            d="M10.3636 18.4837C10.0753 18.4837 9.7866 18.476 9.49883 18.4866C9.32645 18.4929 9.2558 18.4388 9.25863 18.2513C9.2671 17.6517 9.2671 17.051 9.2591 16.4514C9.25674 16.2663 9.32739 16.2078 9.49883 16.2098C10.0753 16.2156 10.6518 16.2156 11.2283 16.2098C11.3993 16.2078 11.4713 16.2663 11.4685 16.4514C11.4605 17.0515 11.4605 17.6517 11.469 18.2513C11.4718 18.4383 11.4011 18.4934 11.2288 18.4871C10.94 18.476 10.6518 18.4837 10.3636 18.4837Z"
            fill="black" />
        <path
            d="M14.6369 18.4837C14.3402 18.4837 14.0434 18.4784 13.7467 18.4857C13.5965 18.4895 13.5324 18.4368 13.5338 18.2759C13.539 17.6584 13.539 17.0409 13.5338 16.4238C13.5324 16.2629 13.6012 16.2097 13.7481 16.2107C14.3416 16.2141 14.935 16.2141 15.5285 16.2107C15.6768 16.2097 15.7423 16.2658 15.7409 16.4257C15.7357 17.0433 15.7357 17.6608 15.7409 18.2779C15.7423 18.4407 15.6754 18.4895 15.5266 18.4857C15.2303 18.4789 14.9336 18.4837 14.6369 18.4837Z"
            fill="black" />
        <path
            d="M18.9096 18.484C18.6129 18.484 18.3162 18.4787 18.0194 18.4864C17.8678 18.4902 17.8056 18.4352 17.807 18.2757C17.8117 17.6582 17.8117 17.0406 17.8075 16.4231C17.8061 16.2617 17.8786 16.2105 18.0242 16.2114C18.6176 16.2143 19.211 16.2148 19.805 16.2114C19.9543 16.2105 20.0174 16.2685 20.016 16.4274C20.0108 17.045 20.0103 17.6625 20.016 18.2801C20.0174 18.4448 19.9472 18.4898 19.8002 18.4864C19.5035 18.4791 19.2063 18.484 18.9096 18.484Z"
            fill="black" />
        <path
            d="M7.19194 21.037C7.19194 21.3236 7.18582 21.6106 7.1943 21.8966C7.19948 22.0682 7.15285 22.1494 6.96728 22.1469C6.38326 22.1382 5.79876 22.1402 5.21474 22.146C5.05931 22.1474 4.98207 22.1068 4.98443 21.9276C4.99196 21.3197 4.99149 20.7118 4.98443 20.1039C4.98254 19.9295 5.04989 19.8797 5.2105 19.8812C5.79452 19.8875 6.37902 19.8894 6.96304 19.8802C7.14437 19.8773 7.19995 19.9488 7.19477 20.1252C7.18535 20.4287 7.19194 20.7331 7.19194 21.037Z"
            fill="black" />
        <path
            d="M10.3376 22.1436C10.0583 22.1436 9.77857 22.1368 9.49975 22.146C9.33019 22.1518 9.25531 22.1011 9.25813 21.9117C9.26708 21.3125 9.26708 20.7133 9.25813 20.1141C9.25531 19.9252 9.32972 19.8778 9.49928 19.8803C10.0748 19.8875 10.6508 19.8899 11.2259 19.8793C11.4223 19.8754 11.4704 19.9547 11.4675 20.1402C11.4591 20.722 11.4558 21.3038 11.4689 21.8856C11.4737 22.1011 11.3922 22.1547 11.2005 22.147C10.9137 22.1344 10.6254 22.1436 10.3376 22.1436Z"
            fill="black" />
        <path
            d="M14.6397 22.1438C14.3519 22.1438 14.0637 22.137 13.7764 22.1462C13.6092 22.1515 13.53 22.1051 13.5324 21.9138C13.5413 21.3146 13.539 20.7154 13.5333 20.1167C13.5319 19.9563 13.5734 19.8785 13.7472 19.8809C14.3397 19.8882 14.9322 19.8882 15.5247 19.8809C15.6947 19.879 15.7432 19.9486 15.7413 20.1129C15.7352 20.712 15.7333 21.3112 15.7423 21.9099C15.7451 22.0969 15.6744 22.152 15.5025 22.1462C15.2152 22.1365 14.9275 22.1438 14.6397 22.1438Z"
            fill="black" />
    </g>
    <defs>
        <clipPath id="clip0_14:260">
            <rect width="25" height="26" fill="white" />
        </clipPath>
    </defs>
</svg>
