<svg width="104" height="47" viewBox="0 0 104 47" fill="none" xmlns="http://www.w3.org/2000/svg">
<g clip-path="url(#clip0_16:27)">
<path d="M82.3212 19.814V12.1888C82.3212 10.4055 80.6017 8.95939 78.4808 8.95939H64.9659V21.5399H58.1455V5.87573H80.6742C83.509 5.87573 85.8062 8.15976 85.8062 10.9769V19.814H82.3212Z" fill="#352E35"/>
<path d="M8.60339 26.0092C8.60339 26.0092 6.09888 26.0092 5.70491 26.0092C5.30946 26.0092 4.98659 23.5706 5.70491 23.3173C6.42175 23.064 8.60339 22.3616 8.60339 22.3616V26.0092Z" fill="#F29100"/>
<path d="M26.2046 34.7478L97.0269 36.3147C99.2426 36.3147 99.7136 38.101 99.7136 38.101V42.1256C99.7136 42.1256 99.6884 43.4907 98.3717 43.4907H30.3057L26.2046 34.7478Z" fill="#352E35"/>
<path d="M100.394 41.9166C100.394 41.9166 100.779 41.9166 102.605 41.9166C104.431 41.9166 104.378 38.0981 102.953 38.0981C101.53 38.0981 100.394 38.0981 100.394 38.0981V41.9166Z" fill="#F29100"/>
<path d="M10.4414 40.5396H84.5577L89.7059 36.4428H96.2419C97.5201 36.4428 98.2118 36.0496 98.2118 34.0321V19.683H61.8112C61.8112 19.683 61.8112 6.65325 61.8112 4.97152C61.8112 3.42233 60.8485 2.54318 59.2697 2.54318C56.3416 2.54318 43.1393 2.51372 40.1771 2.6227C38.6679 2.67866 38.031 3.29863 37.1824 4.97152C35.8731 7.55596 29.8999 16.3548 29.8999 16.3548L8.60342 19.814C8.60342 19.814 7.84215 21.5193 7.7755 22.1584C7.45707 25.1331 6.94165 28.6129 6.94165 28.6129C6.94165 28.6129 9.5839 40.5396 10.4414 40.5396Z" fill="#1B80F5"/>
<path d="M56.7562 19.4722C57.6256 19.4722 57.8003 19.2837 57.8003 18.3559V5.75769C57.8003 4.82552 57.6122 4.62524 56.7414 4.62524H40.5058C39.6778 4.62524 39.3979 5.02432 38.8647 6.39827L33.0767 16.7449C33.167 17.7109 34.808 19.4722 35.6523 19.4722H56.7562Z" fill="#A0D1D8"/>
<path d="M40.5059 4.96698H56.7415C57.3754 4.96698 57.4569 4.96699 57.4569 5.75925V18.3575C57.4569 19.1335 57.4035 19.1335 56.7548 19.1335H35.6539C35.0259 19.1335 33.6055 17.6094 33.4337 16.8127L39.1448 6.61042L39.1685 6.56919L39.1848 6.52501C39.7298 5.11866 39.9342 4.96698 40.5059 4.96698ZM40.5059 4.28369C39.4217 4.28369 39.0663 4.93017 38.5449 6.27467L32.7302 16.6625C32.7302 17.764 34.5697 19.8124 35.6539 19.8124H56.7563C57.8405 19.8124 58.1441 19.4546 58.1441 18.3545V5.75778C58.1441 4.65774 57.8256 4.28369 56.743 4.28369H40.5059Z" fill="#5F9FAE"/>
<path d="M51.802 12.2462C49.1346 14.0663 45.7325 14.9956 42.5156 15.4918C39.6808 15.9292 36.9097 15.9086 34.2749 15.4315L39.201 7.02872C39.7045 5.79025 40.0467 5.19531 41.0923 5.19531H56.7503C56.8155 5.19531 56.8688 5.19973 56.9295 5.20268C56.5118 8.05219 54.1732 10.6278 51.802 12.2462Z" fill="#B9DADA"/>
<path d="M45.1462 24.1864C45.1462 24.6311 45.4321 24.9949 45.7861 24.9949H48.8312C49.1837 24.9949 49.4695 24.6326 49.4695 24.1864C49.4695 23.7402 49.1837 23.3779 48.8312 23.3779H45.7861C45.4321 23.3779 45.1462 23.7387 45.1462 24.1864Z" fill="#352E35"/>
<path d="M94.2483 40.008C94.2483 41.1787 94.2527 42.1256 95.679 42.1256H100.242C101.669 42.1256 101.673 41.1773 101.673 40.008C101.673 38.8373 101.669 37.8889 100.242 37.8889H95.679C94.2527 37.8889 94.2483 38.8373 94.2483 40.008Z" fill="#9C9B9B"/>
<path d="M24.1459 27.5261H4.8489L1.8186 30.4257L2.74132 35.2382C2.74132 35.2382 4.99404 40.5396 6.92241 40.5396C10.9095 40.5396 30.6849 40.5396 30.6849 40.5396L24.1459 27.5261Z" fill="#272126"/>
<path d="M24.1709 38.1393C24.1709 43.0343 20.1809 47 15.2607 47C10.3406 47 6.35205 43.0343 6.35205 38.1393C6.35205 33.2487 10.3421 29.28 15.2607 29.28C20.1824 29.28 24.1709 33.2487 24.1709 38.1393Z" fill="#352E35"/>
<path d="M21.1658 38.1394C21.1658 41.3821 18.5236 44.0122 15.2622 44.0122C12.0024 44.0122 9.35864 41.3835 9.35864 38.1394C9.35864 34.8981 12.0024 32.2695 15.2622 32.2695C18.5236 32.2695 21.1658 34.8981 21.1658 38.1394Z" fill="#868686"/>
<path d="M20.0833 38.1393C20.0833 40.7871 17.9238 42.9327 15.2609 42.9327C12.5994 42.9327 10.4399 40.7871 10.4399 38.1393C10.4399 35.4915 12.5994 33.3459 15.2609 33.3459C17.9238 33.3459 20.0833 35.4915 20.0833 38.1393Z" stroke="#575756" stroke-width="0.9869" stroke-linecap="round" stroke-linejoin="round"/>
<path d="M17.5417 38.1394C17.5417 39.3926 16.5212 40.4072 15.2608 40.4072C14.0019 40.4072 12.9814 39.3911 12.9814 38.1394C12.9814 36.8877 14.0034 35.873 15.2608 35.873C16.5212 35.873 17.5417 36.8877 17.5417 38.1394Z" fill="#9C9B9B"/>
<path d="M3.86555 30.8969C3.32496 31.938 2.74141 35.2396 2.74141 35.2396C2.74141 35.2396 -0.780598 34.9215 0.159888 32.2693C0.799715 30.461 1.07075 29.408 2.04086 27.6998C2.98727 26.0313 4.45058 25.3672 7.08246 25.3672H21.1972C23.7091 25.3672 25.2138 26.3774 26.024 27.6365C27.4606 29.869 32.68 40.541 32.68 40.541L29.0469 40.8856C27.6532 37.8137 25.1072 32.2664 24.2674 30.838C23.5787 29.6672 22.2976 28.7262 20.1604 28.7262H8.15328C5.91389 28.7262 4.67126 29.3433 3.86555 30.8969Z" fill="#352E35"/>
<path d="M68.1845 27.5261H87.4829L90.5132 30.4257V38.2939C90.5132 38.2939 87.3363 40.5396 85.4094 40.5396C81.4209 40.5396 61.647 40.5396 61.647 40.5396L68.1845 27.5261Z" fill="#272126"/>
<path d="M68.5015 38.1393C68.5015 43.0343 72.4915 47 77.4116 47C82.3333 47 86.3203 43.0343 86.3203 38.1393C86.3203 33.2487 82.3318 29.28 77.4116 29.28C72.49 29.28 68.5015 33.2487 68.5015 38.1393Z" fill="#352E35"/>
<path d="M71.5063 38.1394C71.5063 41.3821 74.1486 44.0122 77.4099 44.0122C80.6713 44.0122 83.3135 41.3835 83.3135 38.1394C83.3135 34.8981 80.6698 32.2695 77.4099 32.2695C74.1486 32.2695 71.5063 34.8981 71.5063 38.1394Z" fill="#868686"/>
<path d="M72.5891 38.1393C72.5891 40.7871 74.7485 42.9327 77.41 42.9327C80.0715 42.9327 82.2309 40.7871 82.2309 38.1393C82.2309 35.4915 80.0715 33.3459 77.41 33.3459C74.7485 33.3459 72.5891 35.4915 72.5891 38.1393Z" stroke="#575756" stroke-width="0.9869" stroke-linecap="round" stroke-linejoin="round"/>
<path d="M75.1306 38.1394C75.1306 39.3926 76.1526 40.4072 77.4115 40.4072C78.6704 40.4072 79.6908 39.3911 79.6908 38.1394C79.6908 36.8877 78.6704 35.873 77.4115 35.873C76.1526 35.873 75.1306 36.8877 75.1306 38.1394Z" fill="#9C9B9B"/>
<path d="M88.8083 30.8969C89.3474 31.938 90.8552 38.2938 90.8552 38.2938C90.8552 38.2938 94.3772 37.9772 93.4382 35.3235C92.7983 33.5152 91.6031 29.4066 90.633 27.6983C89.6866 26.0299 88.2233 25.3657 85.5914 25.3657H71.4767C68.9648 25.3657 67.46 26.3759 66.6499 27.635C65.2132 29.8675 59.9939 40.5396 59.9939 40.5396L63.627 40.8841C65.0207 37.8123 67.5652 32.2649 68.4064 30.8365C69.0951 29.6658 70.3763 28.7248 72.512 28.7248H84.5191C86.7585 28.7262 88.0026 29.3433 88.8083 30.8969Z" fill="#352E35"/>
<path d="M28.1641 20.7242C28.1641 21.1955 29.4363 21.1955 29.4363 20.7242V18.2679C29.4363 17.7967 29.1519 17.4153 28.7994 17.4153C28.4484 17.4153 28.1641 17.7982 28.1641 18.2679V20.7242Z" fill="#352E35"/>
<path d="M29.0201 0H28.5654V18.9967H29.0201V0Z" fill="#352E35"/>
</g>
<defs>
<clipPath id="clip0_16:27">
<rect width="104" height="47" fill="white"/>
</clipPath>
</defs>
</svg>
