<svg width="111" height="39" viewBox="0 0 111 39" fill="none" xmlns="http://www.w3.org/2000/svg">
<path d="M107.268 33.3059C107.268 33.6882 106.961 33.9985 106.582 33.9985C106.204 33.9985 105.896 33.6882 105.896 33.3059V28.1919C105.896 27.8096 106.204 27.4993 106.582 27.4993C106.961 27.4993 107.268 27.8096 107.268 28.1919V33.3059Z" fill="#F0851D"/>
<path d="M111 27.742C111 28.0074 110.786 28.2278 110.523 28.2278C110.261 28.2278 110.042 28.0119 110.042 27.742V24.1708C110.042 23.9054 110.256 23.6851 110.523 23.6851C110.786 23.6851 111 23.901 111 24.1708V27.742Z" fill="#F7971E"/>
<path d="M0.556641 34.7721C0.556641 35.7886 1.37164 36.6161 2.38259 36.6161H11.3565C12.363 36.6161 13.1824 35.7931 13.1824 34.7721V32.0059C13.1824 30.9895 12.363 30.1619 11.3565 30.1619H2.38259C1.37609 30.1619 0.556641 30.985 0.556641 32.0059V34.7721Z" fill="#333333"/>
<path d="M20.9495 25.6777C20.9495 26.6941 21.7645 27.5217 22.7754 27.5217H23.341C24.3475 27.5217 25.167 26.6986 25.167 25.6777V8.59969C25.167 7.5832 24.3475 6.75562 23.341 6.75562H22.7754C21.7689 6.75562 20.9495 7.5787 20.9495 8.59969V25.6777Z" fill="#1A1A1A"/>
<path d="M20.9495 25.6777C20.9495 26.6941 21.7645 27.5217 22.7754 27.5217H23.341C24.3475 27.5217 25.167 26.6986 25.167 25.6777V8.59969C25.167 7.5832 24.3475 6.75562 23.341 6.75562H22.7754C21.7689 6.75562 20.9495 7.5787 20.9495 8.59969V25.6777Z" fill="#1A1A1A"/>
<path d="M0 17.2488V23.5141C0 25.2907 0.757102 26.8919 1.96846 28.0074C3.03731 28.9969 4.46245 29.5951 6.02118 29.5951H16.4202C19.7425 29.5951 22.4414 26.8649 22.4414 23.5141V6.60258C22.4414 6.37769 22.3078 6.17979 22.1074 6.08983C21.0118 5.63106 19.5867 5.38818 17.9923 5.38818C16.104 5.38818 14.0197 5.72552 11.9578 6.3552C11.5124 6.49013 11.0359 6.65205 10.5104 6.84995C8.73339 7.20078 6.36856 8.37469 4.4669 9.85445C3.54502 10.5696 2.75674 11.3252 2.11098 12.1033C1.95956 12.2832 1.81704 12.4676 1.67898 12.6521C0.583414 14.1498 0 15.7195 0 17.2488Z" fill="#6AA6EC"/>
<path d="M0 17.249V22.7317L1.84822 22.5293L1.96846 22.5158L3.87458 22.3089L5.2819 22.156L9.29899 21.7152L10.8132 21.5488C12.7416 21.5488 14.3003 20.5728 14.3003 19.3719V14.2895C14.3003 13.0931 12.7416 12.1125 10.8132 12.1125H2.11543C1.96401 12.2925 1.8215 12.4769 1.68344 12.6613C1.17573 13.3494 0.779369 14.0601 0.50325 14.7707C0.169234 15.5938 0 16.4304 0 17.249Z" fill="#4D4D4D"/>
<path d="M4.83205 8.96855C4.83205 9.80514 5.38874 10.5113 6.14139 10.7362C6.30617 10.7856 6.4754 10.8081 6.658 10.8081H20.6198C21.6263 10.8081 22.4458 9.98055 22.4458 8.96406V4.29989C22.4458 3.2834 21.6308 2.45581 20.6198 2.45581L9.94026 4.29989C4.10612 5.2759 4.83205 8.96855 4.83205 8.96855Z" fill="#CCCCCC"/>
<path d="M6.14139 10.7362C6.30617 10.7856 6.4754 10.8081 6.658 10.8081H20.6198C21.6263 10.8081 22.4458 9.98053 22.4458 8.96404V4.35834C22.2855 4.30887 22.1162 4.28638 21.9381 4.28638L11.263 6.13046C5.86082 7.03001 6.07904 10.2594 6.14139 10.7362Z" fill="#E6E6E6"/>
<path d="M0 26.937V33.0494C0 33.4767 0.142513 33.8635 0.383004 34.1784C0.391911 34.1919 0.400818 34.2099 0.414179 34.2189C0.699205 34.5652 1.10448 34.8081 1.56319 34.871C1.64781 34.8845 1.73688 34.8935 1.82595 34.8935H20.6199C21.6264 34.8935 22.4458 34.0704 22.4458 33.0494V22.7811C22.4458 22.1874 22.4458 21.7781 22.4458 21.7781L1.87494 25.0884L1.82595 25.0929C1.37614 25.0929 0.966418 25.2548 0.650217 25.5292C0.414179 25.7316 0.22713 25.9925 0.115792 26.2938C0.0400818 26.4962 0 26.7121 0 26.937Z" fill="#6AA6EC"/>
<path d="M50.2849 34.5786C50.2849 37.0209 52.2445 38.9999 54.6672 38.9999C57.0855 38.9999 59.045 37.0209 59.045 34.5786C59.045 32.1363 57.0855 30.1528 54.6672 30.1528C52.2445 30.1528 50.2849 32.1318 50.2849 34.5786Z" fill="#333333"/>
<path d="M50.717 34.5155C50.717 36.7194 52.4851 38.505 54.6629 38.505C56.8451 38.505 58.6087 36.7194 58.6087 34.5155C58.6087 32.3161 56.8407 30.5305 54.6629 30.5305C52.4851 30.5305 50.717 32.3116 50.717 34.5155Z" fill="#1A1A1A"/>
<path d="M52.2668 34.5609C52.2668 35.8967 53.3401 36.9807 54.6628 36.9807C55.9855 36.9807 57.0588 35.8967 57.0588 34.5609C57.0588 33.2251 55.9855 32.1411 54.6628 32.1411C53.3401 32.1456 52.2668 33.2251 52.2668 34.5609Z" fill="#666666"/>
<path d="M52.0842 34.5607C52.0842 33.126 53.2421 31.9565 54.6628 31.9565C56.0835 31.9565 57.2414 33.126 57.2414 34.5607C57.2414 35.9955 56.0835 37.1649 54.6628 37.1649C53.2421 37.1649 52.0842 36 52.0842 34.5607ZM52.4494 34.5607C52.4494 35.7931 53.4426 36.7961 54.6628 36.7961C55.8831 36.7961 56.8762 35.7931 56.8762 34.5607C56.8762 33.3284 55.8831 32.3254 54.6628 32.3254C53.4426 32.3299 52.4494 33.3284 52.4494 34.5607Z" fill="#808080"/>
<path d="M71.5552 34.5786C71.5552 37.0209 73.5147 38.9999 75.9375 38.9999C78.3557 38.9999 80.3198 37.0209 80.3198 34.5786C80.3198 32.1363 78.3602 30.1528 75.9375 30.1528C73.5192 30.1528 71.5552 32.1318 71.5552 34.5786Z" fill="#333333"/>
<path d="M71.9873 34.5155C71.9873 36.7194 73.7554 38.505 75.9331 38.505C78.1154 38.505 79.879 36.7194 79.879 34.5155C79.879 32.3161 78.1109 30.5305 75.9331 30.5305C73.7554 30.5305 71.9873 32.3116 71.9873 34.5155Z" fill="#1A1A1A"/>
<path d="M73.5415 34.5609C73.5415 35.8967 74.6148 36.9807 75.9375 36.9807C77.2602 36.9807 78.3335 35.8967 78.3335 34.5609C78.3335 33.2251 77.2602 32.1411 75.9375 32.1411C74.6148 32.1456 73.5415 33.2251 73.5415 34.5609Z" fill="#666666"/>
<path d="M73.3589 34.5607C73.3589 33.126 74.5168 31.9565 75.9375 31.9565C77.3582 31.9565 78.5161 33.126 78.5161 34.5607C78.5161 35.9955 77.3582 37.1649 75.9375 37.1649C74.5168 37.1649 73.3589 36 73.3589 34.5607ZM73.7241 34.5607C73.7241 35.7931 74.7172 36.7961 75.9375 36.7961C77.1578 36.7961 78.1509 35.7931 78.1509 34.5607C78.1509 33.3284 77.1578 32.3254 75.9375 32.3254C74.7172 32.3299 73.7241 33.3284 73.7241 34.5607Z" fill="#808080"/>
<path d="M92.8296 34.5786C92.8296 37.0209 94.7891 38.9999 97.2119 38.9999C99.6301 38.9999 101.594 37.0209 101.594 34.5786C101.594 32.1363 99.6301 30.1528 97.2119 30.1528C94.7891 30.1528 92.8296 32.1318 92.8296 34.5786Z" fill="#333333"/>
<path d="M93.2617 34.5155C93.2617 36.7194 95.0298 38.505 97.2076 38.505C99.3853 38.505 101.153 36.7194 101.153 34.5155C101.153 32.3161 99.3853 30.5305 97.2076 30.5305C95.0298 30.5305 93.2617 32.3116 93.2617 34.5155Z" fill="#1A1A1A"/>
<path d="M94.8159 34.5609C94.8159 35.8967 95.8892 36.9807 97.2119 36.9807C98.5346 36.9807 99.6079 35.8967 99.6079 34.5609C99.6079 33.2251 98.5346 32.1411 97.2119 32.1411C95.8848 32.1456 94.8159 33.2251 94.8159 34.5609Z" fill="#666666"/>
<path d="M94.6333 34.5607C94.6333 33.126 95.7912 31.9565 97.2119 31.9565C98.6326 31.9565 99.7905 33.126 99.7905 34.5607C99.7905 35.9955 98.6326 37.1649 97.2119 37.1649C95.7868 37.1649 94.6333 36 94.6333 34.5607ZM94.9985 34.5607C94.9985 35.7931 95.9916 36.7961 97.2119 36.7961C98.4322 36.7961 99.4253 35.7931 99.4253 34.5607C99.4253 33.3284 98.4322 32.3254 97.2119 32.3254C95.9916 32.3299 94.9985 33.3284 94.9985 34.5607Z" fill="#808080"/>
<path d="M28.3245 30.8366C28.3245 31.8531 29.1439 32.6806 30.1504 32.6806H42.8029C43.8094 32.6806 44.6289 31.8575 44.6289 30.8366V27.6746C44.6289 26.6582 43.8139 25.8306 42.8029 25.8306H30.1504C29.1439 25.8306 28.3245 26.6537 28.3245 27.6746V30.8366Z" fill="#1A1A1A"/>
<path d="M36.5146 30.5308H14.9417V36.985H36.5146V30.5308Z" fill="#808080"/>
<path d="M47.1807 33.7871C47.1807 34.8036 47.9957 35.6312 49.0066 35.6312H104.645C105.651 35.6312 106.471 34.8081 106.471 33.7871V29.3658C106.471 28.3493 105.651 27.5217 104.645 27.5217H49.0066C48.0001 27.5217 47.1807 28.3448 47.1807 29.3658V33.7871Z" fill="#4D4D4D"/>
<path d="M10.5637 34.5786C10.5637 37.0209 12.5233 38.9999 14.946 38.9999C17.3643 38.9999 19.3238 37.0209 19.3238 34.5786C19.3238 32.1363 17.3643 30.1528 14.946 30.1528C12.5233 30.1528 10.5637 32.1318 10.5637 34.5786Z" fill="#333333"/>
<path d="M10.9958 34.5155C10.9958 36.7194 12.7639 38.505 14.9417 38.505C17.1239 38.505 18.8875 36.7194 18.8875 34.5155C18.8875 32.3161 17.1195 30.5305 14.9417 30.5305C12.7639 30.5305 10.9958 32.3116 10.9958 34.5155Z" fill="#1A1A1A"/>
<path d="M12.55 34.5609C12.55 35.8967 13.6234 36.9807 14.9461 36.9807C16.2688 36.9807 17.3421 35.8967 17.3421 34.5609C17.3421 33.2251 16.2688 32.1411 14.9461 32.1411C13.6189 32.1456 12.55 33.2251 12.55 34.5609Z" fill="#666666"/>
<path d="M12.3674 34.5607C12.3674 33.126 13.5254 31.9565 14.946 31.9565C16.3667 31.9565 17.5246 33.126 17.5246 34.5607C17.5246 35.9955 16.3667 37.1649 14.946 37.1649C13.5209 37.1649 12.3674 36 12.3674 34.5607ZM12.7326 34.5607C12.7326 35.7931 13.7258 36.7961 14.946 36.7961C16.1663 36.7961 17.1594 35.7931 17.1594 34.5607C17.1594 33.3284 16.1663 32.3254 14.946 32.3254C13.7258 32.3254 12.7326 33.3284 12.7326 34.5607Z" fill="#808080"/>
<path d="M13.7212 34.5787C13.7212 35.2623 14.269 35.8156 14.9459 35.8156C15.6229 35.8156 16.1706 35.2623 16.1706 34.5787C16.1706 33.895 15.6229 33.3418 14.9459 33.3418C14.269 33.3418 13.7212 33.895 13.7212 34.5787Z" fill="#808080"/>
<path d="M33.9004 34.5786C33.9004 37.0209 35.8599 38.9999 38.2827 38.9999C40.7009 38.9999 42.6605 37.0209 42.6605 34.5786C42.6605 32.1363 40.7009 30.1528 38.2827 30.1528C35.8599 30.1528 33.9004 32.1318 33.9004 34.5786Z" fill="#333333"/>
<path d="M34.3325 34.5155C34.3325 36.7194 36.1006 38.505 38.2784 38.505C40.4561 38.505 42.2242 36.7194 42.2242 34.5155C42.2242 32.3161 40.4561 30.5305 38.2784 30.5305C36.1006 30.5305 34.3325 32.3116 34.3325 34.5155Z" fill="#1A1A1A"/>
<path d="M35.8867 34.5609C35.8867 35.8967 36.96 36.9807 38.2827 36.9807C39.6054 36.9807 40.6787 35.8967 40.6787 34.5609C40.6787 33.2251 39.6054 32.1411 38.2827 32.1411C36.96 32.1456 35.8867 33.2251 35.8867 34.5609Z" fill="#666666"/>
<path d="M35.7041 34.5607C35.7041 33.126 36.862 31.9565 38.2827 31.9565C39.7034 31.9565 40.8613 33.126 40.8613 34.5607C40.8613 35.9955 39.7034 37.1649 38.2827 37.1649C36.862 37.1649 35.7041 36 35.7041 34.5607ZM36.0693 34.5607C36.0693 35.7931 37.0624 36.7961 38.2827 36.7961C39.503 36.7961 40.4961 35.7931 40.4961 34.5607C40.4961 33.3284 39.503 32.3254 38.2827 32.3254C37.0624 32.3299 36.0693 33.3284 36.0693 34.5607Z" fill="#808080"/>
<path d="M37.0579 34.5787C37.0579 35.2623 37.6056 35.8156 38.2826 35.8156C38.9595 35.8156 39.5073 35.2623 39.5073 34.5787C39.5073 33.895 38.9595 33.3418 38.2826 33.3418C37.6056 33.3418 37.0579 33.895 37.0579 34.5787Z" fill="#808080"/>
<path d="M8.98291 16.0931V20.6718C8.98291 21.0586 9.0987 21.4139 9.30356 21.7108L10.8178 21.5444C12.7462 21.5444 14.3049 20.5684 14.3049 19.3675V14.6943C13.9887 14.4154 13.5701 14.249 13.1202 14.249H10.8044C9.79791 14.249 8.98291 15.0766 8.98291 16.0931Z" fill="#333333"/>
<path d="M0 17.2489V22.7316L1.84822 22.5292L5.2819 22.1514C5.31752 21.8591 5.28635 21.5487 5.17056 21.2564L3.02395 15.7376C2.65431 14.7931 1.59882 14.3253 0.659124 14.6986L0.50325 14.7616C0.169234 15.5937 0 16.4303 0 17.2489Z" fill="#333333"/>
<path d="M1.96849 22.5157L3.8746 22.3088L6.03457 20.5412C6.32405 20.3029 6.36859 19.8801 6.13255 19.5922C6.0034 19.4258 5.81189 19.3403 5.61594 19.3403C5.46452 19.3403 5.31755 19.3898 5.19285 19.4933L2.21343 21.9265C2.03084 22.0705 1.95068 22.2999 1.96849 22.5157Z" fill="#1A1A1A"/>
<path d="M1.0957 17.2489V22.7317L2.49411 22.5788V17.2489C2.49411 15.7197 3.07753 14.15 4.17755 12.6522C4.31116 12.4678 4.45367 12.2834 4.60955 12.1035H3.20668C3.05526 12.2834 2.91275 12.4678 2.77469 12.6522C1.67912 14.15 1.0957 15.7197 1.0957 17.2489Z" fill="#B2B2B2"/>
<path d="M0 27.0269C0 27.0314 0 27.0314 0 27.0359V34.2908C0 34.5291 0.0623495 34.7495 0.173688 34.9474C0.173688 34.9519 0.173688 34.9564 0.178142 34.9564C0.409726 35.3612 0.837265 35.6311 1.32715 35.6311C1.40732 35.6311 1.48748 35.6221 1.56319 35.6086C1.83486 35.5591 2.0798 35.4287 2.2624 35.2398C2.49844 34.9969 2.64986 34.6596 2.64986 34.2908V27.0359C2.64986 26.4962 2.33365 26.0329 1.87494 25.8215C1.70571 25.7405 1.51866 25.6956 1.3227 25.6956C1.01986 25.6956 0.734834 25.8035 0.512157 25.9744C0.463168 26.0104 0.423086 26.0464 0.383004 26.0869C0.15142 26.3342 0.00445354 26.6626 0 27.0269Z" fill="#808080"/>
<path d="M0 28.1424V34.2909C0 34.5292 0.0623495 34.7496 0.173688 34.9475C0.244945 34.9385 0.316201 34.9295 0.387458 34.9161C0.71702 34.8441 1.01095 34.6777 1.24254 34.4438C1.43849 34.2459 1.58991 33.994 1.67453 33.7152C1.72797 33.5532 1.75024 33.3823 1.75024 33.2024V29.8921C1.75024 29.5277 1.6389 29.1904 1.45185 28.9026C1.13565 28.4438 0.614588 28.1379 0.0178142 28.1379H0V28.1424Z" fill="#F7971E"/>
<path d="M0 27.0271C0 27.0316 0 27.0316 0 27.0361V29.2535H0.64131C0.957511 29.2535 1.24254 29.1231 1.44295 28.9027C1.63 28.7048 1.74133 28.4394 1.74133 28.138C1.74133 27.9761 1.71016 27.8232 1.64781 27.6883C1.59437 27.5623 1.5142 27.4454 1.42068 27.3509C1.36724 27.297 1.30489 27.2475 1.23808 27.2025C1.0644 27.0901 0.863987 27.0271 0.64131 27.0271H0Z" fill="white"/>
<path d="M0 33.2024V34.2908C0 34.5292 0.0623495 34.7496 0.173688 34.9475C0.120246 34.952 0.0668031 34.9565 0.0133606 34.9565H0.877347C1.35833 34.9565 1.74579 34.5652 1.74579 34.0795C1.74579 33.949 1.71907 33.8276 1.67008 33.7196C1.62554 33.6252 1.56765 33.5352 1.49194 33.4633C1.33606 33.3013 1.11784 33.2024 0.877347 33.2024H0Z" fill="#F15723"/>
<path d="M6.08806 25.075C6.15041 25.4528 6.49779 25.7092 6.87189 25.6462L8.94278 25.3089C9.31688 25.2459 9.57073 24.8951 9.50838 24.5172C9.45048 24.1394 9.09865 23.8831 8.72456 23.946L6.65366 24.2834C6.28402 24.3418 6.03017 24.6972 6.08806 25.075Z" fill="#4D4D4D"/>
<path d="M22.4458 10.8081H18.0769V30.5307H22.4458V10.8081Z" fill="#1B80F5"/>
<path d="M9.34799 35.811C9.97594 35.811 10.4881 35.2938 10.4881 34.6596C10.4881 32.1768 12.4877 30.1618 14.9416 30.1618C17.4 30.1618 19.3952 32.1813 19.3952 34.6596C19.3952 35.2938 19.9073 35.811 20.5353 35.811C21.1677 35.811 21.6754 35.2938 21.6754 34.6596C21.6754 30.9085 18.6514 27.8545 14.9372 27.8545C11.2229 27.8545 8.19897 30.9085 8.19897 34.6596C8.20788 35.2983 8.71559 35.811 9.34799 35.811Z" fill="#B2B2B2"/>
<path d="M32.6844 35.811C33.3168 35.811 33.8245 35.2938 33.8245 34.6596C33.8245 32.1768 35.8242 30.1618 38.2781 30.1618C40.732 30.1618 42.7316 32.1813 42.7316 34.6596C42.7316 35.2938 43.2438 35.811 43.8717 35.811C44.4997 35.811 45.0118 35.2938 45.0118 34.6596C45.0118 30.9085 41.9879 27.8545 38.2736 27.8545C34.5594 27.8545 31.5354 30.9085 31.5354 34.6596C31.5443 35.2983 32.052 35.811 32.6844 35.811Z" fill="#B2B2B2"/>
<path d="M4.60498 15.6522C4.60498 16.6686 5.41998 17.4962 6.43093 17.4962H9.82007C10.8266 17.4962 11.646 16.6731 11.646 15.6522V14.7706C11.646 13.7541 10.8266 12.9265 9.82007 12.9265H6.43093C5.42443 12.9265 4.60498 13.7496 4.60498 14.7706V15.6522Z" fill="white"/>
<path d="M14.3004 5.32542C14.3538 5.73471 14.7235 6.02257 15.1288 5.9686L18.2329 5.5683C18.6381 5.51433 18.9232 5.14101 18.8697 4.73621C18.8163 4.32692 18.4466 4.03906 18.0414 4.08854L14.9373 4.48884C14.5364 4.54281 14.2514 4.91612 14.3004 5.32542Z" fill="white"/>
<path d="M12.55 28.4617C12.55 28.799 12.8173 29.0689 13.1513 29.0689H14.3448C14.6788 29.0689 14.9461 28.799 14.9461 28.4617C14.9461 28.1244 14.6788 27.8545 14.3448 27.8545H13.1513C12.8173 27.8545 12.55 28.1289 12.55 28.4617Z" fill="white"/>
<path d="M19.4041 34.6507C19.4041 35.6671 20.2235 36.4947 21.23 36.4947H32.0788C33.0853 36.4947 33.9048 35.6716 33.9048 34.6507V33.6746C33.9048 32.6582 33.0898 31.8306 32.0788 31.8306H21.23C20.2235 31.8306 19.4041 32.6537 19.4041 33.6746V34.6507Z" fill="#B2B2B2"/>
<path d="M20.9851 35.0554C20.9851 35.4602 21.3102 35.793 21.7155 35.793H31.5845C31.9898 35.793 32.3149 35.4602 32.3149 35.0554V33.2743C32.3149 32.8695 31.9898 32.5366 31.5845 32.5366H21.7155C21.3147 32.5366 20.9851 32.8695 20.9851 33.2743V35.0554Z" fill="#CCCCCC"/>
<path d="M48.2764 33.8365C48.2764 34.2458 48.6015 34.5741 49.0067 34.5741H105.01C105.411 34.5741 105.74 34.2458 105.74 33.8365V29.1993C105.74 28.79 105.415 28.4617 105.01 28.4617H49.0067C48.6015 28.4617 48.2764 28.79 48.2764 29.1993V33.8365Z" fill="#333333"/>
<path d="M23.5815 27.949C23.5815 28.9655 24.3965 29.7931 25.4075 29.7931H108.537C109.544 29.7931 110.363 28.97 110.363 27.949V1.84408C110.363 0.827586 109.544 0 108.537 0H25.4075C24.401 0 23.5815 0.823088 23.5815 1.84408V27.949Z" fill="#1B80F5"/>
<g opacity="0.1">
<path d="M25.0735 3.65682V26.1411C25.0735 27.1576 25.8929 27.9852 26.8994 27.9852H107.05C108.056 27.9852 108.876 27.1576 108.876 26.1411V3.65682C108.876 2.64033 108.056 1.81274 107.05 1.81274H26.895C25.8885 1.81274 25.0735 2.64033 25.0735 3.65682Z" fill="#6AA6EC"/>
</g>
<g opacity="0.5">
<path d="M25.0735 23.3029V26.1364C25.0735 27.1529 25.8929 27.9805 26.8994 27.9805H107.05C108.056 27.9805 108.876 27.1529 108.876 26.1364V4.28638C104.698 5.14995 89.3915 7.16494 81.2192 11.3973C64.3092 20.1454 39.2268 24.3194 25.0735 23.3029Z" fill="#6AA6EC"/>
</g>
<path d="M6.28394 9.75562V10.8081H22.4147C22.4236 10.8081 22.4369 10.8081 22.4458 10.8036V8.28036C22.4458 7.87556 22.1163 7.54272 21.7154 7.54272L7.01432 9.01799C6.69366 9.01799 6.422 9.22938 6.32402 9.52173C6.2973 9.5937 6.28394 9.67466 6.28394 9.75562Z" fill="#666666"/>
<path d="M1.96851 10.165C1.96851 10.5248 2.25353 10.8082 2.60536 10.8082H22.4147C22.4236 10.8082 22.437 10.8082 22.4459 10.8037V9.52183C22.437 9.51733 22.4281 9.51733 22.4147 9.51733H2.60536C2.25353 9.52183 1.96851 9.80969 1.96851 10.165Z" fill="#4D4D4D"/>
</svg>
