<svg width="88" height="46" viewBox="0 0 88 46" fill="none" xmlns="http://www.w3.org/2000/svg">
<g clip-path="url(#clip0_10:3133)">
<path d="M85.9801 5.37986V39.5399H68.6801L67.5801 35.9299C67.2301 34.7899 66.1401 33.9999 64.8801 33.9999H59.5401C58.2901 33.9999 57.1901 34.7899 56.8501 35.9299L55.7401 39.5399H29.1501C28.2901 39.5399 27.6001 38.8399 27.6001 37.9899V4.60986H85.9201C85.9601 4.85986 85.9801 5.11986 85.9801 5.37986Z" fill="#1B80F5"/>
<path d="M80.6101 0.01H37.6701V0H29.6901C28.5401 0 27.6001 0.93 27.6001 2.09V4.61H85.9201C85.5501 2.01 83.3201 0.01 80.6101 0.01Z" fill="#69A6EC"/>
<path d="M86.3798 31.7799C87.7698 31.8399 87.7798 27.1899 86.4098 27.1799C86.2698 28.0399 86.2498 30.9099 86.3798 31.7799Z" fill="#1B80F5"/>
<path d="M86.65 27.1499L86.38 27.0699L85.74 26.8899C85.78 26.8999 85.82 27.0099 85.84 27.1699C85.99 28.0599 85.98 30.8899 85.81 31.7799C85.78 31.9399 85.74 32.0499 85.7 32.0599L86.34 31.8899L86.61 31.8199C86.82 30.1699 86.84 28.6399 86.65 27.1499Z" fill="#DAD1D1"/>
<path d="M20.63 38.7699L18.73 39.4999L4.81003 39.1499L4.41003 38.7699L3.28003 37.9299V30.9099H20.63V38.7699Z" fill="#3E312C"/>
<path d="M70.83 38.7699L68.68 39.5399H55.75L54.61 38.7699L53.48 37.9299V30.9099H70.83V38.7699Z" fill="#3E312C"/>
<path d="M12.8299 11.94V20.96C12.8299 21.9 12.0699 22.65 11.1399 22.65H6.93994C6.96994 22.53 6.99994 22.41 7.02994 22.29C7.93994 18.61 9.14994 15.03 10.6899 11.56C10.7499 11.44 10.7999 11.32 10.8499 11.2H12.0799C12.4899 11.2 12.8299 11.53 12.8299 11.94Z" fill="#ABEDE3"/>
<path d="M27.6101 9.67993H26.3701V37.9299H27.6101V9.67993Z" fill="#3E312C"/>
<path d="M24.3799 7.67991L20.5899 7.65991C10.2199 7.65991 10.8599 11.1999 10.8599 11.1999H12.0899C12.4999 11.1999 12.8299 11.5299 12.8299 11.9399V20.9599C12.8299 21.8999 12.0699 22.6499 11.1399 22.6499H6.93994L2.11994 25.9399C1.70994 26.3799 1.47994 26.9599 1.46994 27.5599L1.45994 31.2399V32.0999V32.4999V33.3599V33.7599L1.44994 34.6199L1.43994 36.7199C1.43994 36.9999 1.49994 37.2699 1.61994 37.5099C1.82994 37.9599 2.22994 38.3199 2.72994 38.4799L4.81994 39.1399L5.95994 35.2099C6.29994 34.0299 7.38994 33.2099 8.61994 33.2099H14.8299C16.0599 33.2099 17.1299 33.8399 17.4899 35.2099L18.7399 39.4799L24.9799 39.5099C25.7499 39.5099 26.3799 38.8899 26.3799 38.1199V29.6099V27.0299V9.67991C26.3699 8.57991 25.4799 7.68991 24.3799 7.67991Z" fill="#1B80F5"/>
<path d="M1.08007 27.4899C-0.0399342 27.4299 -0.0399343 31.8599 1.06007 31.8699C1.17007 31.0399 1.18007 28.3099 1.08007 27.4899Z" fill="#F9B659"/>
<path d="M1.64999 27.49H1.43999H1.00999C1.03999 27.49 1.05999 27.57 1.07999 27.71C1.17999 28.45 1.16999 30.91 1.05999 31.65C1.03999 31.78 1.01999 31.86 0.98999 31.86H1.41999H1.61999C1.77999 30.33 1.79999 28.87 1.64999 27.49Z" fill="#C44645"/>
<path d="M23.2201 37.4H20.7901C19.9401 37.4 19.1901 36.83 18.9801 36.01C18.2501 33.26 17.3801 32.37 15.2901 32.17C14.3401 32.08 13.6401 31.24 13.6401 30.29V12.6C13.6401 11.19 14.5601 10.27 15.7001 10.27H22.9001C24.0401 10.27 24.9601 11.19 24.9601 12.33V35.65C24.9701 36.62 24.1801 37.4 23.2201 37.4Z" fill="#1B80F5"/>
<path d="M22.7401 11.01H15.8801C15.0501 11.01 14.3701 11.76 14.3701 12.68V21.19C14.3701 22.11 15.0401 22.86 15.8801 22.86H22.7401C23.5701 22.86 24.2501 22.11 24.2501 21.19V12.68C24.2501 11.75 23.5701 11.01 22.7401 11.01Z" fill="#ABEDE3"/>
<path d="M85.9801 21.9299V39.5399H68.6801L67.5801 35.9299C67.2301 34.7899 66.1401 33.9999 64.8801 33.9999H59.5401C58.2901 33.9999 57.1901 34.7899 56.8501 35.9299L55.7401 39.5399H35.3801V37.5499C35.3801 28.9399 42.3801 21.9299 51.0001 21.9299H85.9801Z" fill="#1B80F5"/>
<path d="M40.9399 37.55V39.54H55.7499L56.8599 35.93C57.1999 34.79 58.2999 34 59.5499 34H64.8899C66.1399 34 67.2399 34.79 67.5899 35.93L68.6899 39.54H85.9899V27.49H50.9999C45.4399 27.49 40.9399 31.99 40.9399 37.55Z" fill="#6AA6EC"/>
<path d="M3.50006 37.4H0.500061C0.420061 37.4 0.350061 37.35 0.320061 37.27C-0.0799388 36.08 -0.119939 34.87 0.320061 33.63C0.350061 33.56 0.420061 33.5 0.500061 33.5H2.59006C3.61006 33.5 4.44006 34.33 4.44006 35.35V36.46C4.43006 36.98 4.01006 37.4 3.50006 37.4Z" fill="#DAD1D1"/>
<path d="M84.43 37.4H87.43C87.51 37.4 87.58 37.35 87.61 37.27C88.01 36.08 88.05 34.87 87.61 33.63C87.58 33.56 87.51 33.5 87.43 33.5H85.33C84.31 33.5 83.48 34.33 83.48 35.35V36.46C83.49 36.98 83.91 37.4 84.43 37.4Z" fill="#DAD1D1"/>
<path d="M8.96011 26.6C8.87011 26.6 8.79011 26.58 8.71011 26.53C8.50011 26.39 8.44011 26.11 8.57011 25.9L11.3901 21.55C11.5301 21.34 11.8101 21.28 12.0201 21.41C12.2301 21.55 12.2901 21.83 12.1601 22.04L9.34011 26.39C9.26011 26.52 9.11011 26.6 8.96011 26.6Z" fill="#3E312C"/>
<path d="M12.4001 25.2699H12.3901C11.5601 25.2699 10.8901 24.7099 10.8901 24.0099V18.6999C10.8901 18.0099 11.5601 17.4399 12.3901 17.4399H12.4001V25.2699Z" fill="#1B80F5"/>
<g opacity="0.5">
<path opacity="0.5" d="M23.6902 12.68V14.34L18.8102 22.3H15.8802C15.3502 22.3 14.9202 21.8 14.9202 21.19V20.08L20.0902 11.57H22.7402C23.2602 11.56 23.6902 12.06 23.6902 12.68Z" fill="white"/>
<path opacity="0.5" d="M19.4202 11.5601L14.9202 19.0001V16.2001L17.7202 11.5601H19.4202Z" fill="white"/>
</g>
<g opacity="0.5">
<path opacity="0.5" d="M12.52 12.68V14.34L7.64002 22.3H7.02002C7.93002 18.62 9.14002 15.04 10.68 11.57H11.56C12.47 11.56 12.52 11.56 12.52 12.68Z" fill="white"/>
</g>
<path opacity="0.1" d="M85.76 44.6699C85.76 45.3799 66.84 45.9599 43.49 45.9599C20.15 45.9599 1.21997 45.3799 1.21997 44.6699C1.21997 43.9599 20.14 43.3799 43.49 43.3799C66.83 43.3799 85.76 43.9599 85.76 44.6699Z" fill="#1D1D1B"/>
<path d="M65.3901 32.8499H59.3301V33.9899H65.3901V32.8499Z" fill="#1B80F5"/>
<path d="M23.06 23.97H20.28V25.11H23.06V23.97Z" fill="white"/>
<path d="M30.2202 3.33995C30.2202 3.48995 30.1002 3.60995 29.9502 3.60995C29.8002 3.60995 29.6802 3.48995 29.6802 3.33995V1.21995C29.6802 1.06995 29.8002 0.949951 29.9502 0.949951C30.1002 0.949951 30.2202 1.06995 30.2202 1.21995V3.33995Z" fill="#3E312C"/>
<path d="M31.4502 3.33995C31.4502 3.48995 31.3302 3.60995 31.1802 3.60995C31.0302 3.60995 30.9102 3.48995 30.9102 3.33995V1.21995C30.9102 1.06995 31.0302 0.949951 31.1802 0.949951C31.3302 0.949951 31.4502 1.06995 31.4502 1.21995V3.33995Z" fill="#3E312C"/>
<path d="M32.6801 3.33995C32.6801 3.48995 32.5601 3.60995 32.4101 3.60995C32.2601 3.60995 32.1401 3.48995 32.1401 3.33995V1.21995C32.1401 1.06995 32.2601 0.949951 32.4101 0.949951C32.5601 0.949951 32.6801 1.06995 32.6801 1.21995V3.33995Z" fill="#3E312C"/>
<path d="M33.9201 3.33995C33.9201 3.48995 33.8001 3.60995 33.6501 3.60995C33.5001 3.60995 33.3801 3.48995 33.3801 3.33995V1.21995C33.3801 1.06995 33.5001 0.949951 33.6501 0.949951C33.8001 0.949951 33.9201 1.06995 33.9201 1.21995V3.33995Z" fill="#3E312C"/>
<path d="M35.1501 3.33995C35.1501 3.48995 35.0301 3.60995 34.8801 3.60995C34.7301 3.60995 34.6101 3.48995 34.6101 3.33995V1.21995C34.6101 1.06995 34.7301 0.949951 34.8801 0.949951C35.0301 0.949951 35.1501 1.06995 35.1501 1.21995V3.33995Z" fill="#3E312C"/>
<path d="M36.3801 3.33995C36.3801 3.48995 36.2601 3.60995 36.1101 3.60995C35.9601 3.60995 35.8401 3.48995 35.8401 3.33995V1.21995C35.8401 1.06995 35.9601 0.949951 36.1101 0.949951C36.2601 0.949951 36.3801 1.06995 36.3801 1.21995V3.33995Z" fill="#3E312C"/>
<path d="M37.6201 3.33995C37.6201 3.48995 37.5001 3.60995 37.3501 3.60995C37.2001 3.60995 37.0801 3.48995 37.0801 3.33995V1.21995C37.0801 1.06995 37.2001 0.949951 37.3501 0.949951C37.5001 0.949951 37.6201 1.06995 37.6201 1.21995V3.33995Z" fill="#3E312C"/>
<path d="M14.5702 39.2101C14.5702 40.8201 13.2602 42.1301 11.6502 42.1301C10.0302 42.1301 8.73022 40.8201 8.73022 39.2101C8.73022 37.5901 10.0402 36.2901 11.6502 36.2901C13.2602 36.2801 14.5702 37.5901 14.5702 39.2101Z" fill="#1D1715"/>
<path d="M11.6502 33.74C8.63018 33.74 6.19018 36.18 6.18018 39.2C6.18018 42.22 8.62018 44.66 11.6402 44.66C14.6602 44.66 17.1002 42.22 17.1102 39.2C17.1102 36.19 14.6702 33.75 11.6502 33.74ZM11.6402 42.57C9.78018 42.57 8.28018 41.06 8.28018 39.21C8.28018 37.35 9.79018 35.85 11.6502 35.85C13.5102 35.85 15.0102 37.36 15.0102 39.21C15.0102 41.06 13.5002 42.57 11.6402 42.57Z" fill="#1D1715"/>
<path d="M11.6503 35.3401C9.51027 35.3401 7.78027 37.0701 7.78027 39.2001C7.78027 41.3401 9.51027 43.0701 11.6403 43.0701C13.7803 43.0701 15.5103 41.3401 15.5103 39.2101C15.5203 37.0701 13.7903 35.3401 11.6503 35.3401ZM11.6403 42.6501C9.74027 42.6501 8.19027 41.1001 8.19027 39.2001C8.19027 37.2901 9.74027 35.7501 11.6403 35.7501C13.5403 35.7501 15.0903 37.3001 15.0903 39.2001C15.0903 41.1101 13.5503 42.6601 11.6403 42.6501Z" fill="#DADADA"/>
<path d="M11.6503 36.8301C10.3403 36.8301 9.28027 37.8901 9.28027 39.2001C9.28027 40.5101 10.3403 41.5701 11.6503 41.5701C12.9603 41.5701 14.0203 40.5101 14.0203 39.2001C14.0203 37.9001 12.9603 36.8401 11.6503 36.8301ZM11.6503 40.7001C10.8303 40.7001 10.1603 40.0301 10.1603 39.2101C10.1603 38.3901 10.8303 37.7201 11.6503 37.7201C12.4703 37.7201 13.1403 38.3901 13.1403 39.2101C13.1403 40.0301 12.4703 40.7001 11.6503 40.7001Z" fill="#EDEDED"/>
<path d="M11.6502 37.72C10.8302 37.72 10.1602 38.39 10.1602 39.21C10.1602 40.03 10.8302 40.7 11.6502 40.7C12.4702 40.7 13.1402 40.03 13.1402 39.21C13.1402 38.38 12.4702 37.72 11.6502 37.72ZM12.2202 38.33C12.3002 38.25 12.4402 38.25 12.5202 38.33C12.6002 38.41 12.6002 38.55 12.5202 38.63C12.4402 38.71 12.3002 38.71 12.2202 38.63C12.1402 38.55 12.1402 38.42 12.2202 38.33ZM11.6502 38.17C11.7202 38.17 11.7702 38.23 11.7702 38.29C11.7702 38.36 11.7102 38.41 11.6502 38.41C11.5802 38.41 11.5302 38.35 11.5302 38.29C11.5202 38.22 11.5802 38.16 11.6502 38.17ZM10.7802 38.33C10.8602 38.25 11.0002 38.25 11.0802 38.33C11.1602 38.41 11.1602 38.55 11.0802 38.63C11.0002 38.71 10.8602 38.71 10.7802 38.63C10.7002 38.55 10.6902 38.42 10.7802 38.33ZM10.6102 39.2C10.6102 39.13 10.6702 39.08 10.7302 39.08C10.8002 39.08 10.8502 39.14 10.8502 39.2C10.8502 39.27 10.7902 39.32 10.7302 39.32C10.6602 39.33 10.6102 39.27 10.6102 39.2ZM11.0802 40.08C11.0002 40.16 10.8602 40.16 10.7802 40.08C10.7002 40 10.7002 39.86 10.7802 39.78C10.8602 39.7 11.0002 39.7 11.0802 39.78C11.1602 39.86 11.1602 39.99 11.0802 40.08ZM11.6502 40.25C11.5802 40.25 11.5302 40.19 11.5302 40.13C11.5302 40.06 11.5902 40.01 11.6502 40.01C11.7202 40.01 11.7702 40.07 11.7702 40.13C11.7702 40.19 11.7102 40.25 11.6502 40.25ZM11.6502 39.77C11.3402 39.77 11.0802 39.52 11.0802 39.2C11.0802 38.89 11.3302 38.63 11.6502 38.63C11.9602 38.63 12.2202 38.88 12.2202 39.2C12.2102 39.52 11.9602 39.77 11.6502 39.77ZM12.5202 40.08C12.4402 40.16 12.3002 40.16 12.2202 40.08C12.1402 40 12.1402 39.86 12.2202 39.78C12.3002 39.7 12.4402 39.7 12.5202 39.78C12.6002 39.86 12.6002 39.99 12.5202 40.08ZM12.5602 39.33C12.4902 39.33 12.4402 39.27 12.4402 39.21C12.4402 39.14 12.5002 39.09 12.5602 39.09C12.6302 39.09 12.6802 39.15 12.6802 39.21C12.6902 39.27 12.6302 39.33 12.5602 39.33Z" fill="#DAD1D1"/>
<path d="M11.6502 37.72C10.8302 37.72 10.1602 38.39 10.1602 39.21C10.1602 40.03 10.8302 40.7 11.6502 40.7C12.4702 40.7 13.1402 40.03 13.1402 39.21C13.1402 38.38 12.4702 37.72 11.6502 37.72ZM12.2202 38.33C12.3002 38.25 12.4402 38.25 12.5202 38.33C12.6002 38.41 12.6002 38.55 12.5202 38.63C12.4402 38.71 12.3002 38.71 12.2202 38.63C12.1402 38.55 12.1402 38.42 12.2202 38.33ZM11.6502 38.17C11.7202 38.17 11.7702 38.23 11.7702 38.29C11.7702 38.36 11.7102 38.41 11.6502 38.41C11.5802 38.41 11.5302 38.35 11.5302 38.29C11.5202 38.22 11.5802 38.16 11.6502 38.17ZM10.7802 38.33C10.8602 38.25 11.0002 38.25 11.0802 38.33C11.1602 38.41 11.1602 38.55 11.0802 38.63C11.0002 38.71 10.8602 38.71 10.7802 38.63C10.7002 38.55 10.6902 38.42 10.7802 38.33ZM10.6102 39.2C10.6102 39.13 10.6702 39.08 10.7302 39.08C10.8002 39.08 10.8502 39.14 10.8502 39.2C10.8502 39.27 10.7902 39.32 10.7302 39.32C10.6602 39.33 10.6102 39.27 10.6102 39.2ZM11.0802 40.08C11.0002 40.16 10.8602 40.16 10.7802 40.08C10.7002 40 10.7002 39.86 10.7802 39.78C10.8602 39.7 11.0002 39.7 11.0802 39.78C11.1602 39.86 11.1602 39.99 11.0802 40.08ZM11.6502 40.25C11.5802 40.25 11.5302 40.19 11.5302 40.13C11.5302 40.06 11.5902 40.01 11.6502 40.01C11.7202 40.01 11.7702 40.07 11.7702 40.13C11.7702 40.19 11.7102 40.25 11.6502 40.25ZM11.6502 39.77C11.3402 39.77 11.0802 39.52 11.0802 39.2C11.0802 38.89 11.3302 38.63 11.6502 38.63C11.9602 38.63 12.2202 38.88 12.2202 39.2C12.2102 39.52 11.9602 39.77 11.6502 39.77ZM12.5202 40.08C12.4402 40.16 12.3002 40.16 12.2202 40.08C12.1402 40 12.1402 39.86 12.2202 39.78C12.3002 39.7 12.4402 39.7 12.5202 39.78C12.6002 39.86 12.6002 39.99 12.5202 40.08ZM12.5602 39.33C12.4902 39.33 12.4402 39.27 12.4402 39.21C12.4402 39.14 12.5002 39.09 12.5602 39.09C12.6302 39.09 12.6802 39.15 12.6802 39.21C12.6902 39.27 12.6302 39.33 12.5602 39.33Z" fill="#C6C6C6"/>
<path d="M11.6502 35.76C9.7502 35.76 8.2002 37.3 8.2002 39.21C8.2002 41.11 9.7402 42.66 11.6502 42.66C13.5602 42.66 15.1002 41.12 15.1002 39.22C15.1002 37.3 13.5502 35.76 11.6502 35.76ZM14.0102 37.47C14.1902 37.37 14.4102 37.41 14.5002 37.56C14.5902 37.72 14.5202 37.93 14.3302 38.03C14.1502 38.13 13.9302 38.09 13.8402 37.94C13.7502 37.78 13.8302 37.57 14.0102 37.47ZM14.0202 39.21C14.0202 40.52 12.9602 41.58 11.6502 41.58C10.3402 41.58 9.2802 40.52 9.2802 39.21C9.2802 37.9 10.3402 36.84 11.6502 36.84C12.9602 36.84 14.0202 37.9 14.0202 39.21ZM12.8202 36.52C12.9302 36.34 13.1402 36.26 13.2902 36.35C13.4502 36.44 13.4902 36.66 13.3802 36.84C13.2702 37.02 13.0602 37.1 12.9102 37.01C12.7602 36.92 12.7202 36.7 12.8202 36.52ZM11.6502 35.91C11.8302 35.91 11.9802 36.08 11.9802 36.29C11.9802 36.5 11.8302 36.67 11.6502 36.67C11.4702 36.67 11.3202 36.5 11.3202 36.29C11.3202 36.08 11.4702 35.91 11.6502 35.91ZM10.0002 36.35C10.1602 36.26 10.3702 36.34 10.4702 36.52C10.5702 36.7 10.5302 36.92 10.3802 37.01C10.2202 37.1 10.0102 37.03 9.9102 36.84C9.8102 36.66 9.8502 36.44 10.0002 36.35ZM8.8002 37.56C8.8902 37.4 9.1102 37.36 9.2902 37.47C9.4702 37.58 9.5502 37.79 9.4602 37.94C9.3702 38.1 9.1502 38.14 8.9702 38.03C8.7802 37.92 8.7102 37.71 8.8002 37.56ZM8.3502 39.2C8.3502 39.02 8.5202 38.87 8.7302 38.87C8.9402 38.87 9.1102 39.02 9.1102 39.2C9.1102 39.38 8.9402 39.53 8.7302 39.53C8.5202 39.53 8.3502 39.38 8.3502 39.2ZM9.2902 40.94C9.1102 41.05 8.8902 41 8.8002 40.85C8.7102 40.69 8.7902 40.48 8.9702 40.38C9.1502 40.27 9.3702 40.32 9.4602 40.47C9.5402 40.62 9.4702 40.84 9.2902 40.94ZM10.4702 41.89C10.3602 42.07 10.1502 42.15 10.0002 42.06C9.8402 41.97 9.8002 41.75 9.9102 41.57C10.0102 41.39 10.2302 41.31 10.3802 41.4C10.5402 41.49 10.5802 41.71 10.4702 41.89ZM11.6402 42.5C11.4602 42.5 11.3102 42.33 11.3102 42.12C11.3102 41.91 11.4602 41.74 11.6402 41.74C11.8202 41.74 11.9702 41.91 11.9702 42.12C11.9702 42.33 11.8302 42.5 11.6402 42.5ZM13.2902 42.06C13.1302 42.15 12.9202 42.08 12.8202 41.89C12.7202 41.71 12.7602 41.49 12.9102 41.4C13.0702 41.31 13.2802 41.39 13.3802 41.57C13.4902 41.75 13.4502 41.97 13.2902 42.06ZM14.5002 40.85C14.4102 41.01 14.1902 41.05 14.0102 40.94C13.8302 40.83 13.7502 40.62 13.8402 40.47C13.9302 40.31 14.1502 40.27 14.3302 40.38C14.5102 40.49 14.5902 40.7 14.5002 40.85ZM14.5602 39.53C14.3502 39.53 14.1802 39.38 14.1802 39.2C14.1802 39.02 14.3502 38.87 14.5602 38.87C14.7702 38.87 14.9402 39.02 14.9402 39.2C14.9402 39.39 14.7702 39.53 14.5602 39.53Z" fill="#DAD1D1"/>
<path d="M65.08 39.2101C65.08 40.8201 63.77 42.1301 62.16 42.1301C60.54 42.1301 59.24 40.8201 59.24 39.2101C59.24 37.5901 60.55 36.2901 62.16 36.2901C63.77 36.2801 65.08 37.5901 65.08 39.2101Z" fill="#1D1715"/>
<path d="M63.7899 34H60.5099C58.2999 34.7 56.6899 36.76 56.6899 39.2C56.6899 42.22 59.1299 44.66 62.1499 44.66C65.1699 44.66 67.6099 42.22 67.6199 39.2C67.6199 36.76 66.0099 34.69 63.7899 34ZM62.1499 42.57C60.2899 42.57 58.7899 41.06 58.7899 39.21C58.7899 37.35 60.2999 35.85 62.1599 35.85C64.0199 35.85 65.5199 37.36 65.5199 39.21C65.5099 41.06 64.0099 42.57 62.1499 42.57Z" fill="#1D1715"/>
<path d="M62.16 35.3401C60.02 35.3401 58.29 37.0701 58.29 39.2001C58.29 41.3401 60.02 43.0701 62.15 43.0701C64.29 43.0701 66.02 41.3401 66.02 39.2101C66.02 37.0701 64.29 35.3401 62.16 35.3401ZM62.15 42.6501C60.25 42.6501 58.7 41.1001 58.7 39.2001C58.7 37.2901 60.25 35.7501 62.15 35.7501C64.05 35.7501 65.6 37.3001 65.6 39.2001C65.6 41.1101 64.05 42.6601 62.15 42.6501Z" fill="#DADADA"/>
<path d="M62.16 36.8301C60.85 36.8301 59.79 37.8901 59.79 39.2001C59.79 40.5101 60.85 41.5701 62.16 41.5701C63.47 41.5701 64.53 40.5101 64.53 39.2001C64.52 37.9001 63.46 36.8401 62.16 36.8301ZM62.15 40.7001C61.33 40.7001 60.66 40.0301 60.66 39.2101C60.66 38.3901 61.33 37.7201 62.15 37.7201C62.97 37.7201 63.64 38.3901 63.64 39.2101C63.64 40.0301 62.97 40.7001 62.15 40.7001Z" fill="#EDEDED"/>
<path d="M62.1502 37.72C61.3302 37.72 60.6602 38.39 60.6602 39.21C60.6602 40.03 61.3302 40.7 62.1502 40.7C62.9702 40.7 63.6402 40.03 63.6402 39.21C63.6402 38.38 62.9802 37.72 62.1502 37.72ZM62.7202 38.33C62.8002 38.25 62.9402 38.25 63.0202 38.33C63.1002 38.41 63.1002 38.55 63.0202 38.63C62.9402 38.71 62.8002 38.71 62.7202 38.63C62.6402 38.55 62.6402 38.42 62.7202 38.33ZM62.1502 38.17C62.2202 38.17 62.2702 38.23 62.2702 38.29C62.2702 38.36 62.2102 38.41 62.1502 38.41C62.0802 38.41 62.0302 38.35 62.0302 38.29C62.0302 38.22 62.0802 38.16 62.1502 38.17ZM61.2802 38.33C61.3602 38.25 61.5002 38.25 61.5802 38.33C61.6602 38.41 61.6602 38.55 61.5802 38.63C61.5002 38.71 61.3602 38.71 61.2802 38.63C61.2002 38.55 61.2002 38.42 61.2802 38.33ZM61.1102 39.2C61.1102 39.13 61.1702 39.08 61.2302 39.08C61.3002 39.08 61.3502 39.14 61.3502 39.2C61.3502 39.27 61.2902 39.32 61.2302 39.32C61.1702 39.33 61.1102 39.27 61.1102 39.2ZM61.5802 40.08C61.5002 40.16 61.3602 40.16 61.2802 40.08C61.2002 40 61.2002 39.86 61.2802 39.78C61.3602 39.7 61.5002 39.7 61.5802 39.78C61.6602 39.86 61.6602 39.99 61.5802 40.08ZM62.1502 40.25C62.0802 40.25 62.0302 40.19 62.0302 40.13C62.0302 40.06 62.0902 40.01 62.1502 40.01C62.2202 40.01 62.2702 40.07 62.2702 40.13C62.2802 40.19 62.2202 40.25 62.1502 40.25ZM62.1502 39.77C61.8402 39.77 61.5802 39.52 61.5802 39.2C61.5802 38.89 61.8302 38.63 62.1502 38.63C62.4602 38.63 62.7202 38.88 62.7202 39.2C62.7202 39.52 62.4602 39.77 62.1502 39.77ZM63.0202 40.08C62.9402 40.16 62.8002 40.16 62.7202 40.08C62.6402 40 62.6402 39.86 62.7202 39.78C62.8002 39.7 62.9402 39.7 63.0202 39.78C63.1102 39.86 63.1102 39.99 63.0202 40.08ZM63.0702 39.33C63.0002 39.33 62.9502 39.27 62.9502 39.21C62.9502 39.14 63.0102 39.09 63.0702 39.09C63.1402 39.09 63.1902 39.15 63.1902 39.21C63.1902 39.27 63.1402 39.33 63.0702 39.33Z" fill="#DAD1D1"/>
<path d="M62.1502 37.72C61.3302 37.72 60.6602 38.39 60.6602 39.21C60.6602 40.03 61.3302 40.7 62.1502 40.7C62.9702 40.7 63.6402 40.03 63.6402 39.21C63.6402 38.38 62.9802 37.72 62.1502 37.72ZM62.7202 38.33C62.8002 38.25 62.9402 38.25 63.0202 38.33C63.1002 38.41 63.1002 38.55 63.0202 38.63C62.9402 38.71 62.8002 38.71 62.7202 38.63C62.6402 38.55 62.6402 38.42 62.7202 38.33ZM62.1502 38.17C62.2202 38.17 62.2702 38.23 62.2702 38.29C62.2702 38.36 62.2102 38.41 62.1502 38.41C62.0802 38.41 62.0302 38.35 62.0302 38.29C62.0302 38.22 62.0802 38.16 62.1502 38.17ZM61.2802 38.33C61.3602 38.25 61.5002 38.25 61.5802 38.33C61.6602 38.41 61.6602 38.55 61.5802 38.63C61.5002 38.71 61.3602 38.71 61.2802 38.63C61.2002 38.55 61.2002 38.42 61.2802 38.33ZM61.1102 39.2C61.1102 39.13 61.1702 39.08 61.2302 39.08C61.3002 39.08 61.3502 39.14 61.3502 39.2C61.3502 39.27 61.2902 39.32 61.2302 39.32C61.1702 39.33 61.1102 39.27 61.1102 39.2ZM61.5802 40.08C61.5002 40.16 61.3602 40.16 61.2802 40.08C61.2002 40 61.2002 39.86 61.2802 39.78C61.3602 39.7 61.5002 39.7 61.5802 39.78C61.6602 39.86 61.6602 39.99 61.5802 40.08ZM62.1502 40.25C62.0802 40.25 62.0302 40.19 62.0302 40.13C62.0302 40.06 62.0902 40.01 62.1502 40.01C62.2202 40.01 62.2702 40.07 62.2702 40.13C62.2802 40.19 62.2202 40.25 62.1502 40.25ZM62.1502 39.77C61.8402 39.77 61.5802 39.52 61.5802 39.2C61.5802 38.89 61.8302 38.63 62.1502 38.63C62.4602 38.63 62.7202 38.88 62.7202 39.2C62.7202 39.52 62.4602 39.77 62.1502 39.77ZM63.0202 40.08C62.9402 40.16 62.8002 40.16 62.7202 40.08C62.6402 40 62.6402 39.86 62.7202 39.78C62.8002 39.7 62.9402 39.7 63.0202 39.78C63.1102 39.86 63.1102 39.99 63.0202 40.08ZM63.0702 39.33C63.0002 39.33 62.9502 39.27 62.9502 39.21C62.9502 39.14 63.0102 39.09 63.0702 39.09C63.1402 39.09 63.1902 39.15 63.1902 39.21C63.1902 39.27 63.1402 39.33 63.0702 39.33Z" fill="#C6C6C6"/>
<path d="M62.16 35.76C60.26 35.76 58.71 37.3 58.71 39.21C58.71 41.11 60.25 42.66 62.16 42.66C64.07 42.66 65.61 41.12 65.61 39.22C65.6 37.3 64.06 35.76 62.16 35.76ZM64.51 37.47C64.69 37.37 64.91 37.41 65 37.56C65.09 37.72 65.01 37.93 64.83 38.03C64.65 38.13 64.43 38.09 64.34 37.94C64.26 37.78 64.33 37.57 64.51 37.47ZM64.52 39.21C64.52 40.52 63.46 41.58 62.15 41.58C60.84 41.58 59.78 40.52 59.78 39.21C59.78 37.9 60.84 36.84 62.15 36.84C63.46 36.84 64.52 37.9 64.52 39.21ZM63.33 36.52C63.44 36.34 63.65 36.26 63.8 36.35C63.96 36.44 64 36.66 63.89 36.84C63.78 37.02 63.57 37.1 63.42 37.01C63.26 36.92 63.22 36.7 63.33 36.52ZM62.16 35.91C62.34 35.91 62.49 36.08 62.49 36.29C62.49 36.5 62.34 36.67 62.16 36.67C61.98 36.67 61.83 36.5 61.83 36.29C61.83 36.08 61.98 35.91 62.16 35.91ZM60.51 36.35C60.67 36.26 60.88 36.34 60.98 36.52C61.08 36.7 61.04 36.92 60.89 37.01C60.73 37.1 60.52 37.03 60.42 36.84C60.31 36.66 60.35 36.44 60.51 36.35ZM59.3 37.56C59.39 37.4 59.61 37.36 59.79 37.47C59.97 37.58 60.05 37.79 59.96 37.94C59.87 38.1 59.65 38.14 59.47 38.03C59.29 37.92 59.21 37.71 59.3 37.56ZM58.86 39.2C58.86 39.02 59.03 38.87 59.24 38.87C59.45 38.87 59.62 39.02 59.62 39.2C59.62 39.38 59.45 39.53 59.24 39.53C59.03 39.53 58.86 39.38 58.86 39.2ZM59.79 40.94C59.61 41.05 59.39 41 59.3 40.85C59.21 40.69 59.29 40.48 59.47 40.38C59.65 40.27 59.87 40.32 59.96 40.47C60.05 40.62 59.97 40.84 59.79 40.94ZM60.98 41.89C60.87 42.07 60.66 42.15 60.51 42.06C60.35 41.97 60.31 41.75 60.42 41.57C60.52 41.39 60.74 41.31 60.89 41.4C61.04 41.49 61.08 41.71 60.98 41.89ZM62.15 42.5C61.97 42.5 61.82 42.33 61.82 42.12C61.82 41.91 61.97 41.74 62.15 41.74C62.33 41.74 62.48 41.91 62.48 42.12C62.48 42.33 62.33 42.5 62.15 42.5ZM63.8 42.06C63.64 42.15 63.43 42.08 63.33 41.89C63.22 41.71 63.27 41.49 63.42 41.4C63.58 41.31 63.79 41.39 63.89 41.57C63.99 41.75 63.95 41.97 63.8 42.06ZM65 40.85C64.91 41.01 64.69 41.05 64.51 40.94C64.33 40.83 64.25 40.62 64.34 40.47C64.43 40.31 64.65 40.27 64.83 40.38C65.02 40.49 65.09 40.7 65 40.85ZM65.06 39.53C64.85 39.53 64.68 39.38 64.68 39.2C64.68 39.02 64.85 38.87 65.06 38.87C65.27 38.87 65.44 39.02 65.44 39.2C65.45 39.39 65.28 39.53 65.06 39.53Z" fill="#DAD1D1"/>
</g>
<defs>
<clipPath id="clip0_10:3133">
<rect width="87.93" height="45.95" fill="white"/>
</clipPath>
</defs>
</svg>
