<svg width="20" height="20" viewBox="0 0 20 20" fill="none" xmlns="http://www.w3.org/2000/svg">
<path d="M19.4549 0C19.4756 0.0136479 19.4946 0.031018 19.5169 0.0409438C19.9694 0.237391 20.1204 0.633181 19.9003 1.08067C19.536 1.82138 19.1637 2.55795 18.7944 3.29618C16.0999 8.68422 13.4058 14.0727 10.7085 19.4595C10.6402 19.5959 10.5542 19.7378 10.4401 19.835C10.0699 20.151 9.47682 19.9946 9.3453 19.5269C9.2175 19.0719 9.15009 18.5996 9.06489 18.1331C8.70632 16.1703 8.34939 14.2067 7.99868 12.2426C7.97138 12.0908 7.91265 12.0304 7.76004 12.0031C5.44398 11.5875 3.12999 11.1595 0.813102 10.7488C0.430125 10.6809 0.137309 10.5387 0 10.157C0 10.0527 0 9.94851 0 9.84429C0.102568 9.55603 0.320112 9.39432 0.586873 9.26157C3.65193 7.73506 6.71368 6.20153 9.77708 4.67173C12.898 3.11338 16.0205 1.5571 19.1422 0C19.2465 0 19.3507 0 19.4549 0Z" fill="#1B80F5"/>
</svg>
