<svg xmlns="http://www.w3.org/2000/svg" width="147.04640197753906" height="137.44044494628906" viewBox="117.99999995854311 159.0 147.04640197753906 137.44044494628906" preserveAspectRatio="none">            	  <g>            	    <defs>            	      <path id="s-Path_4-aaab6" d="M251.9554159221247 230.34715798099424 L251.9554159221247 165.20792464130324 C251.9554159221247 162.88402801477258 250.0713877735858 161.0 247.74749128082146 161.0 L135.008216453359 161.0 C132.68431982682836 161.0 130.80029181205578 162.8840281485389 130.80029181205578 165.20792464130324 L130.80029181205578 235.54001796184616 C128.770388947969 235.83569480559328 126.78593158653811 236.6236987975936 125.03038532131362 237.92703329747678 C119.49612265328966 241.85134390784717 118.18717799386768 250.63356255900283 122.82290806625737 256.04972240639177 L141.7762432286966 279.02695399543404 C153.5084977914608 292.7579727628173 165.97152954197958 294.44030149670675 184.4993015981857 294.44030149670675 C200.39880406897154 294.44030149670675 207.50711109827444 294.51043357406184 221.36380600037108 291.35308741943334 L234.85665650701 288.1258898291931 C237.04449673225096 291.1811235893016 240.5177178767204 293.1602506303391 244.4223910559765 293.1602506303391 L251.0692288878675 293.1602506303391 C257.6734262968719 293.1602506303391 263.04638497295315 287.5000309183258 263.04638497295315 280.54264814945464 L263.04638497295315 242.92688640057264 C263.0466655012759 236.28369557368086 258.14695800612384 230.82685899301032 251.9554179286195 230.34715584073308 Z M233.0416370662552 239.00313974901525 L227.43499825706064 236.15549687366985 C218.21655746408084 231.50237383528037 207.5584464658481 231.33012936340538 198.19441012763417 235.68364824572114 C195.63963871529222 236.68850065487993 190.067505196354 240.05988997968956 187.17722216565477 239.94711747944802 L167.72202358699377 239.94711747944802 C161.26875043842105 239.94711747944802 156.01838217554058 245.19720483305258 156.01838217554058 251.65075889090122 L156.01838217554058 254.7194581040334 C155.98219402553156 254.68130625187888 155.94432270225496 254.64511810605003 155.90869560582158 254.60640519613966 L142.01553065373315 239.52604487519812 C141.17478731628648 238.61348627876845 140.23024853645825 237.8498882531656 139.21641927008895 237.237214287345 L139.21641927008895 195.4892717392495 L173.6521103740523 195.4892717392495 L173.6521103740523 210.9144013781516 C173.6521103740523 213.23829800468224 175.53613852259122 215.12232601945485 177.86003501535552 215.12232601945485 L204.4123203042418 215.12232601945485 C206.73621693077246 215.12232601945485 208.62024494554504 213.23829787091591 208.62024494554504 210.9144013781516 L208.62024494554504 195.4892717392495 L243.53984695520606 195.4892717392495 L243.53984695520606 230.34687894444684 C238.62330806541922 230.7267142676434 234.52366726166122 234.24397827455928 233.04163593760182 239.00314108667845 Z M182.06767934097093 195.48927200678213 L200.2041153472507 195.48927200678213 L200.2041153472507 206.706477004381 L182.06767934097093 206.706477004381 Z M243.53956663951823 187.07342272417566 L208.62024500406784 187.07342272417566 L208.62024500406784 169.4158487475412 L243.53984701372883 169.4158487475412 L243.53984701372883 187.07342272417566 Z M200.20439358120018 169.4158487475412 L200.20439358120018 187.07370309838626 L182.0679575749204 187.07370309838626 L182.0679575749204 169.4158487475412 Z M173.6518279181033 169.4158487475412 L173.6518279181033 187.07370309838626 L139.21613681413996 187.07370309838626 L139.21613681413996 169.4158487475412 Z M219.41076539859108 283.1667137269115 C206.61025834011008 286.0985151485895 198.90106015144758 285.97985157953326 184.65022117679615 285.97985157953326 C167.25746599274277 285.97985157953326 158.85367922197628 285.6987622207175 148.26878655767655 273.6713916295106 L129.31545139523735 250.69416004046838 C126.01868274359592 246.4012351951354 131.99000840854325 241.33349140317355 135.82595245162798 245.22778538598396 L149.7191174037164 260.3084260811361 C153.390952375089 264.18280252615426 158.0115340803597 266.3150984265042 163.70653945683986 266.44049418700695 L202.2253201900249 266.44049418700695 C204.54921681655554 266.44049418700695 206.43324483132812 264.5564660384681 206.43324483132812 262.23256954570377 C206.43324483132812 259.90867305293943 204.54921668278922 258.0246449044005 202.2253201900249 258.0246449044005 L164.43395001380588 258.0246449044005 L164.43395001380588 251.65020024929953 C164.43395001380588 249.8374263437898 165.90868732786691 248.36240838798548 167.72174187511996 248.36240838798548 L187.1769404537809 248.36240838798548 C191.55991464672854 248.67631955445526 197.88610845187156 245.01654722868898 201.74225120955703 243.31458213381586 C208.75545894506246 240.05372117854913 216.738172877488 240.18276421158373 223.63327886248896 243.66299828956772 L232.44579505048046 248.13910808670792 L232.44579505048046 280.0486425348363 Z M254.63081512819303 280.54237152070107 C254.63081512819303 282.8592547789766 253.03320635788901 284.7441244514463 251.06950832571385 284.7441244514463 L244.4226704938229 284.7441244514463 C242.45897232788138 284.7441244514463 240.86164406555432 282.8592547789766 240.86164406555432 280.54237152070107 L240.86164406555432 242.9268922862908 C240.86164406555432 240.61000902801527 242.4592528358583 238.72485871380226 244.4226704938229 238.72485871380226 L251.06950832571385 238.72485871380226 C253.03320649165533 238.72485871380226 254.63081512819303 240.609728386272 254.63081512819303 242.9268922862908 Z "/>            	    </defs>            	    <g>            	      <use xmlns:xlink="http://www.w3.org/1999/xlink" xlink:href="#s-Path_4-aaab6" fill="#6555FF" fill-opacity="1.0" stroke-width="3.0" stroke="#FFFFFF" stroke-linecap="butt" filter="none"/>            	    </g>            	  </g>            	</svg>