<svg width="89" height="40" viewBox="0 0 89 40" fill="none" xmlns="http://www.w3.org/2000/svg">
<g clip-path="url(#clip0_10:3197)">
<path d="M70.0701 11.1001H63.4901H37.3101V11.9601H41.3101V15.5701H41.7901V11.9601H47.2601V15.5701H47.7401V11.9601H53.2101V15.5701H53.6901V11.9601H59.1601V15.5701H59.6401V11.9601H63.5001H65.1101V15.5701H65.2201H65.5801H65.6901V11.9601H70.0701H71.1601V15.5701H71.6401V11.9601H77.1101V15.5701H77.5901V11.9601H81.3701C82.3101 11.9601 83.0601 12.7201 83.0601 13.6501V15.5601H83.5401V13.5001C83.5401 12.1801 82.4701 11.1001 81.1401 11.1001H70.0701Z" fill="#DAD1D1"/>
<path d="M86.51 17.16V32.47H4.91999L2.80999 31.8C2.29999 31.63 1.88999 31.26 1.66999 30.8C1.54999 30.55 1.48999 30.27 1.48999 29.98L1.49999 27.82L1.50999 26.93V26.51L1.51999 25.62V25.21L1.52999 24.32V23.37C1.53999 22.66 1.69999 21.38 1.97999 20.21C2.30999 18.85 3.44999 17.83 4.83999 17.67L17.03 15.62C17.21 15.59 17.38 15.52 17.52 15.43C17.61 15.37 17.69 15.3 17.77 15.22C17.83 15.16 17.88 15.09 17.93 15.01C18.02 14.86 18.08 14.69 18.1 14.51C18.34 12.53 19.05 6.58 19.05 6.58C19.22 5.31 19.33 4.13 19.59 3.13C19.61 3.06 19.63 2.99 19.65 2.92C19.67 2.85 19.69 2.78 19.72 2.71C20.24 1.06 21.36 0 24.2 0L33.92 0.01C35.8 0.02 37.31 1.54 37.31 3.42V15.33H84.68C85.69 15.33 86.51 16.15 86.51 17.16Z" fill="#1B80F5"/>
<path d="M84.64 19.25H50.7201C45.1001 19.25 40.55 23.8 40.55 29.42V30.31H84.64V19.25Z" fill="#6AA6EC"/>
<path d="M1.53003 30.4099C1.56003 30.5499 1.61003 30.6799 1.67003 30.8099C1.89003 31.2699 2.30003 31.6399 2.81003 31.8099L4.92003 32.4799H86.51V30.4199H1.53003V30.4099Z" fill="#614F49"/>
<path d="M86.41 17.65C87.46 17.57 87.46 23.48 86.42 23.49C86.32 22.4 86.31 18.75 86.41 17.65Z" fill="#FF4515"/>
<path d="M20.6901 31.29V32.47H5.58008V31.29C5.58008 27.12 8.96008 23.74 13.1301 23.74C17.3001 23.74 20.6901 27.12 20.6901 31.29Z" fill="#614F49"/>
<path d="M73.4899 31.29V32.47H58.3799V31.29C58.3799 27.12 61.7599 23.74 65.9299 23.74C70.1099 23.74 73.4899 27.12 73.4899 31.29Z" fill="#614F49"/>
<path d="M19.98 32.04V32.46H6.28003V32.06C6.28003 31.92 6.28003 31.79 6.29003 31.65C6.50003 28.08 9.47003 25.24 13.1 25.24H13.18C16.94 25.25 19.98 28.29 19.98 32.04Z" fill="#3E312C"/>
<path d="M1.24008 18.2601C0.170076 18.2001 0.170076 22.8601 1.22008 22.8701C1.32008 22.0101 1.33008 19.1301 1.24008 18.2601Z" fill="#FFE697"/>
<path d="M4.42 29.8899C4.42 30.5599 3.88 31.0999 3.21 31.0999H1.21C0.54 31.0999 0 30.5599 0 29.8899C0 29.2199 0.54 28.6799 1.21 28.6799H3.21C3.88 28.6799 4.42 29.2199 4.42 29.8899Z" fill="#EDEDED"/>
<path d="M4.26 24.78C4.26 25.02 4.06 25.23 3.81 25.23H1.5V24.34H3.82C4.06 24.33 4.26 24.53 4.26 24.78Z" fill="#614F49"/>
<path d="M4.25999 26.0799C4.25999 26.3199 4.05999 26.5199 3.80999 26.5199H1.48999V25.6299H3.81999C4.05999 25.6399 4.25999 25.8299 4.25999 26.0799Z" fill="#614F49"/>
<path d="M4.25998 27.3799C4.25998 27.6299 4.05998 27.8299 3.80998 27.8299H1.47998V26.9399H3.80998C4.05998 26.9399 4.25998 27.1399 4.25998 27.3799Z" fill="#614F49"/>
<path d="M72.7901 32.04V32.46H59.0901V32.06C59.0901 31.92 59.0901 31.79 59.1001 31.65C59.3101 28.08 62.2801 25.24 65.9101 25.24H65.9901C69.7401 25.25 72.7901 28.29 72.7901 32.04Z" fill="#3E312C"/>
<path d="M3.76 17.6699C2.87 17.6699 2.21 17.7499 1.76 17.9199L1.8 18.1999C1.9 19.1099 1.89 22.0299 1.78 22.9399L1.75 23.2299C2.2 23.4099 2.87 23.5099 3.75 23.5199C6.87 23.5299 16.16 22.1799 16.17 20.5699C16.16 18.9499 6.89 17.6799 3.76 17.6699Z" fill="#6AA6EC"/>
<path d="M1.80004 18.1999L1.77004 17.9099C1.53004 17.9999 1.34004 18.1199 1.22004 18.2599C0.780037 18.7899 1.07004 19.6599 1.07004 20.5699C1.07004 21.4899 0.750037 22.3199 1.20004 22.8599C1.32004 22.9999 1.50004 23.1199 1.74004 23.2199L1.77004 22.9299C1.89004 22.0299 1.90004 19.1099 1.80004 18.1999Z" fill="#614F49"/>
<path d="M1.24008 18.2601C0.170076 18.2001 0.170076 22.8601 1.22008 22.8701C1.32008 22.0101 1.33008 19.1301 1.24008 18.2601Z" fill="#FFE697"/>
<path d="M84.6399 30.3201C84.6399 30.9901 85.0999 31.5301 85.6599 31.5301H87.3599C87.9299 31.5301 88.3799 30.9901 88.3799 30.3201C88.3799 29.6501 87.9199 29.1101 87.3599 29.1101H85.6599C85.0999 29.1101 84.6399 29.6501 84.6399 30.3201Z" fill="#EDEDED"/>
<path d="M26.57 29.7499H23.29C22.44 29.7499 21.75 29.0599 21.75 28.2099V4.27991C21.75 3.10991 22.7 2.15991 23.87 2.15991H32.82C33.99 2.15991 34.94 3.10991 34.94 4.27991V28.2099C34.94 29.0599 34.25 29.7499 33.4 29.7499H30.12H26.57Z" fill="#1B80F5"/>
<path d="M20.69 3.84992V14.0099C20.69 14.6799 20.15 15.2199 19.48 15.2199H17.76C17.82 15.1599 17.87 15.0899 17.92 15.0099C18.01 14.8599 18.07 14.6899 18.09 14.5099C18.33 12.5299 19.04 6.57992 19.04 6.57992C19.21 5.30992 19.32 4.12992 19.58 3.12992C19.6 3.05992 19.62 2.98992 19.64 2.91992H19.76C20.27 2.91992 20.69 3.33992 20.69 3.84992Z" fill="#ABEDE3"/>
<path d="M19.75 2.70996H19.7C19.67 2.77996 19.65 2.84996 19.63 2.91996C19.61 2.98996 19.59 3.05996 19.57 3.12996H19.75C20.15 3.12996 20.47 3.44996 20.47 3.84996V14.01C20.47 14.56 20.02 15.01 19.47 15.01H17.91C17.87 15.09 17.81 15.16 17.75 15.22C17.68 15.3 17.59 15.37 17.5 15.43H19.47C20.26 15.43 20.9 14.79 20.9 14V3.84996C20.9 3.21996 20.38 2.70996 19.75 2.70996Z" fill="#614F49"/>
<path d="M32.9201 15.2199H23.7801C23.1301 15.2199 22.6001 14.6899 22.6001 14.0399V4.09992C22.6001 3.44992 23.1301 2.91992 23.7801 2.91992H32.9201C33.5701 2.91992 34.1001 3.44992 34.1001 4.09992V14.0399C34.1001 14.6899 33.5801 15.2199 32.9201 15.2199Z" fill="#ABEDE3"/>
<path d="M32.9199 15.43H23.7799C23.0099 15.43 22.3899 14.81 22.3899 14.04V4.09996C22.3899 3.32996 23.0099 2.70996 23.7799 2.70996H32.9199C33.6899 2.70996 34.3099 3.32996 34.3099 4.09996V14.04C34.3199 14.81 33.6899 15.43 32.9199 15.43ZM23.7799 3.12996C23.2399 3.12996 22.8099 3.56996 22.8099 4.09996V14.04C22.8099 14.58 23.2499 15.01 23.7799 15.01H32.9199C33.4599 15.01 33.8899 14.57 33.8899 14.04V4.09996C33.8899 3.55996 33.4499 3.12996 32.9199 3.12996H23.7799Z" fill="#614F49"/>
<path d="M33.4599 17.1499C33.4599 17.4399 32.6699 17.6699 31.6999 17.6699C30.7299 17.6699 29.9399 17.4399 29.9399 17.1499C29.9399 16.8599 30.7299 16.6299 31.6999 16.6299C32.6699 16.6299 33.4599 16.8599 33.4599 17.1499Z" fill="#614F49"/>
<path d="M79.22 26.0299C79.23 26.9499 81.29 27.7299 84.46 27.7199C85.82 27.7199 87.23 27.5899 87.57 27.3599C88.02 27.0499 87.99 25.0299 87.54 24.7299C87.2 24.4899 85.8 24.3799 84.42 24.3799C81.26 24.3799 79.21 25.0999 79.22 26.0299Z" fill="#1B80F5"/>
<path d="M87.5099 24.6198C88.2099 24.5798 88.2199 27.4398 87.5199 27.4398C87.4499 26.9198 87.4399 25.1498 87.5099 24.6198Z" fill="#FFE697"/>
<g opacity="0.65">
<path opacity="0.65" d="M33.5401 4.09998V4.67998L29.0401 14.66H25.0601L30.0701 3.47998H32.9301C33.2601 3.47998 33.5401 3.75998 33.5401 4.09998Z" fill="white"/>
<path opacity="0.65" d="M29.5601 3.47998L24.5701 14.66H23.7701C23.6101 14.66 23.4601 14.6 23.3501 14.5L28.2501 3.47998H29.5601Z" fill="white"/>
</g>
<path d="M24.1899 14.0601C24.1899 14.2701 24.0199 14.4401 23.8099 14.4401H22.5699C22.3599 14.4401 22.1799 14.2701 22.1799 14.0501V9.1801C22.1799 8.8601 22.4399 8.6001 22.7599 8.6001H23.6499C23.9499 8.6001 24.1899 8.8401 24.1899 9.1401V14.0601Z" fill="#614F49"/>
<path d="M20.5999 16.6301C20.5499 16.6301 20.4899 16.6201 20.4399 16.5901C20.2699 16.5001 20.1999 16.2901 20.2899 16.1201L22.6199 11.6201C22.7099 11.4501 22.9199 11.3801 23.0899 11.4701C23.2599 11.5601 23.3299 11.7701 23.2399 11.9401L20.9099 16.4401C20.8499 16.5601 20.7299 16.6301 20.5999 16.6301Z" fill="#3C3C3B"/>
<path d="M10.6499 32.24C10.6499 33.61 11.7599 34.72 13.1299 34.72C14.4999 34.72 15.6099 33.61 15.6099 32.24C15.6099 30.87 14.4999 29.76 13.1299 29.76C11.7599 29.76 10.6499 30.87 10.6499 32.24Z" fill="white"/>
<path d="M13.1299 26.02C9.68991 26.02 6.90991 28.8 6.90991 32.24C6.90991 35.68 9.69991 38.46 13.1299 38.46C16.5599 38.46 19.3499 35.67 19.3499 32.24C19.3499 28.8 16.5699 26.02 13.1299 26.02ZM13.1299 36.46C10.7999 36.46 8.89991 34.57 8.89991 32.24C8.89991 29.91 10.7899 28.02 13.1299 28.02C15.4599 28.02 17.3499 29.91 17.3499 32.24C17.3499 34.57 15.4599 36.46 13.1299 36.46Z" fill="#1D1715"/>
<path d="M8.76001 32.2401C8.76001 34.6501 10.72 36.6101 13.13 36.6101C15.54 36.6101 17.5 34.6501 17.5 32.2401C17.5 29.8301 15.54 27.8701 13.13 27.8701C10.72 27.8701 8.76001 29.8201 8.76001 32.2401ZM11.11 33.5501C10.94 33.3001 10.83 33.0101 10.76 32.7101C10.73 32.5601 10.71 32.4001 10.71 32.2401C10.71 32.0701 10.73 31.9001 10.77 31.7301C10.83 31.4301 10.95 31.1501 11.12 30.9001C11.3 30.6301 11.54 30.3901 11.81 30.2101C12.06 30.0501 12.34 29.9301 12.64 29.8701C12.8 29.8401 12.96 29.8201 13.13 29.8201C13.3 29.8201 13.46 29.8401 13.62 29.8701C13.92 29.9301 14.2 30.0501 14.45 30.2101C14.73 30.3901 14.96 30.6301 15.14 30.9001C15.31 31.1501 15.43 31.4301 15.49 31.7301C15.52 31.8901 15.54 32.0601 15.54 32.2401C15.54 32.4001 15.52 32.5601 15.49 32.7101C15.43 33.0101 15.31 33.3001 15.15 33.5501C14.97 33.8301 14.74 34.0601 14.46 34.2501C14.21 34.4201 13.92 34.5401 13.62 34.6001C13.46 34.6301 13.3 34.6501 13.13 34.6501C12.96 34.6501 12.8 34.6301 12.64 34.6001C12.33 34.5401 12.05 34.4101 11.79 34.2501C11.52 34.0601 11.29 33.8301 11.11 33.5501ZM10.7 29.1001C11.25 28.6701 11.91 28.3801 12.64 28.3001V29.4901C12.23 29.5601 11.86 29.7201 11.53 29.9501L10.7 29.1001ZM13.62 28.2901C14.35 28.3801 15.01 28.6701 15.56 29.0901L14.72 29.9301C14.39 29.7001 14.02 29.5501 13.61 29.4701V28.2901H13.62ZM16.26 29.7901C16.69 30.3401 16.98 31.0101 17.08 31.7401H15.89C15.81 31.3301 15.65 30.9601 15.42 30.6301L16.26 29.7901ZM17.08 32.7101C16.99 33.4401 16.71 34.1101 16.27 34.6701L15.43 33.8301C15.66 33.5001 15.82 33.1201 15.89 32.7101H17.08ZM15.58 35.3701C15.03 35.8101 14.35 36.1001 13.62 36.1901V35.0001C14.03 34.9301 14.42 34.7701 14.74 34.5301L15.58 35.3701ZM12.64 36.1801C11.9 36.0901 11.23 35.8001 10.68 35.3601L11.52 34.5201C11.85 34.7501 12.23 34.9201 12.64 34.9901V36.1801ZM9.99001 34.6701C9.56001 34.1201 9.27001 33.4401 9.18001 32.7101H10.37C10.44 33.1201 10.6 33.5001 10.83 33.8301L9.99001 34.6701ZM9.19001 31.7301C9.28001 31.0001 9.57001 30.3401 10 29.7901L10.84 30.6301C10.61 30.9601 10.45 31.3301 10.37 31.7401H9.19001V31.7301Z" fill="#DAD1D1"/>
<path d="M63.46 32.24C63.46 33.61 64.57 34.72 65.94 34.72C67.31 34.72 68.42 33.61 68.42 32.24C68.42 30.87 67.31 29.76 65.94 29.76C64.56 29.76 63.46 30.87 63.46 32.24Z" fill="white"/>
<path d="M65.94 26.02C62.5 26.02 59.72 28.8 59.72 32.24C59.72 35.68 62.51 38.46 65.94 38.46C69.37 38.46 72.16 35.67 72.16 32.24C72.16 28.8 69.37 26.02 65.94 26.02ZM65.94 36.46C63.61 36.46 61.71 34.57 61.71 32.24C61.71 29.91 63.6 28.02 65.94 28.02C68.27 28.02 70.16 29.91 70.16 32.24C70.16 34.57 68.27 36.46 65.94 36.46Z" fill="#1D1715"/>
<path d="M61.5601 32.2401C61.5601 34.6501 63.5201 36.6101 65.9301 36.6101C68.3401 36.6101 70.3001 34.6501 70.3001 32.2401C70.3001 29.8301 68.3401 27.8701 65.9301 27.8701C63.5201 27.8701 61.5601 29.8201 61.5601 32.2401ZM63.9101 33.5501C63.7401 33.3001 63.6301 33.0101 63.5601 32.7101C63.5301 32.5601 63.5101 32.4001 63.5101 32.2401C63.5101 32.0701 63.5301 31.9001 63.5701 31.7301C63.6301 31.4301 63.7501 31.1501 63.9201 30.9001C64.1001 30.6301 64.3401 30.3901 64.6201 30.2101C64.8701 30.0501 65.1501 29.9301 65.4501 29.8701C65.6101 29.8401 65.7701 29.8201 65.9401 29.8201C66.1101 29.8201 66.2701 29.8401 66.4301 29.8701C66.7301 29.9301 67.0101 30.0501 67.2601 30.2101C67.5401 30.3901 67.7701 30.6301 67.9601 30.9001C68.1201 31.1501 68.2501 31.4301 68.3101 31.7301C68.3401 31.8901 68.3601 32.0601 68.3601 32.2401C68.3601 32.4001 68.3401 32.5601 68.3101 32.7101C68.2501 33.0101 68.1301 33.3001 67.9701 33.5501C67.7901 33.8301 67.5601 34.0601 67.2801 34.2501C67.0301 34.4201 66.7401 34.5401 66.4401 34.6001C66.2801 34.6301 66.1201 34.6501 65.9501 34.6501C65.7801 34.6501 65.6201 34.6301 65.4601 34.6001C65.1501 34.5401 64.8701 34.4101 64.6101 34.2501C64.3301 34.0601 64.0901 33.8301 63.9101 33.5501ZM63.5001 29.1001C64.0501 28.6701 64.7201 28.3801 65.4401 28.3001V29.4901C65.0301 29.5601 64.6601 29.7201 64.3301 29.9501L63.5001 29.1001ZM66.4201 28.2901C67.1501 28.3801 67.8101 28.6701 68.3601 29.0901L67.5201 29.9301C67.1901 29.7001 66.8201 29.5501 66.4101 29.4701V28.2901H66.4201ZM69.0601 29.7901C69.4901 30.3401 69.7801 31.0101 69.8801 31.7401H68.6901C68.6201 31.3301 68.4501 30.9601 68.2201 30.6301L69.0601 29.7901ZM69.8801 32.7101C69.7901 33.4401 69.5101 34.1101 69.0701 34.6701L68.2301 33.8301C68.4601 33.5001 68.6201 33.1201 68.6901 32.7101H69.8801ZM68.3901 35.3701C67.8401 35.8101 67.1601 36.1001 66.4301 36.1901V35.0001C66.8401 34.9301 67.2301 34.7701 67.5601 34.5301L68.3901 35.3701ZM65.4501 36.1801C64.7101 36.0901 64.0401 35.8001 63.4901 35.3601L64.3301 34.5201C64.6601 34.7501 65.0401 34.9201 65.4501 34.9901V36.1801ZM62.7901 34.6701C62.3601 34.1201 62.0701 33.4401 61.9801 32.7101H63.1701C63.2401 33.1201 63.4001 33.5001 63.6301 33.8301L62.7901 34.6701ZM61.9901 31.7301C62.0801 31.0001 62.3701 30.3301 62.8101 29.7801L63.6501 30.6201C63.4201 30.9501 63.2601 31.3201 63.1801 31.7301H61.9901Z" fill="#DAD1D1"/>
<path opacity="0.1" d="M44 39.67C67.4445 39.67 86.45 39.1283 86.45 38.46C86.45 37.7917 67.4445 37.25 44 37.25C20.5556 37.25 1.55005 37.7917 1.55005 38.46C1.55005 39.1283 20.5556 39.67 44 39.67Z" fill="#1D1D1B"/>
</g>
<defs>
<clipPath id="clip0_10:3197">
<rect width="88.39" height="39.67" fill="white"/>
</clipPath>
</defs>
</svg>
