<svg width="97" height="55" viewBox="0 0 97 55" fill="none" xmlns="http://www.w3.org/2000/svg">
<path d="M97 15.4277H71.4451V17.215H95.4934L97 15.4277Z" fill="#C6C6C5"/>
<path d="M96.0244 16.5813H71.4451V17.1886H95.4934L96.0244 16.5813Z" fill="#D5D5D5"/>
<path d="M95.4932 17.2148H69.9383L67.876 18.9981C67.876 18.9981 88.1927 18.9981 91.1833 18.9981C94.1719 18.9981 95.4932 17.2148 95.4932 17.2148Z" fill="#352E35"/>
<path d="M80.3635 26.9049C81.1601 27.0268 82.0554 25.5543 82.3682 23.6147C82.679 21.675 81.9504 20.0868 80.5446 19.9568L80.3635 26.9049Z" fill="#F8B133"/>
<path d="M11.88 40.6752C13.8168 40.6752 15.3069 36.4873 15.5868 35.6464L14.7265 35.3682C14.1173 37.2022 12.8329 39.7836 11.88 39.7836C10.9003 39.7836 9.79087 37.2184 9.31748 35.3946L8.44067 35.6159C8.65885 36.4629 9.85879 40.6752 11.88 40.6752Z" fill="#9C9B9B"/>
<path d="M9.30725 51.4925C9.91649 49.6585 11.2049 47.0771 12.1538 47.0771C13.1356 47.0771 14.2449 49.6402 14.7183 51.4641L15.5951 51.2427C15.3749 50.3998 14.177 46.1875 12.1538 46.1875C10.219 46.1875 8.72683 50.3755 8.44897 51.2143L9.30725 51.4925Z" fill="#9C9B9B"/>
<path d="M7.22035 42.9643C8.25152 42.9643 9.16537 42.7511 9.56467 42.1072C10.5753 40.4804 7.73491 37.0358 7.15449 36.3635L6.46498 36.9403C7.72873 38.4108 9.29092 40.8419 8.79283 41.6401C8.28651 42.4566 5.16213 41.959 3.20887 41.3639L2.94336 42.2149C3.51555 42.3896 5.52643 42.9643 7.22035 42.9643Z" fill="#9C9B9B"/>
<path d="M16.8794 50.4995L17.5689 49.9206C16.2496 48.3913 14.5269 45.7652 15.0167 44.9751C15.5189 44.1647 18.4993 44.7171 20.3578 45.3447L20.6522 44.5019C19.7692 44.2033 15.309 42.7978 14.247 44.51C13.2343 46.1389 16.262 49.7845 16.8794 50.4995Z" fill="#9C9B9B"/>
<path d="M16.9002 43.1551C18.4459 43.1551 20.1419 42.7692 20.6564 42.6433L20.4383 41.776C18.5262 42.2452 15.4821 42.5702 15.0231 41.772C14.5353 40.9271 16.3342 38.5528 17.7667 37.1372L17.1286 36.5076C16.47 37.1575 13.2427 40.4823 14.2389 42.2147C14.6526 42.9337 15.7332 43.1551 16.9002 43.1551Z" fill="#9C9B9B"/>
<path d="M6.5472 50.538C7.24082 49.9023 10.6616 46.6506 9.65717 44.908C8.69598 43.2385 3.92502 44.2175 2.97412 44.4307L3.17583 45.302C5.20112 44.8471 8.40783 44.5465 8.87093 45.3447C9.34638 46.1733 7.3993 48.5415 5.93179 49.8799L6.5472 50.538Z" fill="#9C9B9B"/>
<path d="M1.16504 43.4273C1.16504 49.1852 5.89484 53.8505 11.7278 53.8505C17.5609 53.8505 22.2886 49.1852 22.2886 43.4273C22.2886 37.6734 17.5609 33.0061 11.7278 33.0061C5.89484 33.0061 1.16504 37.6734 1.16504 43.4273ZM4.19886 43.4273C4.19886 39.2637 7.61963 35.8902 11.841 35.8902C16.0584 35.8902 19.4791 39.2657 19.4791 43.4273C19.4791 47.5929 16.0563 50.9684 11.841 50.9684C7.61757 50.9684 4.19886 47.5929 4.19886 43.4273Z" fill="#9C9B9B"/>
<path d="M0 43.4273C0 49.819 5.25053 55.0001 11.7257 55.0001C18.2029 55.0001 23.4514 49.819 23.4514 43.4273C23.4514 37.0357 18.2029 31.8586 11.7257 31.8586C5.25053 31.8586 0 37.0377 0 43.4273ZM3.36931 43.4273C3.36931 38.8068 7.16674 35.0595 11.8513 35.0595C16.5358 35.0595 20.3353 38.8068 20.3353 43.4273C20.3353 48.052 16.5358 51.7992 11.8513 51.7992C7.16674 51.7992 3.36931 48.052 3.36931 43.4273Z" fill="#352E35"/>
<path d="M8.60742 43.4274C8.60742 45.1964 10.0585 46.6303 11.8512 46.6303C13.6418 46.6303 15.0929 45.1964 15.0929 43.4274C15.0929 41.6624 13.6418 40.2285 11.8512 40.2285C10.0585 40.2285 8.60742 41.6624 8.60742 43.4274Z" fill="#828281"/>
<path d="M10.6863 43.4272C10.6863 44.0629 11.207 44.5768 11.8492 44.5768C12.4934 44.5768 13.0141 44.0629 13.0141 43.4272C13.0141 42.7915 12.4934 42.2817 11.8492 42.2817C11.2091 42.2817 10.6863 42.7936 10.6863 43.4272Z" fill="#C6C6C5"/>
<path d="M9.56055 43.4272C9.56055 44.6783 10.5855 45.6877 11.8513 45.6877C13.1151 45.6877 14.1422 44.6763 14.1422 43.4272C14.1422 42.1801 13.1172 41.1687 11.8513 41.1687C10.5855 41.1707 9.56055 42.1801 9.56055 43.4272Z" stroke="#9C9B9B" stroke-width="0.33" stroke-linecap="round" stroke-linejoin="round"/>
<path d="M11.3943 43.4274C11.3943 43.6773 11.5981 43.8804 11.8512 43.8804C12.1044 43.8804 12.3102 43.6773 12.3102 43.4274C12.3102 43.1797 12.1044 42.9766 11.8512 42.9766C11.5981 42.9786 11.3943 43.1797 11.3943 43.4274Z" fill="#6F6F6E"/>
<path d="M19.2198 27.9285C18.6064 27.6259 17.8696 27.8736 17.565 28.487L10.7255 42.2654C10.425 42.8747 10.6741 43.6181 11.2853 43.9187C11.8946 44.2254 12.6355 43.9715 12.9402 43.3622L19.7796 29.5838C20.0801 28.9704 19.829 28.2311 19.2198 27.9285Z" fill="#C6C6C5"/>
<path d="M12.0715 42.7693L18.911 28.9908C19.1024 28.6049 19.0695 28.1683 18.8698 27.823C18.9892 27.8413 19.1065 27.8738 19.2177 27.9286C19.8269 28.2312 20.078 28.9705 19.7775 29.5819L12.9401 43.3623C12.6355 43.9716 11.8966 44.2255 11.2853 43.9188C11.0609 43.8112 10.8839 43.6365 10.7666 43.4354C11.2894 43.5208 11.8245 43.2669 12.0715 42.7693Z" fill="#D5D5D5"/>
<path d="M16.6221 6.22506C15.8564 5.9854 15.6815 4.40323 16.2331 2.69108C16.7847 0.980964 18.1205 -1.88053e-05 19.4377 0.497581L16.6221 6.22506Z" fill="#F8B133"/>
<path d="M26.6232 47.4751H52.5198L54.4566 36.5076C54.4566 36.5076 58.3919 32.1409 65.1429 31.3711C77.5272 30.7334 80.452 47.4751 80.452 47.4751H84.13C84.13 47.4751 85.6901 46.3824 85.6901 44.5788C85.6901 41.4734 84.0065 31.2452 79.0832 27.0247C79.0709 23.1881 79.0709 16.5122 79.0709 16.5122C79.0709 16.5122 47.8497 18.9189 45.6494 18.9189C45.6536 24.9775 49.9305 25.8021 49.8009 33.0081C49.6733 40.2121 47.7365 42.2818 47.7365 42.2818H30.8837L19.44 23.7386L22.2886 10.3074C22.2886 10.3074 23.8261 5.27049 24.1636 3.9219C24.5032 2.5733 24.5197 1.35469 23.2189 1.00739C21.9181 0.65805 19.438 0 19.438 0L16.2868 6.68408L18.1227 8.81868C18.1227 8.81868 16.5564 13.4433 15.587 16.2096C13.5144 22.1198 9.78076 25.408 9.78076 25.408L10.0216 29.0314L21.5559 34.8239L26.5841 46.4981L26.6232 47.4751Z" fill="#00AAD6"/>
<path d="M66.3346 40.6752C68.2713 40.6752 69.7615 36.4873 70.0394 35.6464L69.1811 35.3682C68.5718 37.2022 67.2834 39.7836 66.3346 39.7836C65.3548 39.7836 64.2455 37.2184 63.77 35.3946L62.8953 35.6159C63.1114 36.4629 64.3134 40.6752 66.3346 40.6752Z" fill="#9C9B9B"/>
<path d="M63.7618 51.4925C64.3731 49.6585 65.6595 47.0771 66.6104 47.0771C67.5901 47.0771 68.6995 49.6402 69.175 51.4641L70.0497 51.2427C69.8295 50.3998 68.6337 46.1875 66.6104 46.1875C64.6736 46.1875 63.1835 50.3755 62.9036 51.2143L63.7618 51.4925Z" fill="#9C9B9B"/>
<path d="M61.6769 42.9643C62.706 42.9643 63.6199 42.7511 64.0212 42.1072C65.0318 40.4804 62.1914 37.0358 61.611 36.3635L60.9215 36.9403C62.1853 38.4108 63.7475 40.8419 63.2494 41.6401C62.743 42.4566 59.6207 41.959 57.6675 41.3639L57.3999 42.2149C57.97 42.3896 59.983 42.9643 61.6769 42.9643Z" fill="#9C9B9B"/>
<path d="M71.334 50.4995L72.0215 49.9206C70.7042 48.3913 68.9794 45.7652 69.4692 44.9751C69.9715 44.1647 72.9518 44.7171 74.8103 45.3447L75.1047 44.5019C74.2217 44.2033 69.7615 42.7978 68.6995 44.51C67.6889 46.1389 70.7186 49.7845 71.334 50.4995Z" fill="#9C9B9B"/>
<path d="M71.3546 43.1551C72.9004 43.1551 74.5964 42.7692 75.113 42.6433L74.8927 41.776C72.9786 42.2452 69.9365 42.5702 69.4775 41.772C68.9897 40.9271 70.7886 38.5528 72.2212 37.1372L71.5811 36.5076C70.9224 37.1575 67.6951 40.4823 68.6913 42.2147C69.1071 42.9337 70.1856 43.1551 71.3546 43.1551Z" fill="#9C9B9B"/>
<path d="M61.0017 50.538C61.6974 49.9023 65.114 46.6506 64.1117 44.908C63.1505 43.2385 58.3774 44.2175 57.4307 44.4307L57.6303 45.302C59.6556 44.8471 62.8644 44.5465 63.3254 45.3447C63.8009 46.1733 61.8517 48.5415 60.3863 49.8799L61.0017 50.538Z" fill="#9C9B9B"/>
<path d="M55.6194 43.4273C55.6194 49.1852 60.3471 53.8505 66.1822 53.8505C72.0131 53.8505 76.7429 49.1852 76.7429 43.4273C76.7429 37.6734 72.0152 33.0061 66.1822 33.0061C60.3471 33.0061 55.6194 37.6734 55.6194 43.4273ZM58.6532 43.4273C58.6532 39.2637 62.074 35.8902 66.2933 35.8902C70.5127 35.8902 73.9355 39.2657 73.9355 43.4273C73.9355 47.5929 70.5127 50.9684 66.2933 50.9684C62.074 50.9684 58.6532 47.5929 58.6532 43.4273Z" fill="#9C9B9B"/>
<path d="M54.4565 43.4273C54.4565 49.819 59.705 55.0001 66.1822 55.0001C72.6574 55.0001 77.9038 49.819 77.9038 43.4273C77.9038 37.0357 72.6574 31.8586 66.1822 31.8586C59.705 31.8586 54.4565 37.0377 54.4565 43.4273ZM57.8238 43.4273C57.8238 38.8068 61.6212 35.0595 66.3078 35.0595C70.9923 35.0595 74.7897 38.8068 74.7897 43.4273C74.7897 48.052 70.9923 51.7992 66.3078 51.7992C61.6212 51.7992 57.8238 48.052 57.8238 43.4273Z" fill="#352E35"/>
<path d="M63.062 43.4274C63.062 45.1964 64.5151 46.6303 66.3078 46.6303C68.0964 46.6303 69.5495 45.1964 69.5495 43.4274C69.5495 41.6624 68.0964 40.2285 66.3078 40.2285C64.5131 40.2285 63.062 41.6624 63.062 43.4274Z" fill="#828281"/>
<path d="M65.1428 43.4272C65.1428 44.0629 65.6615 44.5768 66.3078 44.5768C66.952 44.5768 67.4707 44.0629 67.4707 43.4272C67.4707 42.7915 66.952 42.2817 66.3078 42.2817C65.6615 42.2817 65.1428 42.7936 65.1428 43.4272Z" fill="#C6C6C5"/>
<path d="M64.0149 43.4272C64.0149 44.6783 65.0399 45.6877 66.3057 45.6877C67.5695 45.6877 68.5945 44.6763 68.5945 43.4272C68.5945 42.1801 67.5695 41.1687 66.3057 41.1687C65.0399 41.1707 64.0149 42.1801 64.0149 43.4272Z" stroke="#9C9B9B" stroke-width="0.33" stroke-linecap="round" stroke-linejoin="round"/>
<path d="M65.8486 43.4274C65.8486 43.6773 66.0545 43.8804 66.3056 43.8804C66.5587 43.8804 66.7625 43.6773 66.7625 43.4274C66.7625 43.1797 66.5587 42.9766 66.3056 42.9766C66.0524 42.9786 65.8486 43.1797 65.8486 43.4274Z" fill="#6F6F6E"/>
<path d="M10.0215 32.6709C8.7866 32.6709 7.59695 32.8517 6.46493 33.1726C6.46493 33.1726 6.26734 30.3474 10.0215 29.0293C19.1909 29.0293 26.6232 36.3633 26.6232 45.4135C26.6232 45.7771 26.6067 46.1366 26.5841 46.494C25.378 45.9619 24.1615 45.4481 22.9143 45.0134C22.6981 38.1628 17.0154 32.6709 10.0215 32.6709Z" fill="#241E23"/>
<path d="M67.1145 29.4417C67.1166 29.4356 67.1186 29.4295 67.1207 29.4255C66.8016 29.4052 66.4785 29.3889 66.1533 29.3889C66.1471 29.3889 66.143 29.3889 66.1368 29.3889H66.1183C65.7931 29.3889 65.47 29.4031 65.151 29.4255C65.153 29.4295 65.1551 29.4356 65.1571 29.4417C57.5191 29.9637 51.4802 36.4 51.4802 44.2844C51.4802 45.3812 51.5996 46.4474 51.8219 47.4751H55.1912C54.9031 46.4617 54.7425 45.3913 54.7425 44.2844C54.7425 38.0086 59.6637 32.9087 65.7993 32.7178H66.4764C72.612 32.9087 77.5332 38.0086 77.5332 44.2844C77.5332 45.3933 77.3706 46.4617 77.0845 47.4751H80.4538C80.6741 46.4474 80.7935 45.3812 80.7935 44.2844C80.7914 36.4 74.7526 29.9637 67.1145 29.4417Z" fill="#0092C1"/>
<path d="M45.6493 18.9189H79.0686C79.0686 18.9189 79.0192 13.4148 76.5267 13.4148C74.0342 13.4148 65.0501 13.4148 62.3147 13.4148C59.5834 13.4148 56.1977 14.6009 50.3523 14.6009C44.5028 14.6009 45.6493 18.9189 45.6493 18.9189Z" fill="#241E23"/>
<path d="M80.7915 19.7375H77.9038V27.1528H80.7915V19.7375Z" fill="#00AAD6"/>
<path d="M27.0389 6.24345C27.1521 5.8149 26.8927 5.3762 26.4585 5.26247L20.3929 3.69249C19.9586 3.58281 19.514 3.83669 19.3987 4.26727C19.2855 4.69581 19.5428 5.13451 19.9771 5.24622L26.0448 6.8162C26.479 6.93196 26.9236 6.67402 27.0389 6.24345Z" fill="#B1B1B1"/>
<path d="M25.6598 5.79644C25.88 4.96982 26.7362 4.47628 27.5739 4.6936C28.4116 4.90889 28.9118 5.75379 28.6915 6.58245C28.4713 7.40704 27.6171 7.90058 26.7794 7.68529C25.9417 7.46797 25.4416 6.62307 25.6598 5.79644Z" fill="#B1B1B1"/>
</svg>
