<svg width="100" height="42" viewBox="0 0 100 42" fill="none" xmlns="http://www.w3.org/2000/svg">
<path d="M100 25.5061C100 25.685 99.8559 25.8271 99.6743 25.8271C99.4928 25.8271 99.3486 25.685 99.3486 25.5061V22.2284C99.3486 22.0495 99.4928 21.9075 99.6743 21.9075C99.8559 21.9075 100 22.0495 100 22.2284V25.5061Z" fill="#F0851D"/>
<path d="M90.2986 33.8766C90.2986 34.7658 89.5671 35.4866 88.6647 35.4866H23.9256C23.0232 35.4866 22.2917 34.7658 22.2917 33.8766V27.4896C22.2917 26.6004 23.0232 25.8796 23.9256 25.8796H88.6647C89.5671 25.8796 90.2986 26.6004 90.2986 27.4896V33.8766Z" fill="#333333"/>
<path d="M90.2986 33.8766C90.2986 34.7658 89.5671 35.4866 88.6647 35.4866H23.9256C23.0232 35.4866 22.2917 34.7658 22.2917 33.8766V27.4896C22.2917 26.6004 23.0232 25.8796 23.9256 25.8796H88.6647C89.5671 25.8796 90.2986 26.6004 90.2986 27.4896V33.8766Z" fill="#333333"/>
<path d="M90.2984 28.7419H39.0464V30.6886H90.2984V28.7419Z" fill="#1A1A1A"/>
<path d="M16.7655 6.42925C16.9043 6.56604 16.9043 6.78701 16.7655 6.9238L8.3294 15.2365C8.19058 15.3733 7.96633 15.3733 7.82751 15.2365C7.68868 15.0997 7.68868 14.8787 7.82751 14.7419L16.2636 6.42925C16.4024 6.29246 16.6267 6.29246 16.7655 6.42925Z" fill="#4D4D4D"/>
<path d="M10.7855 12.2216C11.0418 12.4742 11.0418 12.8793 10.7855 13.1318L8.39888 15.4836C8.14259 15.7361 7.73146 15.7361 7.47517 15.4836C7.21889 15.231 7.21889 14.8259 7.47517 14.5734L9.86185 12.2216C10.1128 11.9691 10.5293 11.9691 10.7855 12.2216Z" fill="#333333"/>
<path d="M39.3508 11.3853H36.0244V29.8415H39.3508V11.3853Z" fill="#1A1A1A"/>
<path d="M39.3453 1.8519C39.3453 2.22544 39.041 2.52533 38.6619 2.52533H38.3629C37.9838 2.52533 37.6794 2.22544 37.6794 1.8519C37.6794 1.48362 37.9838 1.17847 38.3629 1.17847H38.6619C39.041 1.17847 39.3453 1.48362 39.3453 1.8519Z" fill="#4D4D4D"/>
<path d="M18.5166 33.8768C18.5166 34.7659 17.7852 35.4867 16.8828 35.4867H3.54521C2.64286 35.4867 1.91138 34.7659 1.91138 33.8768V32.2984C1.91138 31.4093 2.64286 30.6885 3.54521 30.6885H16.8828C17.7852 30.6885 18.5166 31.4093 18.5166 32.2984V33.8768Z" fill="#1B80F5"/>
<path d="M36.8785 26.1061C36.8785 26.9952 36.1471 27.716 35.2447 27.716H3.54521C2.64286 27.716 1.91138 26.9952 1.91138 26.1061V21.9024C1.91138 21.0133 2.64286 20.2925 3.54521 20.2925H35.2394C36.1417 20.2925 36.8732 21.0133 36.8732 21.9024V26.1061H36.8785Z" fill="#1B80F5"/>
<path d="M36.8787 30.3465C36.8787 31.2357 36.1472 31.9565 35.2449 31.9565H20.1507C19.2483 31.9565 2.43481 21.6235 2.43481 20.7344L18.5168 4.91925C18.5168 4.03011 19.2483 3.30933 20.1507 3.30933H35.2396C36.1419 3.30933 36.8734 4.03011 36.8734 4.91925V30.3465H36.8787Z" fill="#1B80F5"/>
<path d="M82.3215 33.2875C81.7449 33.2875 81.275 32.956 81.275 32.5457C81.275 29.6573 77.9539 27.3055 73.8801 27.3055C69.8008 27.3055 66.4851 29.652 66.4851 32.5457C66.4851 32.956 66.0152 33.2875 65.4386 33.2875C64.8619 33.2875 64.3921 32.956 64.3921 32.5457C64.3921 28.8418 68.6475 25.8271 73.8747 25.8271C79.1019 25.8271 83.3573 28.8418 83.3573 32.5457C83.368 32.956 82.8982 33.2875 82.3215 33.2875Z" fill="white"/>
<path d="M34.6041 7.49184V14.163C34.6041 15.1574 33.7872 15.9623 32.7781 15.9623H13.8129C13.4978 15.9623 13.2202 15.9518 12.9746 15.9255C11.3781 15.7729 11.1485 15.1416 11.9868 14.1578L15.2705 10.8274L18.5702 7.48658C18.5702 6.49222 19.3871 5.68726 20.3962 5.68726H32.7834C33.7872 5.69252 34.6041 6.49748 34.6041 7.49184Z" fill="#4D4D4D"/>
<path d="M10.0647 24.5119C10.0647 25.401 9.33321 26.1218 8.43086 26.1218H4.06864C3.1663 26.1218 2.43481 25.401 2.43481 24.5119V22.3443C2.43481 21.4552 3.1663 20.7344 4.06864 20.7344H8.43086C9.33321 20.7344 10.0647 21.4552 10.0647 22.3443V24.5119Z" fill="#999999"/>
<path d="M37.0335 31.2672C37.0335 32.1563 36.302 32.8771 35.3997 32.8771H1.63383C0.731486 32.8771 0 32.1563 0 31.2672V28.4051C0 27.5159 0.731486 26.7952 1.63383 26.7952H35.3997C36.302 26.7952 37.0335 27.5159 37.0335 28.4051V31.2672Z" fill="#6AA6EC"/>
<path d="M21.6242 6.83945C21.6242 7.20248 21.4854 7.55497 21.2078 7.82856L13.1187 15.7992C13.0707 15.8466 13.0226 15.8887 12.9692 15.9255C11.3728 15.7729 11.1432 15.1416 11.9814 14.1578L18.5648 7.48658C18.5648 6.49222 19.3817 5.68726 20.3908 5.68726H21.0102C21.0796 5.72935 21.149 5.78722 21.2078 5.85035C21.4854 6.12393 21.6242 6.48696 21.6242 6.83945Z" fill="#1A1A1A"/>
<path d="M16.2849 15.9623H13.8075C13.4925 15.9623 13.2148 15.9518 12.9692 15.9255C11.3728 15.7729 11.1432 15.1416 11.9814 14.1577L15.2651 10.8274C15.6869 11.0221 16.018 11.3798 16.1461 11.8375L16.8189 14.3471C16.979 14.9469 16.7548 15.5625 16.2849 15.9623Z" fill="#1A1A1A"/>
<path d="M21.5015 15.6573C21.7151 15.8677 21.7151 16.2044 21.5015 16.4149C21.2879 16.6253 20.9462 16.6253 20.7326 16.4149L17.812 13.537C17.5985 13.3266 17.5985 12.9899 17.812 12.7794C18.0256 12.569 18.3673 12.569 18.5809 12.7794L21.5015 15.6573Z" fill="#1A1A1A"/>
<path d="M35.1486 23.8438C35.1486 24.7329 34.4171 25.4537 33.5148 25.4537H22.6172C21.7149 25.4537 20.9834 24.7329 20.9834 23.8438V15.4627C20.9834 14.5736 21.7149 13.8528 22.6172 13.8528H33.5148C34.4171 13.8528 35.1486 14.5736 35.1486 15.4627V23.8438Z" fill="#6AA6EC"/>
<path d="M35.1539 15.5205H11.5061V30.9305H35.1539V15.5205Z" fill="#1B80F5"/>
<path d="M32.8634 10.2016C32.8634 11.0907 32.1319 11.8115 31.2295 11.8115H22.6172C21.7149 11.8115 20.9834 11.0907 20.9834 10.2016V8.16021C20.9834 7.27107 21.7149 6.55029 22.6172 6.55029H31.2295C32.1319 6.55029 32.8634 7.27107 32.8634 8.16021V10.2016Z" fill="white"/>
<path d="M33.1252 19.7188C33.1252 20.0345 32.8636 20.2923 32.5432 20.2923H28.9392C28.6188 20.2923 28.3572 20.0345 28.3572 19.7188V19.0454C28.3572 18.7297 28.6188 18.4719 28.9392 18.4719H32.5432C32.8636 18.4719 33.1252 18.7297 33.1252 19.0454V19.7188Z" fill="#1A1A1A"/>
<path d="M23.7332 32.935C23.7332 33.1244 23.5784 33.277 23.3861 33.277H22.3236C22.1314 33.277 21.9766 33.1244 21.9766 32.935C21.9766 32.7456 22.1314 32.593 22.3236 32.593H23.3861C23.5784 32.593 23.7332 32.7456 23.7332 32.935Z" fill="#4D4D4D"/>
<path d="M36.0245 26.9215C36.0245 27.3635 35.6614 27.7212 35.2129 27.7212H11.6558C11.2073 27.7212 10.8442 27.3635 10.8442 26.9215C10.8442 26.4796 11.2073 26.1218 11.6558 26.1218H35.2129C35.6614 26.1218 36.0245 26.4796 36.0245 26.9215Z" fill="#6AA6EC"/>
<path d="M35.5865 25.5694C35.5865 25.8745 35.3356 26.1165 35.0312 26.1165H11.629C11.3193 26.1165 11.0737 25.8693 11.0737 25.5694C11.0737 25.2642 11.3247 25.0222 11.629 25.0222H35.0259C35.3356 25.0222 35.5865 25.2695 35.5865 25.5694Z" fill="#6AA6EC"/>
<path d="M35.8482 3.57237C35.8482 4.1511 35.373 4.61934 34.7857 4.61934H21.2078C20.6205 4.61934 20.1453 4.1511 20.1453 3.57237C20.1453 2.99364 20.6205 2.52539 21.2078 2.52539H34.7857C35.3676 2.52539 35.8482 2.99364 35.8482 3.57237Z" fill="#6AA6EC"/>
<path d="M9.60551 24.6275C9.60551 25.2904 9.0609 25.8271 8.38815 25.8271H3.65218C2.97942 25.8271 2.43481 25.2904 2.43481 24.6275C2.43481 23.9646 2.97942 23.428 3.65218 23.428H8.38281C9.0609 23.428 9.60551 23.9646 9.60551 24.6275Z" fill="#6AA6EC"/>
<path d="M6.78097 22.6229C6.78097 23.3858 6.15093 24.0066 5.37673 24.0066H4.28217C3.50797 24.0066 2.87793 23.3858 2.87793 22.6229C2.87793 21.8601 3.50797 21.2393 4.28217 21.2393H5.37673C6.15093 21.2393 6.78097 21.8601 6.78097 22.6229Z" fill="white"/>
<path d="M9.42933 22.6229C9.42933 23.3858 8.79929 24.0066 8.02509 24.0066H5.68647C4.91227 24.0066 4.28223 23.3858 4.28223 22.6229C4.28223 21.8601 4.91227 21.2393 5.68647 21.2393H8.02509C8.79929 21.2393 9.42933 21.8601 9.42933 22.6229Z" fill="#E6E6E6"/>
<path d="M35.2394 30.3465C35.2394 31.2357 34.5079 31.9564 33.6055 31.9564H2.56279C1.66044 31.9564 0.928955 31.2357 0.928955 30.3465V29.3311C0.928955 28.442 1.66044 27.7212 2.56279 27.7212H33.6055C34.5079 27.7212 35.2394 28.442 35.2394 29.3311V30.3465Z" fill="#1B80F5"/>
<path d="M29.3716 35.4867C29.3716 39.0801 26.4136 41.9948 22.7668 41.9948C19.1147 41.9948 16.1621 39.0801 16.1621 35.4867C16.1621 31.8933 19.1201 28.9734 22.7668 28.9734C26.4189 28.9786 29.3716 31.8933 29.3716 35.4867Z" fill="#333333"/>
<path d="M30.3326 36.5073C29.8147 36.5073 29.3982 36.097 29.3982 35.5866C29.3982 31.9827 26.4242 29.0522 22.7668 29.0522C19.1094 29.0522 16.1354 31.9827 16.1354 35.5866C16.1354 36.097 15.7136 36.5073 15.201 36.5073C14.6831 36.5073 14.2666 36.097 14.2666 35.5866C14.2666 30.9673 18.0789 27.2056 22.7721 27.2056C27.46 27.2056 31.2777 30.962 31.2777 35.5866C31.2723 36.097 30.8505 36.5073 30.3326 36.5073Z" fill="#1A1A1A"/>
<path d="M28.6613 35.6445C28.6613 38.8538 26.0237 41.4529 22.7667 41.4529C19.5097 41.4529 16.8721 38.8538 16.8721 35.6445C16.8721 32.4352 19.5097 29.8362 22.7667 29.8362C26.0237 29.8362 28.6613 32.4405 28.6613 35.6445Z" fill="#1A1A1A"/>
<path d="M26.6004 35.634C26.6004 37.7174 24.8864 39.4115 22.7667 39.4115C20.647 39.4115 18.9331 37.7227 18.9331 35.634C18.9331 33.5453 20.647 31.8564 22.7667 31.8564C24.8864 31.8564 26.6004 33.5505 26.6004 35.634Z" fill="#B2B2B2"/>
<path d="M24.6034 35.6182C24.6034 36.6178 23.7811 37.428 22.7667 37.428C21.7522 37.428 20.9299 36.6178 20.9299 35.6182C20.9299 34.6186 21.7522 33.8083 22.7667 33.8083C23.7811 33.8083 24.6034 34.6186 24.6034 35.6182Z" fill="#CCCCCC"/>
<path d="M24.123 35.6339C24.123 36.3705 23.5197 36.9703 22.7668 36.9703C22.0193 36.9703 21.4106 36.3758 21.4106 35.6339C21.4106 34.8974 22.014 34.2976 22.7668 34.2976C23.5143 34.2976 24.123 34.8974 24.123 35.6339Z" fill="#999999"/>
<path d="M22.7668 38.554C21.133 38.554 19.8035 37.244 19.8035 35.6341C19.8035 34.0241 21.133 32.7141 22.7668 32.7141C24.4006 32.7141 25.7301 34.0241 25.7301 35.6341C25.7301 37.244 24.4006 38.554 22.7668 38.554ZM22.7668 33.0403C21.3145 33.0403 20.1345 34.203 20.1345 35.6341C20.1345 37.0651 21.3145 38.2278 22.7668 38.2278C24.2191 38.2278 25.3991 37.0651 25.3991 35.6341C25.4044 34.203 24.2191 33.0403 22.7668 33.0403Z" fill="#CCCCCC"/>
<path d="M23.7332 32.935C23.7332 33.1244 23.5784 33.277 23.3861 33.277H22.3236C22.1314 33.277 21.9766 33.1244 21.9766 32.935C21.9766 32.7456 22.1314 32.593 22.3236 32.593H23.3861C23.5784 32.593 23.7332 32.7456 23.7332 32.935Z" fill="#4D4D4D"/>
<path d="M20.4015 33.8241C20.583 33.8767 20.6898 34.0661 20.6364 34.2503L20.3374 35.2552C20.284 35.434 20.0918 35.5393 19.905 35.4866C19.7234 35.434 19.6166 35.2446 19.67 35.0605L19.969 34.0556C20.0278 33.8767 20.22 33.7715 20.4015 33.8241Z" fill="#4D4D4D"/>
<path d="M25.5274 35.229C25.3618 35.3184 25.1483 35.2605 25.0575 35.0922L24.5503 34.1715C24.4595 34.0031 24.5182 33.7979 24.6891 33.7085C24.8599 33.619 25.0682 33.6822 25.1589 33.8453L25.6662 34.766C25.7623 34.9343 25.6982 35.1395 25.5274 35.229Z" fill="#4D4D4D"/>
<path d="M23.5409 38.3593C23.4181 38.212 23.4395 37.9963 23.589 37.8753L24.4112 37.2124C24.5607 37.0914 24.7796 37.1124 24.9024 37.2597C25.0253 37.407 25.0039 37.6227 24.8544 37.7437L24.0268 38.4066C23.8826 38.5224 23.6637 38.5013 23.5409 38.3593Z" fill="#4D4D4D"/>
<path d="M20.1879 37.1176C20.3107 36.9703 20.5296 36.9492 20.6791 37.065L21.5067 37.7226C21.6562 37.8436 21.6775 38.0594 21.5547 38.2067C21.4319 38.354 21.213 38.375 21.0635 38.254L20.2359 37.5964C20.0918 37.4806 20.0704 37.2649 20.1879 37.1176Z" fill="#4D4D4D"/>
<path d="M80.4902 35.4867C80.4902 39.0801 77.5322 41.9948 73.8855 41.9948C70.2387 41.9948 67.2808 39.0801 67.2808 35.4867C67.2808 31.8933 70.2387 28.9734 73.8855 28.9734C77.5322 28.9786 80.4902 31.8933 80.4902 35.4867Z" fill="#333333"/>
<path d="M81.4512 36.5073C80.9333 36.5073 80.5169 36.097 80.5169 35.5866C80.5169 31.9827 77.5429 29.0522 73.8854 29.0522C70.228 29.0522 67.254 31.9827 67.254 35.5866C67.254 36.097 66.8375 36.5073 66.3196 36.5073C65.8017 36.5073 65.3853 36.097 65.3853 35.5866C65.3853 30.9673 69.1975 27.2056 73.8908 27.2056C78.5787 27.2056 82.3963 30.962 82.3963 35.5866C82.3856 36.097 81.9692 36.5073 81.4512 36.5073Z" fill="#1A1A1A"/>
<path d="M79.7746 35.6445C79.7746 38.8538 77.1369 41.4529 73.8799 41.4529C70.623 41.4529 67.9854 38.8538 67.9854 35.6445C67.9854 32.4352 70.623 29.8362 73.8799 29.8362C77.1369 29.8362 79.7746 32.4405 79.7746 35.6445Z" fill="#1A1A1A"/>
<path d="M9.60547 24.0278C9.60547 24.3592 9.33316 24.6275 8.99678 24.6275H4.26615C3.92978 24.6275 3.65747 24.3592 3.65747 24.0278C3.65747 23.6963 3.92978 23.428 4.26615 23.428H8.99678C9.33316 23.428 9.60547 23.6963 9.60547 24.0278Z" fill="#F7971E"/>
<path d="M40.1624 24.6486C40.1624 25.0958 39.7993 25.4536 39.3455 25.4536C38.8916 25.4536 38.5286 25.0958 38.5286 24.6486V0.80496C38.5286 0.35776 38.897 0 39.3455 0C39.794 0 40.1624 0.363021 40.1624 0.80496V24.6486Z" fill="#E6E6E6"/>
<path d="M49.2072 29.9782C49.2072 30.8674 48.4757 31.5882 47.5734 31.5882L40.1624 32.8771C39.26 32.8771 38.5286 32.1564 38.5286 31.2672V27.0635C38.5286 26.1744 39.26 25.4536 40.1624 25.4536H47.5734C48.4757 25.4536 49.2072 26.1744 49.2072 27.0635V29.9782Z" fill="#B2B2B2"/>
<path d="M45.9396 29.0733C45.9396 29.9624 45.2081 30.6832 44.3057 30.6832H42.3409C41.4385 30.6832 40.707 29.9624 40.707 29.0733V28.4051C40.707 27.5159 41.4385 26.7952 42.3409 26.7952H44.3057C45.2081 26.7952 45.9396 27.5159 45.9396 28.4051V29.0733Z" fill="#333333"/>
<path d="M99.3433 26.7426C99.3433 27.6317 98.6119 28.3525 97.7095 28.3525H40.1624C39.26 28.3525 38.5286 27.6317 38.5286 26.7426V21.9075C38.5286 21.0184 39.26 20.2976 40.1624 20.2976H97.7095C98.6119 20.2976 99.3433 21.0184 99.3433 21.9075V26.7426Z" fill="#E6E6E6"/>
<path d="M99.3433 21.9075H38.5286V26.7425H99.3433V21.9075Z" fill="#CCCCCC"/>
<path d="M98.6919 28.2314C98.6919 28.5155 98.4623 28.7417 98.174 28.7417H39.0465C38.7582 28.7417 38.5286 28.5155 38.5286 28.2314C38.5286 27.9473 38.7582 27.721 39.0465 27.721H98.1687C98.457 27.7158 98.6919 27.9473 98.6919 28.2314Z" fill="#999999"/>
<path d="M77.719 35.634C77.719 37.7174 76.0051 39.4115 73.8854 39.4115C71.7657 39.4115 70.0518 37.7227 70.0518 35.634C70.0518 33.5453 71.7657 31.8564 73.8854 31.8564C75.9998 31.8564 77.719 33.5505 77.719 35.634Z" fill="#B2B2B2"/>
<path d="M75.7169 35.6182C75.7169 36.6178 74.8946 37.428 73.8802 37.428C72.8657 37.428 72.0435 36.6178 72.0435 35.6182C72.0435 34.6186 72.8657 33.8083 73.8802 33.8083C74.8946 33.8083 75.7169 34.6186 75.7169 35.6182Z" fill="#CCCCCC"/>
<path d="M75.2363 35.6339C75.2363 36.3705 74.6276 36.9703 73.8801 36.9703C73.1326 36.9703 72.5239 36.3758 72.5239 35.6339C72.5239 34.8974 73.1326 34.2976 73.8801 34.2976C74.6276 34.2976 75.2363 34.8974 75.2363 35.6339Z" fill="#999999"/>
<path d="M73.8854 38.554C72.2516 38.554 70.9221 37.244 70.9221 35.6341C70.9221 34.0241 72.2516 32.7141 73.8854 32.7141C75.5193 32.7141 76.8487 34.0241 76.8487 35.6341C76.8434 37.244 75.5139 38.554 73.8854 38.554ZM73.8854 33.0403C72.4331 33.0403 71.2478 34.203 71.2478 35.6341C71.2478 37.0651 72.4278 38.2278 73.8854 38.2278C75.3377 38.2278 76.5177 37.0651 76.5177 35.6341C76.5177 34.203 75.3377 33.0403 73.8854 33.0403Z" fill="#CCCCCC"/>
<path d="M74.8465 32.935C74.8465 33.1244 74.6916 33.277 74.4994 33.277H73.4369C73.2447 33.277 73.0898 33.1244 73.0898 32.935C73.0898 32.7456 73.2447 32.593 73.4369 32.593H74.4994C74.6916 32.593 74.8465 32.7456 74.8465 32.935Z" fill="#4D4D4D"/>
<path d="M71.5201 33.8241C71.7016 33.8767 71.8084 34.0661 71.755 34.2503L71.456 35.2552C71.4026 35.434 71.2104 35.5393 71.0235 35.4866C70.8367 35.434 70.7352 35.2446 70.7886 35.0605L71.0876 34.0556C71.141 33.8767 71.3332 33.7715 71.5201 33.8241Z" fill="#4D4D4D"/>
<path d="M76.6458 35.229C76.4749 35.3184 76.2667 35.2605 76.1759 35.0922L75.6687 34.1715C75.5779 34.0031 75.6366 33.7979 75.8075 33.7085C75.9783 33.619 76.1866 33.6822 76.2773 33.8453L76.7846 34.766C76.8754 34.9343 76.8113 35.1395 76.6458 35.229Z" fill="#4D4D4D"/>
<path d="M74.6542 38.3593C74.5314 38.212 74.5528 37.9963 74.7023 37.8753L75.5245 37.2124C75.674 37.0914 75.8929 37.1124 76.0157 37.2597C76.1385 37.407 76.1172 37.6227 75.9677 37.7437L75.1454 38.4066C74.9959 38.5224 74.777 38.5013 74.6542 38.3593Z" fill="#4D4D4D"/>
<path d="M71.3064 37.1176C71.4292 36.9703 71.6481 36.9492 71.7976 37.065L72.6198 37.7226C72.7693 37.8436 72.7907 38.0594 72.6732 38.2067C72.5504 38.354 72.3315 38.375 72.1874 38.254L71.3598 37.5964C71.2103 37.4806 71.1836 37.2649 71.3064 37.1176Z" fill="#4D4D4D"/>
<path d="M99.0176 23.428H38.5286V25.5061H99.0176V23.428Z" fill="#B2B2B2"/>
<path d="M44.9303 21.9075H44.4124V26.9214H44.9303V21.9075Z" fill="#F2F2F2"/>
<path d="M53.1156 21.9075H52.5977V26.9214H53.1156V21.9075Z" fill="#F2F2F2"/>
<path d="M61.3006 21.9075H60.7827V26.9214H61.3006V21.9075Z" fill="#F2F2F2"/>
<path d="M69.4859 21.9075H68.968V26.9214H69.4859V21.9075Z" fill="#F2F2F2"/>
<path d="M77.671 21.9075H77.1531V26.9214H77.671V21.9075Z" fill="#F2F2F2"/>
<path d="M85.856 21.9075H85.3381V26.9214H85.856V21.9075Z" fill="#F2F2F2"/>
<path d="M94.0414 21.9075H93.5234V26.9214H94.0414V21.9075Z" fill="#F2F2F2"/>
<path d="M33.9793 15.0576C33.9793 15.3101 33.7711 15.5153 33.5148 15.5153H24.1977C23.9414 15.5153 23.7332 15.3101 23.7332 15.0576C23.7332 14.805 23.9414 14.5999 24.1977 14.5999H33.5094C33.7711 14.5999 33.9793 14.805 33.9793 15.0576Z" fill="#6AA6EC"/>
<path d="M10.8442 28.9576C10.8442 29.289 10.5719 29.5626 10.2302 29.5626H3.04884C2.71246 29.5626 2.43481 29.2943 2.43481 28.9576C2.43481 28.6261 2.70712 28.3525 3.04884 28.3525H10.2356C10.5719 28.3525 10.8442 28.6209 10.8442 28.9576Z" fill="#6AA6EC"/>
</svg>
